<?xml version="1.0" encoding="UTF-8" ?>
<!DOCTYPE svg PUBLIC "-//W3C//DTD SVG 1.1//EN" "http://www.w3.org/Graphics/SVG/1.1/DTD/svg11.dtd">
<svg xmlns="http://www.w3.org/2000/svg" version="1.1" width="330px" height="276px" style="shape-rendering:geometricPrecision; text-rendering:geometricPrecision; image-rendering:optimizeQuality; fill-rule:evenodd; clip-rule:evenodd" xmlns:xlink="http://www.w3.org/1999/xlink">
    <g><path style="opacity:0.004" fill="#8d494c" d="M 63.5,-0.5 C 64.1667,-0.5 64.8333,-0.5 65.5,-0.5C 64.8333,0.833333 64.1667,0.833333 63.5,-0.5 Z" /></g>
    <g><path style="opacity:1" fill="#c40302" d="M 73.5,-0.5 C 81.8333,-0.5 90.1667,-0.5 98.5,-0.5C 102.104,2.97492 106.104,5.97492 110.5,8.5C 110.557,9.60895 110.89,10.609 111.5,11.5C 108.015,10.4095 104.681,10.4095 101.5,11.5C 100.508,11.3284 99.8417,11.6618 99.5,12.5C 95.3454,13.0985 91.3454,14.2652 87.5,16C 84.5184,16.498 81.5184,16.6646 78.5,16.5C 78.5,17.8333 78.5,19.1667 78.5,20.5C 77.209,20.2627 76.209,20.596 75.5,21.5C 75.1667,21.5 74.8333,21.5 74.5,21.5C 69.3073,23.0847 67.8073,26.0847 70,30.5C 66.4653,31.0159 63.632,32.6825 61.5,35.5C 62.3946,37.3448 61.7279,38.6782 59.5,39.5C 58.2057,37.9522 57.5391,35.9522 57.5,33.5C 57.6667,31.5 57.8333,29.5 58,27.5C 60.6715,20.8236 63.8382,14.4902 67.5,8.5C 64.0105,9.31283 61.3438,11.3128 59.5,14.5C 50.1211,25.8782 47.2878,38.8782 51,53.5C 53.538,60.8994 55.7047,68.3994 57.5,76C 57.3158,77.3756 56.6491,78.2089 55.5,78.5C 53.7243,74.2448 51.7243,70.0781 49.5,66C 48.0829,60.1666 46.7496,54.3333 45.5,48.5C 45.347,42.1308 45.6803,35.7974 46.5,29.5C 46.3433,28.1266 46.51,26.7932 47,25.5C 50.8069,20.0464 54.1403,14.3797 57,8.5C 61.8126,4.07651 67.3126,1.07651 73.5,-0.5 Z" /></g>
    <g><path style="opacity:0.004" fill="#7a2b2a" d="M 102.5,-0.5 C 102.833,-0.5 103.167,-0.5 103.5,-0.5C 103.315,0.170143 102.981,0.170143 102.5,-0.5 Z" /></g>
    <g><path style="opacity:0.004" fill="#7b0000" d="M 61.5,0.5 C 62.8333,1.16667 62.8333,1.16667 61.5,0.5 Z" /></g>
    <g><path style="opacity:0.737" fill="#914747" d="M 98.5,-0.5 C 99.1667,-0.5 99.8333,-0.5 100.5,-0.5C 100.842,0.338246 101.508,0.67158 102.5,0.5C 105.404,2.05508 108.07,4.05508 110.5,6.5C 110.5,7.16667 110.5,7.83333 110.5,8.5C 106.104,5.97492 102.104,2.97492 98.5,-0.5 Z" /></g>
    <g><path style="opacity:0.004" fill="#9c6d66" d="M 54.5,5.5 C 55.8333,6.16667 55.8333,6.16667 54.5,5.5 Z" /></g>
    <g><path style="opacity:0.004" fill="#8c4346" d="M 110.5,5.5 C 111.833,6.16667 111.833,6.16667 110.5,5.5 Z" /></g>
    <g><path style="opacity:0.8" fill="#904a47" d="M 67.5,-0.5 C 69.5,-0.5 71.5,-0.5 73.5,-0.5C 67.3126,1.07651 61.8126,4.07651 57,8.5C 54.1403,14.3797 50.8069,20.0464 47,25.5C 46.51,26.7932 46.3433,28.1266 46.5,29.5C 45.7677,30.8083 44.9344,32.1416 44,33.5C 43.8195,36.6946 43.3195,39.6946 42.5,42.5C 41.8761,42.0831 41.5427,41.4164 41.5,40.5C 42.7295,31.4743 45.7295,23.141 50.5,15.5C 52.8766,11.2828 55.8766,7.44949 59.5,4C 62.4481,2.76275 65.1148,1.26275 67.5,-0.5 Z" /></g>
    <g><path style="opacity:1" fill="#b1817f" d="M 101.5,11.5 C 104.681,10.4095 108.015,10.4095 111.5,11.5C 111.5,11.8333 111.5,12.1667 111.5,12.5C 108.193,11.9492 104.86,11.6159 101.5,11.5 Z" /></g>
    <g><path style="opacity:1" fill="#802a27" d="M 110.5,8.5 C 112.167,9.5 113.5,10.8333 114.5,12.5C 113.833,12.5 113.167,12.5 112.5,12.5C 112.167,12.5 111.833,12.5 111.5,12.5C 111.5,12.1667 111.5,11.8333 111.5,11.5C 110.89,10.609 110.557,9.60895 110.5,8.5 Z" /></g>
    <g><path style="opacity:0.004" fill="#a7706d" d="M 50.5,12.5 C 51.8333,13.1667 51.8333,13.1667 50.5,12.5 Z" /></g>
    <g><path style="opacity:1" fill="#f4f4f4" d="M 101.5,11.5 C 104.86,11.6159 108.193,11.9492 111.5,12.5C 111.833,12.5 112.167,12.5 112.5,12.5C 113.568,13.4345 114.901,13.7678 116.5,13.5C 117.053,15.9393 117.053,18.2727 116.5,20.5C 117.313,21.8139 118.313,22.9805 119.5,24C 116.997,24.8736 114.997,24.207 113.5,22C 109.854,20.5471 106.188,20.3805 102.5,21.5C 103.376,22.2508 104.376,22.7508 105.5,23C 104.944,23.3826 104.611,23.8826 104.5,24.5C 98.2688,24.4462 92.2688,25.6129 86.5,28C 85.8333,28.6667 85.1667,29.3333 84.5,30C 85.1667,31.6667 85.8333,33.3333 86.5,35C 83.4465,35.1786 80.4465,35.6786 77.5,36.5C 78.9654,38.9448 78.4654,40.9448 76,42.5C 74.8732,39.0931 73.5398,39.4264 72,43.5C 71.3333,46.1667 70.6667,48.8333 70,51.5C 69.6827,49.6992 69.016,49.3659 68,50.5C 67.6905,51.7659 67.1905,52.9326 66.5,54C 67.1359,56.3938 67.1359,58.8938 66.5,61.5C 66.6309,62.3764 66.2975,63.0431 65.5,63.5C 64.8243,62.3984 64.1577,61.3984 63.5,60.5C 62.0903,59.1716 60.9236,59.5049 60,61.5C 59.502,58.5184 59.3354,55.5184 59.5,52.5C 58.5,52.5 57.5,52.5 56.5,52.5C 56.5,51.1667 56.5,49.8333 56.5,48.5C 56.5,48.1667 56.5,47.8333 56.5,47.5C 59.1125,46.9045 59.1125,46.0712 56.5,45C 58.4386,44.0922 59.4386,42.5922 59.5,40.5C 63.0926,39.5702 64.7593,37.2368 64.5,33.5C 67.8554,33.632 70.1887,32.2987 71.5,29.5C 71.1822,28.3527 70.5156,27.5194 69.5,27C 71.3734,25.2962 73.0401,23.4628 74.5,21.5C 74.8333,21.5 75.1667,21.5 75.5,21.5C 76.8333,21.5 78.1667,21.5 79.5,21.5C 79.5,20.1667 79.5,18.8333 79.5,17.5C 85.9977,17.5567 92.331,16.5567 98.5,14.5C 98.8627,13.8165 99.1961,13.1499 99.5,12.5C 99.8417,11.6618 100.508,11.3284 101.5,11.5 Z" /></g>
    <g><path style="opacity:0.004" fill="#3b0000" d="M 50.5,15.5 C 49.8333,14.1667 49.8333,14.1667 50.5,15.5 Z" /></g>
    <g><path style="opacity:0.004" fill="#6c0000" d="M 49.5,15.5 C 48.8333,16.1667 48.8333,16.1667 49.5,15.5 Z" /></g>
    <g><path style="opacity:0.004" fill="#9d6268" d="M 48.5,16.5 C 47.8333,17.1667 47.8333,17.1667 48.5,16.5 Z" /></g>
    <g><path style="opacity:1" fill="#be918e" d="M 99.5,12.5 C 99.1961,13.1499 98.8627,13.8165 98.5,14.5C 92.331,16.5567 85.9977,17.5567 79.5,17.5C 79.5,18.8333 79.5,20.1667 79.5,21.5C 78.1667,21.5 76.8333,21.5 75.5,21.5C 76.209,20.596 77.209,20.2627 78.5,20.5C 78.5,19.1667 78.5,17.8333 78.5,16.5C 81.5184,16.6646 84.5184,16.498 87.5,16C 91.3454,14.2652 95.3454,13.0985 99.5,12.5 Z" /></g>
    <g><path style="opacity:0.004" fill="#985e5c" d="M 44.5,22.5 C 45.8333,23.1667 45.8333,23.1667 44.5,22.5 Z" /></g>
    <g><path style="opacity:0.831" fill="#b4b3b3" d="M 122.5,25.5 C 120.973,25.427 119.973,26.0937 119.5,27.5C 116.811,26.9618 114.144,26.2951 111.5,25.5C 110.808,26.0253 110.308,26.6919 110,27.5C 108.736,25.393 106.903,24.393 104.5,24.5C 104.611,23.8826 104.944,23.3826 105.5,23C 104.376,22.7508 103.376,22.2508 102.5,21.5C 106.188,20.3805 109.854,20.5471 113.5,22C 114.997,24.207 116.997,24.8736 119.5,24C 118.313,22.9805 117.313,21.8139 116.5,20.5C 117.053,18.2727 117.053,15.9393 116.5,13.5C 114.901,13.7678 113.568,13.4345 112.5,12.5C 113.167,12.5 113.833,12.5 114.5,12.5C 119.336,10.7623 120.336,11.929 117.5,16C 119.701,17.6845 120.367,19.6845 119.5,22C 122.447,22.0755 123.447,23.2422 122.5,25.5 Z" /></g>
    <g><path style="opacity:1" fill="#d0cfcf" d="M 104.5,24.5 C 103.22,25.9313 101.553,26.5979 99.5,26.5C 99.719,27.675 99.3857,28.675 98.5,29.5C 94.3258,27.7341 90.9924,28.7341 88.5,32.5C 89.376,33.2508 90.376,33.7508 91.5,34C 88.6644,36.5843 85.3311,37.7509 81.5,37.5C 80.9802,41.5384 79.1469,44.8717 76,47.5C 75.3946,45.5188 74.3946,45.1854 73,46.5C 72.5026,49.146 72.3359,51.8127 72.5,54.5C 71.5,54.5 70.5,54.5 69.5,54.5C 69.821,57.5769 68.821,59.9103 66.5,61.5C 67.1359,58.8938 67.1359,56.3938 66.5,54C 67.1905,52.9326 67.6905,51.7659 68,50.5C 69.016,49.3659 69.6827,49.6992 70,51.5C 70.6667,48.8333 71.3333,46.1667 72,43.5C 73.5398,39.4264 74.8732,39.0931 76,42.5C 78.4654,40.9448 78.9654,38.9448 77.5,36.5C 80.4465,35.6786 83.4465,35.1786 86.5,35C 85.8333,33.3333 85.1667,31.6667 84.5,30C 85.1667,29.3333 85.8333,28.6667 86.5,28C 92.2688,25.6129 98.2688,24.4462 104.5,24.5 Z" /></g>
    <g><path style="opacity:0.978" fill="#604430" d="M 104.5,24.5 C 106.903,24.393 108.736,25.393 110,27.5C 110.308,26.6919 110.808,26.0253 111.5,25.5C 114.144,26.2951 116.811,26.9618 119.5,27.5C 121.423,30.2178 122.756,29.8845 123.5,26.5C 124.482,25.8592 125.482,25.1925 126.5,24.5C 129.476,28.6438 132.643,32.6438 136,36.5C 141.465,45.6533 140.299,53.8199 132.5,61C 130.257,62.1362 127.924,62.9695 125.5,63.5C 120.053,60.5598 114.72,57.3931 109.5,54C 106.86,53.161 104.527,53.661 102.5,55.5C 100.197,61.4453 97.5303,67.1119 94.5,72.5C 92.7094,72.0381 91.7094,70.8715 91.5,69C 92.6166,66.2687 93.2833,63.4353 93.5,60.5C 89.5743,60.0466 86.4077,61.3799 84,64.5C 82.6667,67.8333 81.3333,71.1667 80,74.5C 76.6116,76.7277 73.1116,78.7277 69.5,80.5C 67.847,80.3404 66.5137,79.6737 65.5,78.5C 65.2962,75.4824 64.9629,72.4824 64.5,69.5C 64.7678,67.901 64.4345,66.5676 63.5,65.5C 63.5,63.8333 63.5,62.1667 63.5,60.5C 64.1577,61.3984 64.8243,62.3984 65.5,63.5C 66.2975,63.0431 66.6309,62.3764 66.5,61.5C 68.821,59.9103 69.821,57.5769 69.5,54.5C 70.5,54.5 71.5,54.5 72.5,54.5C 72.3359,51.8127 72.5026,49.146 73,46.5C 74.3946,45.1854 75.3946,45.5188 76,47.5C 79.1469,44.8717 80.9802,41.5384 81.5,37.5C 85.3311,37.7509 88.6644,36.5843 91.5,34C 90.376,33.7508 89.376,33.2508 88.5,32.5C 90.9924,28.7341 94.3258,27.7341 98.5,29.5C 99.3857,28.675 99.719,27.675 99.5,26.5C 101.553,26.5979 103.22,25.9313 104.5,24.5 Z M 122.5,25.5 C 122.5,26.1667 122.833,26.5 123.5,26.5C 122.756,29.8845 121.423,30.2178 119.5,27.5C 119.973,26.0937 120.973,25.427 122.5,25.5 Z" /></g>
    <g><path style="opacity:0.004" fill="#965b5d" d="M 41.5,29.5 C 42.525,29.8966 42.6917,30.5632 42,31.5C 41.5357,30.9056 41.369,30.2389 41.5,29.5 Z" /></g>
    <g><path style="opacity:1" fill="#9c0302" d="M 59.5,39.5 C 59.5,39.8333 59.5,40.1667 59.5,40.5C 57.3683,41.8033 55.7016,43.6366 54.5,46C 54.8361,47.0299 55.5028,47.5299 56.5,47.5C 56.5,47.8333 56.5,48.1667 56.5,48.5C 55.596,49.209 55.2627,50.209 55.5,51.5C 54.596,52.209 54.2627,53.209 54.5,54.5C 50.5356,40.4869 52.2023,27.1536 59.5,14.5C 61.3438,11.3128 64.0105,9.31283 67.5,8.5C 63.8382,14.4902 60.6715,20.8236 58,27.5C 57.8333,29.5 57.6667,31.5 57.5,33.5C 57.5391,35.9522 58.2057,37.9522 59.5,39.5 Z" /></g>
    <g><path style="opacity:1" fill="#b10302" d="M 59.5,14.5 C 52.2023,27.1536 50.5356,40.4869 54.5,54.5C 56.5357,55.5919 57.869,57.5919 58.5,60.5C 58.2222,62.3464 58.8888,63.6798 60.5,64.5C 61.0568,62.6684 62.0568,61.3351 63.5,60.5C 63.5,62.1667 63.5,63.8333 63.5,65.5C 61.543,72.2317 59.8763,78.8984 58.5,85.5C 57.3995,84.3951 56.7329,83.0618 56.5,81.5C 55.8902,80.609 55.5569,79.609 55.5,78.5C 56.6491,78.2089 57.3158,77.3756 57.5,76C 55.7047,68.3994 53.538,60.8994 51,53.5C 47.2878,38.8782 50.1211,25.8782 59.5,14.5 Z" /></g>
    <g><path style="opacity:0.998" fill="#990505" d="M 46.5,29.5 C 45.6803,35.7974 45.347,42.1308 45.5,48.5C 44.9779,46.7809 43.9779,45.4475 42.5,44.5C 42.5,43.8333 42.5,43.1667 42.5,42.5C 43.3195,39.6946 43.8195,36.6946 44,33.5C 44.9344,32.1416 45.7677,30.8083 46.5,29.5 Z" /></g>
    <g><path style="opacity:1" fill="#bca5a4" d="M 74.5,21.5 C 73.0401,23.4628 71.3734,25.2962 69.5,27C 70.5156,27.5194 71.1822,28.3527 71.5,29.5C 70.1887,32.2987 67.8554,33.632 64.5,33.5C 64.7593,37.2368 63.0926,39.5702 59.5,40.5C 59.5,40.1667 59.5,39.8333 59.5,39.5C 61.7279,38.6782 62.3946,37.3448 61.5,35.5C 63.632,32.6825 66.4653,31.0159 70,30.5C 67.8073,26.0847 69.3073,23.0847 74.5,21.5 Z" /></g>
    <g><path style="opacity:1" fill="#c0aaa8" d="M 59.5,40.5 C 59.4386,42.5922 58.4386,44.0922 56.5,45C 59.1125,46.0712 59.1125,46.9045 56.5,47.5C 55.5028,47.5299 54.8361,47.0299 54.5,46C 55.7016,43.6366 57.3683,41.8033 59.5,40.5 Z" /></g>
    <g><path style="opacity:0.004" fill="#813936" d="M 40.5,43.5 C 41.8333,44.1667 41.8333,44.1667 40.5,43.5 Z" /></g>
    <g><path style="opacity:0.004" fill="#904449" d="M 41.5,51.5 C 42.525,51.8966 42.6917,52.5632 42,53.5C 41.5357,52.9056 41.369,52.2389 41.5,51.5 Z" /></g>
    <g><path style="opacity:0.978" fill="#f7ab7d" d="M 125.5,63.5 C 123.352,71.0692 121.519,78.7358 120,86.5C 118.237,87.9437 116.237,88.9437 114,89.5C 111.785,94.0997 108.952,98.2664 105.5,102C 101.35,104.144 97.35,103.977 93.5,101.5C 91.8149,103.571 90.1482,105.571 88.5,107.5C 84.1223,97.4142 77.789,88.7475 69.5,81.5C 69.5,81.1667 69.5,80.8333 69.5,80.5C 73.1116,78.7277 76.6116,76.7277 80,74.5C 81.3333,71.1667 82.6667,67.8333 84,64.5C 86.4077,61.3799 89.5743,60.0466 93.5,60.5C 93.2833,63.4353 92.6166,66.2687 91.5,69C 91.7094,70.8715 92.7094,72.0381 94.5,72.5C 97.5303,67.1119 100.197,61.4453 102.5,55.5C 104.527,53.661 106.86,53.161 109.5,54C 114.72,57.3931 120.053,60.5598 125.5,63.5 Z" /></g>
    <g><path style="opacity:1" fill="#a67d7b" d="M 55.5,51.5 C 55.5,52.5 55.5,53.5 55.5,54.5C 56.5,54.5 57.5,54.5 58.5,54.5C 58.5,56.5 58.5,58.5 58.5,60.5C 57.869,57.5919 56.5357,55.5919 54.5,54.5C 54.2627,53.209 54.596,52.209 55.5,51.5 Z" /></g>
    <g><path style="opacity:1" fill="#cabebd" d="M 56.5,48.5 C 56.5,49.8333 56.5,51.1667 56.5,52.5C 57.5,52.5 58.5,52.5 59.5,52.5C 59.3354,55.5184 59.502,58.5184 60,61.5C 60.9236,59.5049 62.0903,59.1716 63.5,60.5C 62.0568,61.3351 61.0568,62.6684 60.5,64.5C 58.8888,63.6798 58.2222,62.3464 58.5,60.5C 58.5,58.5 58.5,56.5 58.5,54.5C 57.5,54.5 56.5,54.5 55.5,54.5C 55.5,53.5 55.5,52.5 55.5,51.5C 55.2627,50.209 55.596,49.209 56.5,48.5 Z" /></g>
    <g><path style="opacity:0.004" fill="#7e2c2b" d="M 44.5,60.5 C 45.525,60.8966 45.6917,61.5632 45,62.5C 44.5357,61.9056 44.369,61.2389 44.5,60.5 Z" /></g>
    <g><path style="opacity:0.004" fill="#90464a" d="M 46.5,66.5 C 47.8333,67.1667 47.8333,67.1667 46.5,66.5 Z" /></g>
    <g><path style="opacity:0.6" fill="#9a514b" d="M 42.5,44.5 C 43.9779,45.4475 44.9779,46.7809 45.5,48.5C 46.7496,54.3333 48.0829,60.1666 49.5,66C 51.7243,70.0781 53.7243,74.2448 55.5,78.5C 55.5569,79.609 55.8902,80.609 56.5,81.5C 55.8333,81.5 55.1667,81.5 54.5,81.5C 54.6138,78.784 53.6138,76.784 51.5,75.5C 47.4201,65.5195 44.4201,55.1862 42.5,44.5 Z" /></g>
    <g><path style="opacity:0.004" fill="#975856" d="M 49.5,73.5 C 50.8333,74.1667 50.8333,74.1667 49.5,73.5 Z" /></g>
    <g><path style="opacity:0.945" fill="#f1695c" d="M 51.5,75.5 C 53.6138,76.784 54.6138,78.784 54.5,81.5C 50.6413,82.2704 48.308,84.6037 47.5,88.5C 46.3957,89.9974 45.3957,91.664 44.5,93.5C 44.5427,94.4164 44.8761,95.0831 45.5,95.5C 45.5,95.8333 45.5,96.1667 45.5,96.5C 45.5,98.1667 45.5,99.8333 45.5,101.5C 38.3963,101.577 31.3963,102.244 24.5,103.5C 19.862,96.9432 21.1954,91.4432 28.5,87C 30.1341,86.5065 31.8008,86.3398 33.5,86.5C 33.0317,80.129 36.0317,76.629 42.5,76C 45.4816,75.502 48.4816,75.3354 51.5,75.5 Z" /></g>
    <g><path style="opacity:0.99" fill="#852c28" d="M 63.5,65.5 C 64.4345,66.5676 64.7678,67.901 64.5,69.5C 63.6295,72.003 62.9628,74.6697 62.5,77.5C 61.6618,77.8417 61.3284,78.5084 61.5,79.5C 61.5,81.8333 61.5,84.1667 61.5,86.5C 60.209,86.7373 59.209,86.404 58.5,85.5C 59.8763,78.8984 61.543,72.2317 63.5,65.5 Z" /></g>
    <g><path style="opacity:0.762" fill="#e46b5e" d="M 62.5,77.5 C 63.609,77.5569 64.609,77.8902 65.5,78.5C 66.5137,79.6737 67.847,80.3404 69.5,80.5C 69.5,80.8333 69.5,81.1667 69.5,81.5C 67.3792,81.6747 65.3792,81.3414 63.5,80.5C 63.1583,79.6618 62.4916,79.3284 61.5,79.5C 61.3284,78.5084 61.6618,77.8417 62.5,77.5 Z" /></g>
    <g><path style="opacity:1" fill="#f8f7f6" d="M 61.5,79.5 C 62.4916,79.3284 63.1583,79.6618 63.5,80.5C 64.1834,82.1765 65.5168,82.8432 67.5,82.5C 67.67,83.8221 67.3366,84.9887 66.5,86C 67.2529,87.487 68.0862,87.6537 69,86.5C 70.2937,87.8544 70.4604,89.1877 69.5,90.5C 69.9767,91.4776 70.6433,92.3109 71.5,93C 70.1667,94.6667 70.1667,96.3333 71.5,98C 70.2396,99.113 69.073,99.2797 68,98.5C 67.6667,99.8333 67.3333,101.167 67,102.5C 66.586,102.043 66.086,101.709 65.5,101.5C 64.5,102.833 63.5,104.167 62.5,105.5C 61.5,104.167 60.5,104.167 59.5,105.5C 58.3265,102.721 56.4932,102.054 54,103.5C 51.874,101.623 49.374,100.623 46.5,100.5C 46.7678,98.901 46.4345,97.5676 45.5,96.5C 45.5,96.1667 45.5,95.8333 45.5,95.5C 46.449,93.2627 47.1156,90.9294 47.5,88.5C 48.308,84.6037 50.6413,82.2704 54.5,81.5C 55.1667,81.5 55.8333,81.5 56.5,81.5C 56.7329,83.0618 57.3995,84.3951 58.5,85.5C 59.209,86.404 60.209,86.7373 61.5,86.5C 61.5,84.1667 61.5,81.8333 61.5,79.5 Z" /></g>
    <g><path style="opacity:1" fill="#d39690" d="M 47.5,88.5 C 47.1156,90.9294 46.449,93.2627 45.5,95.5C 44.8761,95.0831 44.5427,94.4164 44.5,93.5C 45.3957,91.664 46.3957,89.9974 47.5,88.5 Z" /></g>
    <g><path style="opacity:0.995" fill="#e55746" d="M 45.5,101.5 C 46.7281,102.306 47.7281,103.306 48.5,104.5C 37.7539,113.223 33.5872,124.556 36,138.5C 39.6974,158.655 44.0307,178.655 49,198.5C 50,200.5 51,202.5 52,204.5C 54.0581,205.229 55.8914,206.229 57.5,207.5C 58.038,209.117 58.3713,210.784 58.5,212.5C 60.7429,220.395 61.0763,228.395 59.5,236.5C 54.8465,244.31 48.1798,249.81 39.5,253C 26.7035,258.366 13.3702,260.866 -0.5,260.5C -0.5,218.833 -0.5,177.167 -0.5,135.5C 5.57349,123.09 13.9068,112.424 24.5,103.5C 31.3963,102.244 38.3963,101.577 45.5,101.5 Z" /></g>
    <g><path style="opacity:0.999" fill="#f1695c" d="M 69.5,81.5 C 77.789,88.7475 84.1223,97.4142 88.5,107.5C 90.2154,111.966 90.8821,116.633 90.5,121.5C 89.5,122.167 88.5,122.833 87.5,123.5C 84.6675,115.331 79.3341,109.331 71.5,105.5C 71.1667,106 70.8333,106.5 70.5,107C 75.0909,112.012 78.2576,117.845 80,124.5C 80.2382,142.167 80.0715,159.833 79.5,177.5C 99.856,177.773 120.189,177.44 140.5,176.5C 139.555,181.405 139.221,186.405 139.5,191.5C 138.025,193.41 136.025,194.576 133.5,195C 110.673,200.266 87.6727,204.433 64.5,207.5C 62.1667,207.5 59.8333,207.5 57.5,207.5C 55.8914,206.229 54.0581,205.229 52,204.5C 51,202.5 50,200.5 49,198.5C 44.0307,178.655 39.6974,158.655 36,138.5C 33.5872,124.556 37.7539,113.223 48.5,104.5C 50.8795,103.433 51.8795,104.433 51.5,107.5C 56.0375,109.386 60.7041,110.053 65.5,109.5C 68.503,106.659 71.503,103.826 74.5,101C 71.5315,98.8223 71.8649,97.6556 75.5,97.5C 76.9743,91.5 74.9743,87.5 69.5,85.5C 69.5,84.1667 69.5,82.8333 69.5,81.5 Z" /></g>
    <g><path style="opacity:1" fill="#dfd7d6" d="M 63.5,80.5 C 65.3792,81.3414 67.3792,81.6747 69.5,81.5C 69.5,82.8333 69.5,84.1667 69.5,85.5C 74.9743,87.5 76.9743,91.5 75.5,97.5C 71.8649,97.6556 71.5315,98.8223 74.5,101C 71.503,103.826 68.503,106.659 65.5,109.5C 60.7041,110.053 56.0375,109.386 51.5,107.5C 51.8795,104.433 50.8795,103.433 48.5,104.5C 47.7281,103.306 46.7281,102.306 45.5,101.5C 45.5,99.8333 45.5,98.1667 45.5,96.5C 46.4345,97.5676 46.7678,98.901 46.5,100.5C 49.374,100.623 51.874,101.623 54,103.5C 56.4932,102.054 58.3265,102.721 59.5,105.5C 60.5,104.167 61.5,104.167 62.5,105.5C 63.5,104.167 64.5,102.833 65.5,101.5C 66.086,101.709 66.586,102.043 67,102.5C 67.3333,101.167 67.6667,99.8333 68,98.5C 69.073,99.2797 70.2396,99.113 71.5,98C 70.1667,96.3333 70.1667,94.6667 71.5,93C 70.6433,92.3109 69.9767,91.4776 69.5,90.5C 70.4604,89.1877 70.2937,87.8544 69,86.5C 68.0862,87.6537 67.2529,87.487 66.5,86C 67.3366,84.9887 67.67,83.8221 67.5,82.5C 65.5168,82.8432 64.1834,82.1765 63.5,80.5 Z" /></g>
    <g><path style="opacity:0.965" fill="#e65746" d="M 87.5,123.5 C 87.4982,128.519 87.1648,133.519 86.5,138.5C 87.1894,145.109 87.856,145.109 88.5,138.5C 89.1667,139.167 89.8333,139.833 90.5,140.5C 90.1774,144.226 90.5108,147.893 91.5,151.5C 92.1835,151.137 92.8501,150.804 93.5,150.5C 95.5969,154.53 97.5969,158.697 99.5,163C 113.833,163.333 128.167,163.667 142.5,164C 143.252,164.671 143.586,165.504 143.5,166.5C 143.5,169.833 143.5,173.167 143.5,176.5C 142.5,176.5 141.5,176.5 140.5,176.5C 120.189,177.44 99.856,177.773 79.5,177.5C 80.0715,159.833 80.2382,142.167 80,124.5C 78.2576,117.845 75.0909,112.012 70.5,107C 70.8333,106.5 71.1667,106 71.5,105.5C 79.3341,109.331 84.6675,115.331 87.5,123.5 Z" /></g>
    <g><path style="opacity:0.738" fill="#dfd9d7" d="M 90.5,121.5 C 93.0194,130.96 94.0194,140.627 93.5,150.5C 92.8501,150.804 92.1835,151.137 91.5,151.5C 90.5108,147.893 90.1774,144.226 90.5,140.5C 90.6602,138.801 90.4935,137.134 90,135.5C 88.9614,136.244 88.4614,137.244 88.5,138.5C 87.856,145.109 87.1894,145.109 86.5,138.5C 87.1648,133.519 87.4982,128.519 87.5,123.5C 88.5,122.833 89.5,122.167 90.5,121.5 Z M 90.5,140.5 C 89.8333,139.833 89.1667,139.167 88.5,138.5C 88.4614,137.244 88.9614,136.244 90,135.5C 90.4935,137.134 90.6602,138.801 90.5,140.5 Z" /></g>
    <g><path style="opacity:0.719" fill="#414444" d="M 186.5,148.5 C 183.862,151.474 181.195,154.474 178.5,157.5C 177.833,157.5 177.167,157.5 176.5,157.5C 178.811,154.853 181.144,152.186 183.5,149.5C 181.981,146.44 179.648,144.94 176.5,145C 174.297,147.372 171.963,149.539 169.5,151.5C 169.5,150.833 169.5,150.167 169.5,149.5C 172.512,146.655 175.679,143.988 179,141.5C 181.986,143.32 184.486,145.653 186.5,148.5 Z" /></g>
    <g><path style="opacity:1" fill="#f8f6f5" d="M 176.5,157.5 C 175.448,157.351 174.448,157.517 173.5,158C 172.27,160.339 170.937,162.506 169.5,164.5C 167.608,162.465 165.275,160.965 162.5,160C 165.423,157.584 167.757,154.75 169.5,151.5C 171.963,149.539 174.297,147.372 176.5,145C 179.648,144.94 181.981,146.44 183.5,149.5C 181.144,152.186 178.811,154.853 176.5,157.5 Z" /></g>
    <g><path style="opacity:0.705" fill="#b9bcbf" d="M 186.5,148.5 C 187.695,148.866 188.361,149.699 188.5,151C 187.015,153.317 185.348,155.484 183.5,157.5C 181.833,157.5 180.167,157.5 178.5,157.5C 181.195,154.474 183.862,151.474 186.5,148.5 Z" /></g>
    <g><path style="opacity:0.974" fill="#f7af85" d="M 169.5,149.5 C 169.5,150.167 169.5,150.833 169.5,151.5C 167.757,154.75 165.423,157.584 162.5,160C 165.275,160.965 167.608,162.465 169.5,164.5C 167.171,166.98 166.505,169.813 167.5,173C 165.294,175.037 163.294,177.203 161.5,179.5C 161.167,180.5 160.5,181.167 159.5,181.5C 153.391,185.888 146.724,189.221 139.5,191.5C 139.221,186.405 139.555,181.405 140.5,176.5C 141.5,176.5 142.5,176.5 143.5,176.5C 143.5,173.167 143.5,169.833 143.5,166.5C 144.5,166.5 145.5,166.5 146.5,166.5C 146.343,165.127 146.51,163.793 147,162.5C 150.465,160.037 153.631,157.204 156.5,154C 160.493,153.678 163.826,152.012 166.5,149C 167.749,148.26 168.749,148.427 169.5,149.5 Z" /></g>
    <g><path style="opacity:0.881" fill="#f7a270" d="M 176.5,157.5 C 177.167,157.5 177.833,157.5 178.5,157.5C 180.167,157.5 181.833,157.5 183.5,157.5C 185.14,158.79 185.64,160.457 185,162.5C 183,165.167 181,167.833 179,170.5C 174.17,175.507 168.337,178.507 161.5,179.5C 163.294,177.203 165.294,175.037 167.5,173C 166.505,169.813 167.171,166.98 169.5,164.5C 170.937,162.506 172.27,160.339 173.5,158C 174.448,157.517 175.448,157.351 176.5,157.5 Z" /></g>
    <g><path style="opacity:0.992" fill="#1e4e75" d="M 159.5,181.5 C 163.503,187.012 167.337,192.679 171,198.5C 179.527,215.553 188.027,232.553 196.5,249.5C 185.169,248.048 173.836,246.548 162.5,245C 160.189,244.764 158.189,243.931 156.5,242.5C 148.494,233.494 140.494,224.494 132.5,215.5C 122.575,223.615 112.908,231.948 103.5,240.5C 88.8089,239.431 74.1422,238.098 59.5,236.5C 61.0763,228.395 60.7429,220.395 58.5,212.5C 60.5398,210.823 62.5398,209.156 64.5,207.5C 87.6727,204.433 110.673,200.266 133.5,195C 136.025,194.576 138.025,193.41 139.5,191.5C 146.724,189.221 153.391,185.888 159.5,181.5 Z" /></g>
    <g><path style="opacity:0.972" fill="#383a3a" d="M 296.5,222.5 C 292,222.219 291.167,223.886 294,227.5C 294.667,233.167 294.667,238.833 294,244.5C 290.589,254.899 287.089,265.232 283.5,275.5C 279.833,275.5 276.167,275.5 272.5,275.5C 272.634,268.667 270.634,262.667 266.5,257.5C 259.081,248.214 261.415,244.548 273.5,246.5C 274.842,249.166 276.675,251.499 279,253.5C 279.667,252.5 279.667,251.5 279,250.5C 277.579,248.595 276.412,246.595 275.5,244.5C 275.5,243.833 275.833,243.5 276.5,243.5C 278.339,244.508 279.672,246.008 280.5,248C 281.332,248.688 281.998,248.521 282.5,247.5C 280.703,245.045 279.37,242.378 278.5,239.5C 279.167,239.5 279.5,239.167 279.5,238.5C 280.779,240.123 282.113,241.79 283.5,243.5C 283.833,243 284.167,242.5 284.5,242C 283.094,240.022 282.094,237.855 281.5,235.5C 281.5,235.167 281.5,234.833 281.5,234.5C 282.659,235.456 283.826,236.456 285,237.5C 285.5,237.333 286,237.167 286.5,237C 285.242,235.259 284.242,233.426 283.5,231.5C 285.248,228.569 287.248,225.736 289.5,223C 291.895,221.402 294.228,221.236 296.5,222.5 Z" /></g>
    <g><path style="opacity:1" fill="#e5c368" d="M 296.5,222.5 C 297.458,222.953 298.292,223.619 299,224.5C 299.667,231.167 299.667,237.833 299,244.5C 296.647,254.909 294.147,265.243 291.5,275.5C 288.833,275.5 286.167,275.5 283.5,275.5C 287.089,265.232 290.589,254.899 294,244.5C 294.667,238.833 294.667,233.167 294,227.5C 291.167,223.886 292,222.219 296.5,222.5 Z" /></g>
    <g><path style="opacity:1" fill="#d0d3d3" d="M 283.5,231.5 C 284.242,233.426 285.242,235.259 286.5,237C 286,237.167 285.5,237.333 285,237.5C 283.826,236.456 282.659,235.456 281.5,234.5C 281.285,232.821 281.952,231.821 283.5,231.5 Z" /></g>
    <g><path style="opacity:0.991" fill="#1a5782" d="M 59.5,236.5 C 74.1422,238.098 88.8089,239.431 103.5,240.5C 120.351,241.272 137.184,242.272 154,243.5C 155.07,243.472 155.903,243.139 156.5,242.5C 158.189,243.931 160.189,244.764 162.5,245C 173.836,246.548 185.169,248.048 196.5,249.5C 216.903,251.787 236.903,255.787 256.5,261.5C 257.314,266.119 257.647,270.786 257.5,275.5C 171.5,275.5 85.5,275.5 -0.5,275.5C -0.5,270.5 -0.5,265.5 -0.5,260.5C 13.3702,260.866 26.7035,258.366 39.5,253C 48.1798,249.81 54.8465,244.31 59.5,236.5 Z" /></g>
    <g><path style="opacity:1" fill="#ced0d1" d="M 281.5,235.5 C 282.094,237.855 283.094,240.022 284.5,242C 284.167,242.5 283.833,243 283.5,243.5C 282.113,241.79 280.779,240.123 279.5,238.5C 278.282,236.668 278.949,235.668 281.5,235.5 Z" /></g>
    <g><path style="opacity:1" fill="#c9cbcb" d="M 278.5,239.5 C 279.37,242.378 280.703,245.045 282.5,247.5C 281.998,248.521 281.332,248.688 280.5,248C 279.672,246.008 278.339,244.508 276.5,243.5C 274.998,241.171 275.664,239.837 278.5,239.5 Z" /></g>
    <g><path style="opacity:1" fill="#cccece" d="M 275.5,244.5 C 276.412,246.595 277.579,248.595 279,250.5C 279.667,251.5 279.667,252.5 279,253.5C 276.675,251.499 274.842,249.166 273.5,246.5C 273.5,245.167 274.167,244.5 275.5,244.5 Z" /></g>
    <g><path style="opacity:0.966" fill="#ee6c47" d="M 266.5,257.5 C 270.634,262.667 272.634,268.667 272.5,275.5C 267.5,275.5 262.5,275.5 257.5,275.5C 257.647,270.786 257.314,266.119 256.5,261.5C 260.04,260.613 263.373,259.279 266.5,257.5 Z" /></g>
</svg>