<?xml version="1.0" encoding="UTF-8" ?>
<svg version="1.1" xmlns="http://www.w3.org/2000/svg" width="330" height="276">
    <path d="M0 0 C3.05194859 1.96555537 5.97298718 4.07334581 8.8984375 6.22265625 C9.5584375 6.22265625 10.2184375 6.22265625 10.8984375 6.22265625 C11.3934375 5.56265625 11.8884375 4.90265625 12.3984375 4.22265625 C12.8934375 3.56265625 13.3884375 2.90265625 13.8984375 2.22265625 C14.5584375 2.22265625 15.2184375 2.22265625 15.8984375 2.22265625 C17.65301146 4.43958416 19.28850513 6.65435364 20.8984375 8.97265625 C21.57519531 9.92398438 21.57519531 9.92398438 22.265625 10.89453125 C26.69378718 17.18304559 28.75872997 21.38443594 27.8984375 29.22265625 C26.07458408 34.49156612 23.36048464 37.09922325 18.8984375 40.22265625 C16.203125 40.859375 16.203125 40.859375 13.8984375 41.22265625 C13.78773926 41.77203857 13.67704102 42.3214209 13.56298828 42.88745117 C13.05466023 45.39603158 12.53911679 47.90307714 12.0234375 50.41015625 C11.76240234 51.70663086 11.76240234 51.70663086 11.49609375 53.02929688 C9.55932428 62.39034933 9.55932428 62.39034933 7.8984375 65.22265625 C6.23458426 65.8963139 4.56768823 66.56248641 2.8984375 67.22265625 C0.93849004 69.7181303 0.93849004 69.7181303 -0.6640625 72.66015625 C-2.76836595 76.30988347 -4.39722045 79.09372404 -8.1015625 81.22265625 C-12.30795225 81.97350893 -15.4962236 81.62621552 -19.1015625 79.22265625 C-19.565625 80.39828125 -19.565625 80.39828125 -20.0390625 81.59765625 C-21.1015625 84.22265625 -21.1015625 84.22265625 -22.1015625 86.22265625 C-21.7715625 87.21265625 -21.4415625 88.20265625 -21.1015625 89.22265625 C-20.73808891 91.82660379 -20.40455097 94.42424775 -20.1015625 97.03515625 C-19.93610778 98.43764351 -19.76945887 99.83999045 -19.6015625 101.2421875 C-19.5200293 101.9237793 -19.43849609 102.60537109 -19.35449219 103.30761719 C-19.13697981 104.95449659 -18.85222269 106.59224423 -18.5546875 108.2265625 C-17.89407437 112.5945821 -17.85598414 117.0041893 -17.84765625 121.41796875 C-17.58404014 128.96571411 -15.35595682 132.41210989 -12.1015625 140.22265625 C2.0884375 140.55265625 16.2784375 140.88265625 30.8984375 141.22265625 C31.2284375 142.21265625 31.5584375 143.20265625 31.8984375 144.22265625 C32.8884375 144.22265625 33.8784375 144.22265625 34.8984375 144.22265625 C35.03378906 143.09730469 35.03378906 143.09730469 35.171875 141.94921875 C36.41655224 137.27833321 40.08191749 134.95262252 43.8984375 132.22265625 C46.19447624 131.0331422 48.47620017 130.15428599 50.8984375 129.22265625 C51.5996875 128.68640625 52.3009375 128.15015625 53.0234375 127.59765625 C54.8984375 126.22265625 54.8984375 126.22265625 57.2734375 125.91015625 C60.74932708 124.99980422 62.1171719 123.11204481 64.37109375 120.40234375 C65.8984375 119.22265625 65.8984375 119.22265625 67.84375 119.3359375 C70.29610832 120.39427465 71.80780557 121.66407707 73.7109375 123.53515625 C74.33613281 124.12941406 74.96132812 124.72367187 75.60546875 125.3359375 C76.8984375 127.22265625 76.8984375 127.22265625 76.7265625 129.28125 C75.57045081 131.99156843 73.8104429 134.00226288 71.8984375 136.22265625 C72.5584375 136.22265625 73.2184375 136.22265625 73.8984375 136.22265625 C73.5684375 137.87265625 73.2384375 139.52265625 72.8984375 141.22265625 C72.2384375 141.22265625 71.5784375 141.22265625 70.8984375 141.22265625 C70.5684375 142.54265625 70.2384375 143.86265625 69.8984375 145.22265625 C69.2384375 145.22265625 68.5784375 145.22265625 67.8984375 145.22265625 C67.79208984 146.10244141 67.79208984 146.10244141 67.68359375 147 C66.07052588 151.56634635 60.89575844 153.84835084 56.8984375 156.22265625 C54.24418861 157.43724054 51.68967753 158.34393254 48.8984375 159.22265625 C49.3109375 159.85429687 49.7234375 160.4859375 50.1484375 161.13671875 C58.11693126 173.48076936 65.05090633 186.23536937 71.5234375 199.41015625 C72.7835862 201.96757382 74.04678753 204.52345667 75.3125 207.078125 C75.61399963 207.68816376 75.91549927 208.29820251 76.22613525 208.92672729 C78.62383682 213.74725726 81.18842731 218.45994522 83.84521484 223.1418457 C84.8984375 225.22265625 84.8984375 225.22265625 84.8984375 227.22265625 C85.49599854 227.26148926 86.09355957 227.30032227 86.70922852 227.34033203 C94.76152883 227.96060203 102.65551233 229.27306277 110.59545898 230.69677734 C112.82749825 231.09614625 115.0610459 231.486052 117.29492188 231.875 C124.73517011 233.18645179 132.0755286 234.64430762 139.38500977 236.57861328 C144.17259298 238.06601504 144.17259298 238.06601504 148.91796875 237.4453125 C149.50964844 237.06246094 150.10132813 236.67960938 150.7109375 236.28515625 C151.7628125 235.60453125 152.8146875 234.92390625 153.8984375 234.22265625 C152.5784375 232.24265625 151.2584375 230.26265625 149.8984375 228.22265625 C151.6484375 224.34765625 151.6484375 224.34765625 153.8984375 223.22265625 C159.43689904 222.99188702 159.43689904 222.99188702 161.8984375 224.22265625 C161.8984375 223.56265625 161.8984375 222.90265625 161.8984375 222.22265625 C162.5584375 221.56265625 163.2184375 220.90265625 163.8984375 220.22265625 C164.2284375 219.23265625 164.5584375 218.24265625 164.8984375 217.22265625 C165.5584375 216.89265625 166.2184375 216.56265625 166.8984375 216.22265625 C167.2284375 215.23265625 167.5584375 214.24265625 167.8984375 213.22265625 C168.5584375 213.22265625 169.2184375 213.22265625 169.8984375 213.22265625 C169.8984375 211.90265625 169.8984375 210.58265625 169.8984375 209.22265625 C170.8884375 209.22265625 171.8784375 209.22265625 172.8984375 209.22265625 C173.23875 208.13984375 173.23875 208.13984375 173.5859375 207.03515625 C175.19397073 203.58937075 176.9530542 201.62006126 179.8984375 199.22265625 C182.72939029 198.68342715 184.06654916 198.69969732 186.5078125 200.234375 C188.72994104 203.41151946 188.51487899 206.78838885 188.5234375 210.53515625 C188.52722412 211.38440674 188.53101074 212.23365723 188.53491211 213.10864258 C188.31074542 221.9964223 186.49109916 246.62999459 179.8984375 253.22265625 C178.33980498 253.3196153 176.77676272 253.34637288 175.21511745 253.34570408 C174.1959749 253.34769513 173.17683234 253.34968618 172.12680668 253.35173756 C170.99356262 253.34882472 169.86031855 253.34591188 168.69273376 253.34291077 C167.49948205 253.34376519 166.30623034 253.34461962 165.07681948 253.34549993 C161.74979758 253.34686813 158.42283378 253.34372062 155.09581888 253.33872187 C151.51366255 253.33442071 147.93150816 253.33586356 144.34934998 253.33662415 C138.13806161 253.33714959 131.92678371 253.33400062 125.71549797 253.32838631 C116.73491912 253.32027412 107.75434536 253.31765638 98.77376325 253.31639832 C84.20488552 253.31420735 69.63601337 253.30754607 55.06713867 253.2980957 C40.91121448 253.28892273 26.7552918 253.28184134 12.59936523 253.27758789 C11.72742525 253.27732517 10.85548526 253.27706244 9.95712285 253.27679176 C5.58304469 253.27548676 1.20896652 253.27422304 -3.16511166 253.27297986 C-39.47726589 253.26260586 -75.78941376 253.24498634 -112.1015625 253.22265625 C-112.24200128 235.1589963 -112.34766455 217.09547891 -112.41243553 199.03139019 C-112.44331523 190.6430551 -112.48538215 182.2550601 -112.55419922 173.86694336 C-112.61418268 166.55204095 -112.6527544 159.23738495 -112.66609347 151.92224342 C-112.6738855 148.05222379 -112.69207285 144.18290884 -112.73594284 140.31311607 C-112.77698503 136.66283199 -112.78916908 133.01353575 -112.78020859 129.36304283 C-112.78261961 127.40051981 -112.81474207 125.43810185 -112.8480835 123.4758606 C-112.78906038 114.93794042 -110.87908754 109.28336587 -106.1015625 102.22265625 C-105.6700054 101.58028865 -105.2384483 100.93792105 -104.79381371 100.27608776 C-100.30875218 93.93127154 -95.2557155 87.03058828 -89.1015625 82.22265625 C-88.4415625 82.22265625 -87.7815625 82.22265625 -87.1015625 82.22265625 C-87.1015625 81.56265625 -87.1015625 80.90265625 -87.1015625 80.22265625 C-88.5865625 79.72765625 -88.5865625 79.72765625 -90.1015625 79.22265625 C-90.55831433 73.51325837 -89.72261806 70.67138166 -86.1015625 66.22265625 C-82.87364695 64.07071255 -81.81755441 64.02179182 -78.1015625 64.22265625 C-78.1015625 63.15015625 -78.1015625 62.07765625 -78.1015625 60.97265625 C-77.1015625 57.22265625 -77.1015625 57.22265625 -74.0390625 54.78515625 C-66.0560173 51.40938578 -55.01242274 52.1421032 -47.1015625 55.22265625 C-47.16214844 54.64410889 -47.22273438 54.06556152 -47.28515625 53.46948242 C-50.69324049 20.53231443 -50.69324049 20.53231443 -43.55859375 9.9296875 C-33.43972576 -2.4120897 -14.59747727 -7.80209992 0 0 Z M-22.1015625 113.22265625 C-22.4315625 114.21265625 -22.7615625 115.20265625 -23.1015625 116.22265625 C-22.4415625 116.88265625 -21.7815625 117.54265625 -21.1015625 118.22265625 C-21.1015625 116.57265625 -21.1015625 114.92265625 -21.1015625 113.22265625 C-21.4315625 113.22265625 -21.7615625 113.22265625 -22.1015625 113.22265625 Z M-54.1015625 185.22265625 C-53.7715625 186.87265625 -53.4415625 188.52265625 -53.1015625 190.22265625 C-51.08235913 188.91858741 -49.08231277 187.58442206 -47.1015625 186.22265625 C-47.1015625 185.89265625 -47.1015625 185.56265625 -47.1015625 185.22265625 C-49.4115625 185.22265625 -51.7215625 185.22265625 -54.1015625 185.22265625 Z M19.8984375 193.22265625 C18.79048828 194.25712891 18.79048828 194.25712891 17.66015625 195.3125 C11.72826397 200.81794212 5.7158868 206.11861653 -0.62890625 211.15234375 C-3.27939663 213.37155371 -5.67136998 215.76640879 -8.1015625 218.22265625 C-1.35731593 218.65210076 5.38708255 219.07909553 12.1315918 219.50439453 C14.42557277 219.64933898 16.71951851 219.7948424 19.01342773 219.94091797 C22.31224589 220.15088821 25.61118593 220.3588423 28.91015625 220.56640625 C30.44635872 220.66483826 30.44635872 220.66483826 32.01359558 220.76525879 C32.97421402 220.82532104 33.93483246 220.8853833 34.92456055 220.94726562 C36.18697823 221.02720764 36.18697823 221.02720764 37.47489929 221.10876465 C39.95314585 221.22522721 42.41783877 221.2421598 44.8984375 221.22265625 C43.33611729 217.54309334 41.06259668 215.05749832 38.3359375 212.16015625 C33.94148314 207.42864533 29.8727144 202.53828541 25.90625 197.4375 C23.97121871 195.30294214 22.54806125 194.27418855 19.8984375 193.22265625 Z " fill="#E55746" transform="translate(112.1015625,22.77734375)" />
    <path d="M0 0 C10.70214715 10.12232575 16.82116545 24.12574788 23.1875 37.1875 C24.71917023 40.30771179 26.2556894 43.42551754 27.79296875 46.54296875 C28.15591034 47.28207489 28.51885193 48.02118103 28.89279175 48.78268433 C31.44287111 53.95145341 34.14135789 59.01697336 36.99731445 64.0246582 C38 66 38 66 38 68 C38.59756104 68.03883301 39.19512207 68.07766602 39.81079102 68.11767578 C47.86309133 68.73794578 55.75707483 70.05040652 63.69702148 71.47412109 C65.92906075 71.87349 68.1626084 72.26339575 70.39648438 72.65234375 C77.83673261 73.96379554 85.1770911 75.42165137 92.48657227 77.35595703 C97.27415548 78.84335879 97.27415548 78.84335879 102.01953125 78.22265625 C102.61121094 77.83980469 103.20289063 77.45695312 103.8125 77.0625 C104.864375 76.381875 105.91625 75.70125 107 75 C105.68 73.02 104.36 71.04 103 69 C104.75 65.125 104.75 65.125 107 64 C112.53846154 63.76923077 112.53846154 63.76923077 115 65 C115 64.34 115 63.68 115 63 C115.66 62.34 116.32 61.68 117 61 C117.33 60.01 117.66 59.02 118 58 C118.66 57.67 119.32 57.34 120 57 C120.33 56.01 120.66 55.02 121 54 C121.66 54 122.32 54 123 54 C123 52.68 123 51.36 123 50 C123.99 50 124.98 50 126 50 C126.226875 49.278125 126.45375 48.55625 126.6875 47.8125 C128.29553323 44.3667145 130.0546167 42.39740501 133 40 C135.83095279 39.4607709 137.16811166 39.47704107 139.609375 41.01171875 C141.83150354 44.18886321 141.61644149 47.5657326 141.625 51.3125 C141.62878662 52.16175049 141.63257324 53.01100098 141.63647461 53.88598633 C141.41230792 62.77376605 139.59266166 87.40733834 133 94 C131.44136748 94.09695905 129.87832522 94.12371663 128.31667995 94.12304783 C127.2975374 94.12503888 126.27839484 94.12702993 125.22836918 94.12908131 C124.09512512 94.12616847 122.96188105 94.12325563 121.79429626 94.12025452 C120.60104455 94.12110894 119.40779284 94.12196337 118.17838198 94.12284368 C114.85136008 94.12421188 111.52439628 94.12106437 108.19738138 94.11606562 C104.61522505 94.11176446 101.03307066 94.11320731 97.45091248 94.1139679 C91.23962411 94.11449334 85.02834621 94.11134437 78.81706047 94.10573006 C69.83648162 94.09761787 60.85590786 94.09500013 51.87532575 94.09374207 C37.30644802 94.0915511 22.73757587 94.08488982 8.16870117 94.07543945 C-5.98722302 94.06626648 -20.1431457 94.05918509 -34.29907227 94.05493164 C-35.17101225 94.05466892 -36.04295224 94.05440619 -36.94131465 94.05413551 C-41.31539281 94.05283051 -45.68947098 94.05156679 -50.06354916 94.05032361 C-86.37570342 94.03994961 -122.68785119 94.02225598 -159 94 C-159 89.05 -159 84.1 -159 79 C-156.69 78.9175 -154.38 78.835 -152 78.75 C-135.15356704 77.84465222 -114.89178484 73.00910566 -103.125 60.125 C-97.10731479 51.27546293 -97.58641461 43.4819055 -99.546875 33.10546875 C-99.69640625 32.41066406 -99.8459375 31.71585938 -100 31 C-94.56186411 24.75694147 -88.57641303 24.28388266 -80.82006836 23.68139648 C-63.32711443 22.311717 -46.09397772 17.80083486 -29 14 C-28.11892578 13.80438477 -27.23785156 13.60876953 -26.33007812 13.40722656 C-24.21995566 12.938585 -22.10996298 12.46935911 -20 12 C-20 11.34 -20 10.68 -20 10 C-18.89140625 9.52949219 -17.7828125 9.05898437 -16.640625 8.57421875 C-15.17696225 7.94559436 -13.71342725 7.31667244 -12.25 6.6875 C-11.52039063 6.37876953 -10.79078125 6.07003906 -10.0390625 5.75195312 C-6.35363345 4.16051785 -3.08241839 2.63627889 0 0 Z M-27 34 C-28.10794922 35.03447266 -28.10794922 35.03447266 -29.23828125 36.08984375 C-35.17017353 41.59528587 -41.1825507 46.89596028 -47.52734375 51.9296875 C-50.17783413 54.14889746 -52.56980748 56.54375254 -55 59 C-48.25575343 59.42944451 -41.51135495 59.85643928 -34.7668457 60.28173828 C-32.47286473 60.42668273 -30.17891899 60.57218615 -27.88500977 60.71826172 C-24.58619161 60.92823196 -21.28725157 61.13618605 -17.98828125 61.34375 C-16.45207878 61.44218201 -16.45207878 61.44218201 -14.88484192 61.54260254 C-13.92422348 61.60266479 -12.96360504 61.66272705 -11.97387695 61.72460938 C-10.71145927 61.80455139 -10.71145927 61.80455139 -9.42353821 61.8861084 C-6.94529165 62.00257096 -4.48059873 62.01950355 -2 62 C-3.56232021 58.32043709 -5.83584082 55.83484207 -8.5625 52.9375 C-12.95695436 48.20598908 -17.0257231 43.31562916 -20.9921875 38.21484375 C-22.92721879 36.08028589 -24.35037625 35.0515323 -27 34 Z " fill="#1A5782" transform="translate(159,182)" />
    <path d="M0 0 C8.01666952 7.62561247 12.63510273 14.65137947 12.96539307 26.01553345 C13.00507102 30.24123502 12.94675189 34.46246331 12.875 38.6875 C12.86348126 40.40233287 12.85370425 42.11717836 12.84570312 43.83203125 C12.76924351 53.42523324 12.24836236 62.83542703 11.5625 72.4375 C32.6825 72.1075 53.8025 71.7775 75.5625 71.4375 C75.5625 68.1375 75.5625 64.8375 75.5625 61.4375 C76.5525 61.4375 77.5425 61.4375 78.5625 61.4375 C78.65273437 60.68726563 78.74296875 59.93703125 78.8359375 59.1640625 C80.08061474 54.49317696 83.74597999 52.16746627 87.5625 49.4375 C89.85853874 48.24798595 92.14026267 47.36912974 94.5625 46.4375 C95.26375 45.90125 95.965 45.365 96.6875 44.8125 C98.5625 43.4375 98.5625 43.4375 100.9375 43.125 C104.41338958 42.21464797 105.7812344 40.32688856 108.03515625 37.6171875 C109.5625 36.4375 109.5625 36.4375 111.5078125 36.55078125 C113.96017082 37.6091184 115.47186807 38.87892082 117.375 40.75 C118.00019531 41.34425781 118.62539062 41.93851563 119.26953125 42.55078125 C120.5625 44.4375 120.5625 44.4375 120.390625 46.49609375 C119.23451331 49.20641218 117.4745054 51.21710663 115.5625 53.4375 C116.2225 53.4375 116.8825 53.4375 117.5625 53.4375 C117.2325 55.0875 116.9025 56.7375 116.5625 58.4375 C115.9025 58.4375 115.2425 58.4375 114.5625 58.4375 C114.2325 59.7575 113.9025 61.0775 113.5625 62.4375 C112.9025 62.4375 112.2425 62.4375 111.5625 62.4375 C111.45615234 63.31728516 111.45615234 63.31728516 111.34765625 64.21484375 C109.73391512 68.78309602 104.56069198 71.06082951 100.5625 73.4375 C98.69131961 74.23997015 96.82801726 74.87001682 94.890625 75.4921875 C91.59230373 76.83143876 88.61291949 78.68251526 85.5625 80.5 C80.63513733 83.4198458 76.24791436 85.5278337 70.5625 86.4375 C70.5625 87.0975 70.5625 87.7575 70.5625 88.4375 C57.10745608 92.89721131 43.47047176 95.44764919 29.52539062 97.88867188 C26.94417749 98.36680035 24.39889408 98.91247397 21.84375 99.51171875 C17.28014002 100.55737254 12.71716428 101.09931155 8.0625 101.5625 C7.27230469 101.64886719 6.48210937 101.73523438 5.66796875 101.82421875 C-11.07767241 103.55085605 -11.07767241 103.55085605 -16.4375 99.4375 C-20.04319156 93.24029727 -21.71476824 86.29887906 -23.3125 79.375 C-23.6849585 77.78413574 -23.6849585 77.78413574 -24.06494141 76.16113281 C-25.99667466 67.72932909 -27.75982716 59.26356121 -29.4072876 50.77200317 C-29.67334227 49.40335844 -29.94288529 48.03538629 -30.21624756 46.66818237 C-32.89936128 33.15814379 -35.03401746 18.85327067 -27.25 6.625 C-20.38291566 -1.92340588 -10.22603289 -4.64819677 0 0 Z " fill="#F1685B" transform="translate(68.4375,105.5625)" />
    <path d="M0 0 C10.70214715 10.12232575 16.82116545 24.12574788 23.1875 37.1875 C24.71917023 40.30771179 26.2556894 43.42551754 27.79296875 46.54296875 C28.15591034 47.28207489 28.51885193 48.02118103 28.89279175 48.78268433 C31.44287111 53.95145341 34.14135789 59.01697336 36.99731445 64.0246582 C38 66 38 66 38 68 C29.5538283 67.35918349 21.14743434 66.55094486 12.75 65.4375 C11.63109375 65.31826172 10.5121875 65.19902344 9.359375 65.07617188 C1.15013137 63.94836895 -2.87942905 61.45492421 -8 55 C-8.8146875 54.05253906 -9.629375 53.10507813 -10.46875 52.12890625 C-11.1390625 51.28199219 -11.809375 50.43507812 -12.5 49.5625 C-16.51459524 44.56345619 -20.69533772 39.75037663 -25 35 C-28.44779086 36.50006391 -30.82360533 38.50409262 -33.5625 41.0625 C-38.86998225 45.93030916 -44.38703504 50.49065948 -50 55 C-50.72574219 55.74636719 -51.45148438 56.49273437 -52.19921875 57.26171875 C-60.17694345 62.21302627 -73.16221389 58.14828472 -82.125 57 C-83.66920085 56.80673169 -85.21347135 56.61401901 -86.7578125 56.421875 C-90.50604168 55.95431573 -94.25324941 55.47925777 -98 55 C-99 52 -99 52 -98 49 C-98.06175607 46.87222271 -98.19541164 44.74608416 -98.375 42.625 C-98.46523437 41.50351563 -98.55546875 40.38203125 -98.6484375 39.2265625 C-98.9532561 36.42900511 -99.39332994 33.74543908 -100 31 C-94.56186411 24.75694147 -88.57641303 24.28388266 -80.82006836 23.68139648 C-63.32711443 22.311717 -46.09397772 17.80083486 -29 14 C-28.11892578 13.80438477 -27.23785156 13.60876953 -26.33007812 13.40722656 C-24.21995566 12.938585 -22.10996298 12.46935911 -20 12 C-20 11.34 -20 10.68 -20 10 C-18.33710938 9.29423828 -18.33710938 9.29423828 -16.640625 8.57421875 C-15.17696225 7.94559436 -13.71342725 7.31667244 -12.25 6.6875 C-11.52039063 6.37876953 -10.79078125 6.07003906 -10.0390625 5.75195312 C-6.35363345 4.16051785 -3.08241839 2.63627889 0 0 Z " fill="#1C4E75" transform="translate(159,182)" />
    <path d="M0 0 C3.05194859 1.96555537 5.97298718 4.07334581 8.8984375 6.22265625 C9.5584375 6.22265625 10.2184375 6.22265625 10.8984375 6.22265625 C11.3934375 5.56265625 11.8884375 4.90265625 12.3984375 4.22265625 C12.8934375 3.56265625 13.3884375 2.90265625 13.8984375 2.22265625 C14.5584375 2.22265625 15.2184375 2.22265625 15.8984375 2.22265625 C17.65301146 4.43958416 19.28850513 6.65435364 20.8984375 8.97265625 C21.57519531 9.92398438 21.57519531 9.92398438 22.265625 10.89453125 C26.69378718 17.18304559 28.75872997 21.38443594 27.8984375 29.22265625 C26.11498537 34.37485129 23.37182315 37.15268571 18.8984375 40.22265625 C16.01349255 41.18705213 13.98485736 41.69351286 11.12231445 40.45288086 C9.18291658 39.29519609 7.31932437 38.06882327 5.4609375 36.78515625 C0.41087869 33.30645658 -2.70876785 31.62049624 -9.1015625 32.22265625 C-9.27171875 32.76792969 -9.441875 33.31320313 -9.6171875 33.875 C-11.42697064 39.50650603 -13.60501628 44.86205194 -16.1015625 50.22265625 C-17.4215625 49.89265625 -18.7415625 49.56265625 -20.1015625 49.22265625 C-19.1015625 41.79408482 -19.1015625 41.79408482 -18.1015625 38.22265625 C-22.83393652 39.20176996 -22.83393652 39.20176996 -26.7890625 41.78515625 C-28.12122029 44.11330198 -28.12122029 44.11330198 -28.84765625 46.30859375 C-31.02134749 52.12442543 -33.29845116 54.62308743 -38.78515625 57.54296875 C-41.58182131 58.36357536 -43.29847311 57.86829371 -46.1015625 57.22265625 C-46.61380976 53.62012303 -47.10902625 50.01543288 -47.6015625 46.41015625 C-47.81619141 44.90291992 -47.81619141 44.90291992 -48.03515625 43.36523438 C-49.64907669 31.41453778 -50.58642312 20.3735757 -43.55859375 9.9296875 C-33.43972576 -2.4120897 -14.59747727 -7.80209992 0 0 Z " fill="#5F432F" transform="translate(112.1015625,22.77734375)" />
    <path d="M0 0 C2.63692335 1.30307107 5.02046201 2.89231396 7.4375 4.5625 C8.39172852 5.19961914 8.39172852 5.19961914 9.36523438 5.84960938 C10.91773579 6.8885013 12.45997512 7.94270136 14 9 C13.38260016 12.0640826 12.75473209 15.12593018 12.125 18.1875 C11.95097656 19.05181641 11.77695313 19.91613281 11.59765625 20.80664062 C9.66088678 30.16769308 9.66088678 30.16769308 8 33 C6.33614676 33.67365765 4.66925073 34.33983016 3 35 C1.04005254 37.49547405 1.04005254 37.49547405 -0.5625 40.4375 C-2.66680345 44.08722722 -4.29565795 46.87106779 -8 49 C-12.20638975 49.75085268 -15.3946611 49.40355927 -19 47 C-19.268125 47.804375 -19.53625 48.60875 -19.8125 49.4375 C-20.204375 50.283125 -20.59625 51.12875 -21 52 C-22.485 52.495 -22.485 52.495 -24 53 C-24.47308594 52.03320312 -24.94617188 51.06640625 -25.43359375 50.0703125 C-29.31264277 42.36377645 -33.15089243 36.07310008 -39.3125 29.953125 C-41 28 -41 28 -41 25 C-40.09507813 24.63261719 -40.09507813 24.63261719 -39.171875 24.2578125 C-34.07933665 21.89260459 -34.07933665 21.89260459 -30.6875 17.58203125 C-30.06768376 15.83363293 -29.46701933 14.07831434 -28.88671875 12.31640625 C-27.64144526 9.06333496 -26.04159454 7.63207512 -23 6 C-20.1875 5.75 -20.1875 5.75 -18 6 C-18.59950296 9.68266103 -19.24758891 13.34543185 -20 17 C-18.68 17 -17.36 17 -16 17 C-15.51789063 15.78441406 -15.03578125 14.56882812 -14.5390625 13.31640625 C-13.90139973 11.73162671 -13.26335934 10.14699908 -12.625 8.5625 C-12.30789062 7.76005859 -11.99078125 6.95761719 -11.6640625 6.13085938 C-11.3546875 5.36708984 -11.0453125 4.60332031 -10.7265625 3.81640625 C-10.30238037 2.75595093 -10.30238037 2.75595093 -9.86962891 1.67407227 C-7.73939267 -2.4267222 -3.81709932 -0.84263535 0 0 Z " fill="#F7AB7E" transform="translate(112,55)" />
    <path d="M0 0 C0.67232666 -0.01023193 1.34465332 -0.02046387 2.03735352 -0.03100586 C11.63870529 0.1367802 19.52402777 5.39661831 26.07421875 12.12109375 C30.07840445 17.09904369 32.92684214 22.82941183 35.9375 28.4375 C36.37449219 29.13746094 36.81148438 29.83742188 37.26171875 30.55859375 C40.58235348 36.10121455 40.91502991 42.3303946 41.54296875 48.6328125 C41.87510874 52.31192481 41.87510874 52.31192481 42.48046875 55.4140625 C43.05215281 59.19597243 43.08347875 62.86936817 43.0625 66.6875 C43.06636719 67.40679687 43.07023437 68.12609375 43.07421875 68.8671875 C43.06426222 74.18397556 43.06426222 74.18397556 41.9375 76.4375 C41.2775 76.4375 40.6175 76.4375 39.9375 76.4375 C39.4425 69.0125 39.4425 69.0125 38.9375 61.4375 C38.6075 63.7475 38.2775 66.0575 37.9375 68.4375 C37.2775 68.4375 36.6175 68.4375 35.9375 68.4375 C35.97415771 67.82342285 36.01081543 67.2093457 36.04858398 66.57666016 C37.3709811 51.3988356 37.3709811 51.3988356 31.05078125 38.2734375 C27.50536551 35.19331662 24.12312244 32.59782126 19.9375 30.4375 C19.13828125 30.025 18.3390625 29.6125 17.515625 29.1875 C5.75785003 24.05683456 -7.91611244 26.10365711 -20.26196289 27.90087891 C-25.74942145 28.64621904 -25.74942145 28.64621904 -29.0625 26.4375 C-29.64019335 22.14606371 -29.3405229 19.94561082 -27.25 16.125 C-25.0625 13.4375 -25.0625 13.4375 -22.0625 11.4375 C-19.375 11.3125 -19.375 11.3125 -17.0625 11.4375 C-17.0625 10.365 -17.0625 9.2925 -17.0625 8.1875 C-16.0625 4.4375 -16.0625 4.4375 -13 2 C-8.77827677 0.22565256 -4.52455245 0.05363435 0 0 Z " fill="#F1695C" transform="translate(51.0625,75.5625)" />
    <path d="M0 0 C2.94979893 0.6210103 3.64483029 1.02624612 5.375 3.5 C5.80475435 6.38059982 5.99339548 8.92115754 6 11.8125 C6.00378662 12.66175049 6.00757324 13.51100098 6.01147461 14.38598633 C5.78730792 23.27376605 3.96766166 47.90733834 -2.625 54.5 C-5.14594076 54.58847743 -7.63930893 54.61527301 -10.16015625 54.59765625 C-11.29003212 54.59553383 -11.29003212 54.59553383 -12.44273376 54.59336853 C-14.8576956 54.58775376 -17.27256601 54.57519883 -19.6875 54.5625 C-21.32096221 54.5574869 -22.95442586 54.55292366 -24.58789062 54.54882812 C-28.60029585 54.53777954 -32.61263241 54.52050506 -36.625 54.5 C-36.955 49.88 -37.285 45.26 -37.625 40.5 C-34.985 39.18 -32.345 37.86 -29.625 36.5 C-29.625 32.98283697 -30.44945585 32.12878252 -32.625 29.5 C-30.875 25.625 -30.875 25.625 -28.625 24.5 C-23.08653846 24.26923077 -23.08653846 24.26923077 -20.625 25.5 C-20.625 24.84 -20.625 24.18 -20.625 23.5 C-19.965 22.84 -19.305 22.18 -18.625 21.5 C-18.295 20.51 -17.965 19.52 -17.625 18.5 C-16.965 18.17 -16.305 17.84 -15.625 17.5 C-15.295 16.51 -14.965 15.52 -14.625 14.5 C-13.965 14.5 -13.305 14.5 -12.625 14.5 C-12.625 13.18 -12.625 11.86 -12.625 10.5 C-11.635 10.5 -10.645 10.5 -9.625 10.5 C-9.398125 9.778125 -9.17125 9.05625 -8.9375 8.3125 C-6.98756723 4.13407263 -4.69697177 0.89466129 0 0 Z " fill="#3B3E3D" transform="translate(294.625,221.5)" />
    <path d="M0 0 C2.45235832 1.05833715 3.96405557 2.32813957 5.8671875 4.19921875 C6.49238281 4.79347656 7.11757812 5.38773438 7.76171875 6 C9.0546875 7.88671875 9.0546875 7.88671875 8.8828125 9.9453125 C7.72670081 12.65563093 5.9666929 14.66632538 4.0546875 16.88671875 C4.7146875 16.88671875 5.3746875 16.88671875 6.0546875 16.88671875 C5.5596875 19.36171875 5.5596875 19.36171875 5.0546875 21.88671875 C4.3946875 21.88671875 3.7346875 21.88671875 3.0546875 21.88671875 C2.7246875 23.20671875 2.3946875 24.52671875 2.0546875 25.88671875 C1.3946875 25.88671875 0.7346875 25.88671875 0.0546875 25.88671875 C-0.01621094 26.47324219 -0.08710938 27.05976563 -0.16015625 27.6640625 C-1.77389738 32.23231477 -6.94712052 34.51004826 -10.9453125 36.88671875 C-12.81512997 37.6886044 -14.67768116 38.31854512 -16.61328125 38.94140625 C-20.54758598 40.53621654 -24.14257057 42.80931978 -27.75878906 45.01928711 C-31.78652061 47.42324657 -35.43566726 48.77797795 -39.9453125 49.88671875 C-39.9453125 45.26671875 -39.9453125 40.64671875 -39.9453125 35.88671875 C-37.9653125 35.39171875 -37.9653125 35.39171875 -35.9453125 34.88671875 C-35.9453125 31.58671875 -35.9453125 28.28671875 -35.9453125 24.88671875 C-34.9553125 24.88671875 -33.9653125 24.88671875 -32.9453125 24.88671875 C-32.85507813 24.13648438 -32.76484375 23.38625 -32.671875 22.61328125 C-31.42719776 17.94239571 -27.76183251 15.61668502 -23.9453125 12.88671875 C-21.64927376 11.6972047 -19.36754983 10.81834849 -16.9453125 9.88671875 C-16.2440625 9.35046875 -15.5428125 8.81421875 -14.8203125 8.26171875 C-12.9453125 6.88671875 -12.9453125 6.88671875 -10.5703125 6.57421875 C-7.09442292 5.66386672 -5.7265781 3.77610731 -3.47265625 1.06640625 C-1.9453125 -0.11328125 -1.9453125 -0.11328125 0 0 Z " fill="#F8B086" transform="translate(179.9453125,142.11328125)" />
    <path d="M0 0 C2.45076822 1.04965981 3.95591127 2.31993506 5.85546875 4.1875 C6.79326172 5.07888672 6.79326172 5.07888672 7.75 5.98828125 C9.04296875 7.875 9.04296875 7.875 8.87109375 9.93359375 C7.71498206 12.64391218 5.95497415 14.65460663 4.04296875 16.875 C4.70296875 16.875 5.36296875 16.875 6.04296875 16.875 C5.71296875 18.525 5.38296875 20.175 5.04296875 21.875 C4.38296875 21.875 3.72296875 21.875 3.04296875 21.875 C2.71296875 23.195 2.38296875 24.515 2.04296875 25.875 C1.38296875 25.875 0.72296875 25.875 0.04296875 25.875 C-0.02664062 26.45894531 -0.09625 27.04289062 -0.16796875 27.64453125 C-1.79020609 32.23016255 -6.88039237 34.59687828 -10.95703125 36.875 C-13.4553153 37.63152264 -15.32787494 37.81784443 -17.95703125 37.875 C-17.15265625 36.864375 -16.34828125 35.85375 -15.51953125 34.8125 C-12.91756771 31.21202384 -12.45755341 28.29627909 -11.95703125 23.875 C-10.51953125 21.4375 -10.51953125 21.4375 -8.95703125 19.875 C-8.29703125 19.875 -7.63703125 19.875 -6.95703125 19.875 C-6.89515625 19.276875 -6.83328125 18.67875 -6.76953125 18.0625 C-5.62567318 14.98288212 -3.78007673 14.45065329 -0.95703125 12.875 C0.41281073 11.57920353 1.75807365 10.25507251 3.04296875 8.875 C2.32733609 6.8587767 2.32733609 6.8587767 1.04296875 4.875 C-0.79633751 3.94612294 -0.79633751 3.94612294 -2.95703125 3.875 C-4.9569945 5.05365648 -4.9569945 5.05365648 -6.70703125 6.8125 C-7.320625 7.37839844 -7.93421875 7.94429687 -8.56640625 8.52734375 C-9.25476563 9.19443359 -9.25476563 9.19443359 -9.95703125 9.875 C-8.65258557 7.02385445 -7.25150694 4.82752254 -5.08203125 2.5625 C-4.34339844 1.76392578 -4.34339844 1.76392578 -3.58984375 0.94921875 C-1.95703125 -0.125 -1.95703125 -0.125 0 0 Z " fill="#F6A270" transform="translate(179.95703125,142.125)" />
    <path d="M0 0 C2.375 -0.125 2.375 -0.125 5 0 C8.3982222 3.3982222 7.54313259 8.25741316 7.58764648 12.8371582 C7.41220121 21.5220791 5.58292795 29.7833808 3.5625 38.1875 C3.39952423 38.86550659 3.23654846 39.54351318 3.06863403 40.24206543 C0.27424682 51.72575318 0.27424682 51.72575318 -1 53 C-3.67058851 53.14115161 -6.32432238 53.04247107 -9 53 C-8.69707031 52.18547363 -8.39414062 51.37094727 -8.08203125 50.53173828 C1.08700204 25.9164503 1.08700204 25.9164503 0 0 Z " fill="#E6C468" transform="translate(293,223)" />
    <path d="M0 0 C3.17185299 5.52137373 3.56854785 10.70079867 4 17 C-0.95 17 -5.9 17 -11 17 C-11.33 12.38 -11.66 7.76 -12 3 C-3.64605956 -1.59466724 -3.64605956 -1.59466724 0 0 Z " fill="#EE6C47" transform="translate(269,259)" />
    <path d="M0 0 C3.83736322 0.95934081 4.59660228 1.23609263 7 4 C5.4411666 7.82622743 3.04566418 10.25147379 0 13 C-0.99 13.33 -1.98 13.66 -3 14 C-3.33 14.99 -3.66 15.98 -4 17 C-5.4375 18.6875 -5.4375 18.6875 -7 20 C-7.66 20 -8.32 20 -9 20 C-9.66 19.01 -10.32 18.02 -11 17 C-11.99 16.34 -12.98 15.68 -14 15 C-9.38 10.05 -4.76 5.1 0 0 Z " fill="#F8F6F5" transform="translate(177,145)" />
    <path d="M0 0 C0.66 0.33 1.32 0.66 2 1 C4.05495296 7.30439273 4.18009418 13.99131954 4.1875 20.5625 C4.1887085 21.61642944 4.1887085 21.61642944 4.18994141 22.69165039 C4.13457229 27.73085543 4.13457229 27.73085543 3 30 C2.34 30 1.68 30 1 30 C0.67 25.05 0.34 20.1 0 15 C-0.33 17.31 -0.66 19.62 -1 22 C-1.66 22 -2.32 22 -3 22 C-2.89040282 18.70762945 -2.75971069 15.41643113 -2.625 12.125 C-2.5940625 11.18785156 -2.563125 10.25070313 -2.53125 9.28515625 C-2.49257812 8.38925781 -2.45390625 7.49335938 -2.4140625 6.5703125 C-2.3826416 5.74289551 -2.3512207 4.91547852 -2.31884766 4.06298828 C-2 2 -2 2 0 0 Z " fill="#DEDAD7" transform="translate(90,122)" />
    <path d="M0 0 C6.48880597 6.31343284 6.48880597 6.31343284 8 9 C7.7434556 12.50610679 6.9814066 14.0278901 5 17 C4.34 17 3.68 17 3 17 C-2.2166302 7.1619256 -2.2166302 7.1619256 -1.3125 2.3125 C-0.879375 1.549375 -0.44625 0.78625 0 0 Z " fill="#EEA276" transform="translate(85,91)" />
    <path d="M0 0 C3.33193682 1.44866818 4.79327544 4.00897245 6.9765625 6.859375 C4.3365625 9.829375 1.6965625 12.799375 -1.0234375 15.859375 C-1.6834375 15.529375 -2.3434375 15.199375 -3.0234375 14.859375 C-1.0434375 12.879375 0.9365625 10.899375 2.9765625 8.859375 C2.26092984 6.8431517 2.26092984 6.8431517 0.9765625 4.859375 C-0.86274376 3.93049794 -0.86274376 3.93049794 -3.0234375 3.859375 C-5.02340075 5.03803148 -5.02340075 5.03803148 -6.7734375 6.796875 C-7.69382813 7.64572266 -7.69382813 7.64572266 -8.6328125 8.51171875 C-9.09171875 8.95644531 -9.550625 9.40117187 -10.0234375 9.859375 C-8.71899182 7.00822945 -7.31791319 4.81189754 -5.1484375 2.546875 C-4.40980469 1.74830078 -4.40980469 1.74830078 -3.65625 0.93359375 C-2.0234375 -0.140625 -2.0234375 -0.140625 0 0 Z " fill="#444647" transform="translate(180.0234375,142.140625)" />
    <path d="M0 0 C0.99 0.33 1.98 0.66 3 1 C2.45650964 4.80443255 0.96915847 6.6081779 -2 9 C-4.75 9.75 -4.75 9.75 -7 10 C-5.33248852 6.05860922 -2.77289351 3.2107188 0 0 Z " fill="#BCBDBE" transform="translate(186,149)" />
    <path d="M0 0 C0.99 0 1.98 0 3 0 C3.125 6.75 3.125 6.75 2 9 C1.34 9 0.68 9 0 9 C0 6.03 0 3.06 0 0 Z " fill="#F8A370" transform="translate(144,167)" />
    <path d="M0 0 C0.66 0 1.32 0 2 0 C6 6.75 6 6.75 6 9 C2.27059611 7.75686537 1.15343189 6.23014784 -1 3 C-0.67 2.01 -0.34 1.02 0 0 Z " fill="#CED0D0" transform="translate(277,240)" />
    <path d="M0 0 C0.66 0 1.32 0 2 0 C4.1875 2.8125 4.1875 2.8125 6 6 C5.67 6.99 5.34 7.98 5 9 C0 3.375 0 3.375 0 0 Z " fill="#D4D6D7" transform="translate(274,245)" />
    <path d="M0 0 C0.66 0 1.32 0 2 0 C5 4.38461538 5 4.38461538 5 7 C3.68 6.34 2.36 5.68 1 5 C1 4.34 1 3.68 1 3 C0.34 3 -0.32 3 -1 3 C-0.67 2.01 -0.34 1.02 0 0 Z " fill="#D2D4D4" transform="translate(280,236)" />
    <path d="M0 0 C0.99 0 1.98 0 3 0 C2.67 1.65 2.34 3.3 2 5 C0.35 4.67 -1.3 4.34 -3 4 C-1.6875 2 -1.6875 2 0 0 Z " fill="#E5986B" transform="translate(167,149)" />
</svg>