<?xml version="1.0" encoding="UTF-8" ?>
<!DOCTYPE svg PUBLIC "-//W3C//DTD SVG 1.1//EN" "http://www.w3.org/Graphics/SVG/1.1/DTD/svg11.dtd">
<svg xmlns="http://www.w3.org/2000/svg" version="1.1" width="1080px" height="1080px" style="shape-rendering:geometricPrecision; text-rendering:geometricPrecision; image-rendering:optimizeQuality; fill-rule:evenodd; clip-rule:evenodd" xmlns:xlink="http://www.w3.org/1999/xlink">
    <g><path style="opacity:0.989" fill="#076633" d="M 466.5,48.5 C 455.849,52.4174 444.849,55.584 433.5,58C 449.668,60.4567 466.002,62.29 482.5,63.5C 523.182,66.9256 563.849,70.5923 604.5,74.5C 624.52,71.4734 644.52,68.3067 664.5,65C 676.495,64.5001 688.495,64.3335 700.5,64.5C 688.413,68.4421 676.08,71.9421 663.5,75C 621.088,81.4107 578.421,85.0773 535.5,86C 520.098,86.4226 509.265,93.5893 503,107.5C 499.304,116.479 497.471,125.812 497.5,135.5C 407.185,129.543 316.852,123.876 226.5,118.5C 226.81,115.287 226.477,112.287 225.5,109.5C 226.245,96.8399 231.578,86.6732 241.5,79C 243.717,77.7246 246.051,76.7246 248.5,76C 289.49,67.8761 330.824,62.2095 372.5,59C 393.167,55.6667 413.833,52.3333 434.5,49C 445.161,48.5002 455.828,48.3335 466.5,48.5 Z" /></g>
    <g><path style="opacity:0.967" fill="#08773c" d="M 466.5,48.5 C 475.742,49.4108 481.076,54.4108 482.5,63.5C 466.002,62.29 449.668,60.4567 433.5,58C 444.849,55.584 455.849,52.4174 466.5,48.5 Z" /></g>
    <g><path style="opacity:0.996" fill="#08773c" d="M 700.5,64.5 C 712.465,65.7986 718.465,72.4652 718.5,84.5C 717.588,98.4103 710.588,107.744 697.5,112.5C 699.372,105.961 699.872,99.2943 699,92.5C 692.595,95.1915 686.095,97.6915 679.5,100C 623.729,117.147 568.062,134.48 512.5,152C 506.721,153.032 500.888,153.532 495,153.5C 394.186,145.474 293.353,137.641 192.5,130C 188.617,129.546 185.284,128.046 182.5,125.5C 182.848,122.981 184.181,121.147 186.5,120C 199.475,116.34 212.475,112.84 225.5,109.5C 226.477,112.287 226.81,115.287 226.5,118.5C 316.852,123.876 407.185,129.543 497.5,135.5C 497.471,125.812 499.304,116.479 503,107.5C 509.265,93.5893 520.098,86.4226 535.5,86C 578.421,85.0773 621.088,81.4107 663.5,75C 676.08,71.9421 688.413,68.4421 700.5,64.5 Z" /></g>
    <g><path style="opacity:0.998" fill="#066532" d="M 697.5,112.5 C 691.658,115.888 685.324,118.221 678.5,119.5C 616.327,139.337 554.327,159.337 492.5,179.5C 397.171,171.44 301.838,163.44 206.5,155.5C 201.851,154.935 197.184,154.435 192.5,154C 187.995,153.673 184.828,151.506 183,147.5C 182.5,140.174 182.334,132.841 182.5,125.5C 185.284,128.046 188.617,129.546 192.5,130C 293.353,137.641 394.186,145.474 495,153.5C 500.888,153.532 506.721,153.032 512.5,152C 568.062,134.48 623.729,117.147 679.5,100C 686.095,97.6915 692.595,95.1915 699,92.5C 699.872,99.2943 699.372,105.961 697.5,112.5 Z" /></g>
    <g><path style="opacity:0.999" fill="#044c24" d="M 678.5,119.5 C 677.673,123.439 677.006,127.439 676.5,131.5C 618.551,149.928 560.884,168.928 503.5,188.5C 499.85,189.728 496.184,189.728 492.5,188.5C 492.5,185.5 492.5,182.5 492.5,179.5C 554.327,159.337 616.327,139.337 678.5,119.5 Z" /></g>
    <g><path style="opacity:1" fill="#09773c" d="M 676.5,131.5 C 676.052,137.531 675.385,143.531 674.5,149.5C 653.759,153.941 633.426,160.108 613.5,168C 610.601,170.729 607.934,173.562 605.5,176.5C 599.248,175.935 594.415,178.268 591,183.5C 586.921,188.899 584.088,194.899 582.5,201.5C 575.489,203.225 568.489,205.058 561.5,207C 559.536,208.451 558.203,210.284 557.5,212.5C 551.261,215.393 544.594,217.06 537.5,217.5C 539.083,229.246 541.083,240.912 543.5,252.5C 549.49,253.24 555.49,253.906 561.5,254.5C 571.906,350.823 582.24,447.156 592.5,543.5C 565.617,527.538 536.617,517.538 505.5,513.5C 505.27,499.483 501.603,486.483 494.5,474.5C 497.266,380.477 500.6,286.477 504.5,192.5C 504.489,190.955 504.156,189.622 503.5,188.5C 560.884,168.928 618.551,149.928 676.5,131.5 Z" /></g>
    <g><path style="opacity:0.993" fill="#373736" d="M 795.5,136.5 C 784.176,140.417 772.509,143.584 760.5,146C 780.127,148.245 799.794,150.078 819.5,151.5C 857.418,154.78 895.251,158.447 933,162.5C 951.393,158.962 969.893,155.795 988.5,153C 1001.16,152.5 1013.83,152.333 1026.5,152.5C 997.938,159.641 969.271,166.807 940.5,174C 933.167,178 925.833,182 918.5,186C 906.125,189.052 895.125,194.719 885.5,203C 879.468,208.698 873.801,214.698 868.5,221C 779.145,216.578 689.811,211.244 600.5,205C 599.565,202.619 599.232,200.119 599.5,197.5C 600.408,190.201 602.408,183.201 605.5,176.5C 607.934,173.562 610.601,170.729 613.5,168C 633.426,160.108 653.759,153.941 674.5,149.5C 703.986,146.502 733.319,142.335 762.5,137C 773.495,136.5 784.495,136.333 795.5,136.5 Z" /></g>
    <g><path style="opacity:0.959" fill="#565555" d="M 795.5,136.5 C 798.568,137.022 801.568,137.855 804.5,139C 808.789,144.132 813.789,148.299 819.5,151.5C 799.794,150.078 780.127,148.245 760.5,146C 772.509,143.584 784.176,140.417 795.5,136.5 Z" /></g>
    <g><path style="opacity:0.997" fill="#565555" d="M 1026.5,152.5 C 1038.87,153.039 1044.87,159.539 1044.5,172C 1044.48,177.598 1042.98,182.764 1040,187.5C 1035.25,192.113 1030.09,196.113 1024.5,199.5C 1023.96,199.44 1023.62,199.107 1023.5,198.5C 1026.63,192.279 1027.13,185.946 1025,179.5C 976.046,200.89 926.546,221.056 876.5,240C 872.667,240.167 868.833,240.333 865,240.5C 764.502,232.417 664.002,224.25 563.5,216C 561.359,215.427 559.359,214.594 557.5,213.5C 557.5,213.167 557.5,212.833 557.5,212.5C 558.203,210.284 559.536,208.451 561.5,207C 568.489,205.058 575.489,203.225 582.5,201.5C 587.945,199.389 593.611,198.056 599.5,197.5C 599.232,200.119 599.565,202.619 600.5,205C 689.811,211.244 779.145,216.578 868.5,221C 873.801,214.698 879.468,208.698 885.5,203C 895.125,194.719 906.125,189.052 918.5,186C 925.833,182 933.167,178 940.5,174C 969.271,166.807 997.938,159.641 1026.5,152.5 Z" /></g>
    <g><path style="opacity:0.999" fill="#03411d" d="M 206.5,155.5 C 301.838,163.44 397.171,171.44 492.5,179.5C 492.5,182.5 492.5,185.5 492.5,188.5C 397.491,179.832 302.491,171.166 207.5,162.5C 207.552,160.097 207.219,157.764 206.5,155.5 Z" /></g>
    <g><path style="opacity:0.998" fill="#076633" d="M 207.5,162.5 C 302.491,171.166 397.491,179.832 492.5,188.5C 488.859,285.793 485.526,383.126 482.5,480.5C 480.131,490.013 478.798,499.68 478.5,509.5C 471.492,509.666 464.492,509.5 457.5,509C 451.021,503.686 443.687,502.186 435.5,504.5C 437.215,506.82 437.881,509.153 437.5,511.5C 428.421,511.44 419.421,512.273 410.5,514C 399.546,515.223 391.046,520.39 385,529.5C 380.477,537.222 375.977,544.888 371.5,552.5C 368.032,556.141 364.698,559.974 361.5,564C 354.803,568.682 347.803,572.848 340.5,576.5C 340.31,571.63 339.644,566.964 338.5,562.5C 337.414,552.327 333.58,543.327 327,535.5C 303.023,514.428 275.523,500.095 244.5,492.5C 232.025,382.559 219.692,272.559 207.5,162.5 Z" /></g>
    <g><path style="opacity:1" fill="#0a6734" d="M 605.5,176.5 C 602.408,183.201 600.408,190.201 599.5,197.5C 593.611,198.056 587.945,199.389 582.5,201.5C 584.088,194.899 586.921,188.899 591,183.5C 594.415,178.268 599.248,175.935 605.5,176.5 Z" /></g>
    <g><path style="opacity:0.999" fill="#363635" d="M 1024.5,199.5 C 1018.48,202.795 1012.14,205.629 1005.5,208C 1004.93,208.995 1004.27,209.828 1003.5,210.5C 1003.63,209.624 1003.3,208.957 1002.5,208.5C 958.261,226.855 914.261,245.688 870.5,265C 864.167,265.667 857.833,265.667 851.5,265C 761.492,257.166 671.492,249.333 581.5,241.5C 576.188,240.891 570.854,240.391 565.5,240C 562.966,239.484 560.8,238.317 559,236.5C 557.568,228.946 557.068,221.279 557.5,213.5C 559.359,214.594 561.359,215.427 563.5,216C 664.002,224.25 764.502,232.417 865,240.5C 868.833,240.333 872.667,240.167 876.5,240C 926.546,221.056 976.046,200.89 1025,179.5C 1027.13,185.946 1026.63,192.279 1023.5,198.5C 1023.62,199.107 1023.96,199.44 1024.5,199.5 Z" /></g>
    <g><path style="opacity:1" fill="#088041" d="M 492.5,188.5 C 496.184,189.728 499.85,189.728 503.5,188.5C 504.156,189.622 504.489,190.955 504.5,192.5C 500.6,286.477 497.266,380.477 494.5,474.5C 492.196,471.342 490.03,468.009 488,464.5C 486.149,469.942 484.316,475.275 482.5,480.5C 485.526,383.126 488.859,285.793 492.5,188.5 Z" /></g>
    <g><path style="opacity:1" fill="#010101" d="M 1003.5,210.5 C 1003.5,211.833 1003.5,213.167 1003.5,214.5C 997.551,218.48 991.217,221.98 984.5,225C 947.174,241.001 910.174,257.501 873.5,274.5C 870.167,275.833 866.833,275.833 863.5,274.5C 769.828,266.227 676.162,257.893 582.5,249.5C 581.527,247.052 581.194,244.385 581.5,241.5C 671.492,249.333 761.492,257.166 851.5,265C 857.833,265.667 864.167,265.667 870.5,265C 914.261,245.688 958.261,226.855 1002.5,208.5C 1003.3,208.957 1003.63,209.624 1003.5,210.5 Z" /></g>
    <g><path style="opacity:1" fill="#0a6734" d="M 557.5,212.5 C 557.5,212.833 557.5,213.167 557.5,213.5C 557.068,221.279 557.568,228.946 559,236.5C 560.8,238.317 562.966,239.484 565.5,240C 570.854,240.391 576.188,240.891 581.5,241.5C 581.194,244.385 581.527,247.052 582.5,249.5C 591.801,337.877 601.468,426.21 611.5,514.5C 602.21,517.963 596.71,524.63 595,534.5C 594.83,543.676 594.33,552.676 593.5,561.5C 593.823,555.31 593.49,549.31 592.5,543.5C 582.24,447.156 571.906,350.823 561.5,254.5C 555.49,253.906 549.49,253.24 543.5,252.5C 541.083,240.912 539.083,229.246 537.5,217.5C 544.594,217.06 551.261,215.393 557.5,212.5 Z" /></g>
    <g><path style="opacity:0.996" fill="#565555" d="M 1003.5,214.5 C 988.426,359.907 973.093,505.24 957.5,650.5C 925.599,646.128 893.599,640.795 861.5,634.5C 865.767,517 870.1,399.5 874.5,282C 874.497,279.31 874.164,276.81 873.5,274.5C 910.174,257.501 947.174,241.001 984.5,225C 991.217,221.98 997.551,218.48 1003.5,214.5 Z" /></g>
    <g><path style="opacity:1" fill="#363735" d="M 582.5,249.5 C 676.162,257.893 769.828,266.227 863.5,274.5C 858.6,393.753 854.266,513.086 850.5,632.5C 842.656,631.554 834.822,630.554 827,629.5C 818.878,629.475 811.378,631.642 804.5,636C 808.452,635.566 812.452,635.566 816.5,636C 806.264,635.192 799.097,639.359 795,648.5C 793.526,692.794 793.026,737.128 793.5,781.5C 793.167,781.5 792.833,781.5 792.5,781.5C 792.5,754.833 792.5,728.167 792.5,701.5C 792.829,686.657 792.496,671.99 791.5,657.5C 790.833,657.5 790.167,657.5 789.5,657.5C 789.158,656.662 788.492,656.328 787.5,656.5C 787.667,626.165 787.5,595.832 787,565.5C 785.963,559.594 783.463,554.427 779.5,550C 767.62,542.259 754.62,537.259 740.5,535C 702.862,528.227 665.195,521.56 627.5,515C 622.177,514.501 616.844,514.334 611.5,514.5C 601.468,426.21 591.801,337.877 582.5,249.5 Z" /></g>
    <g><path style="opacity:1" fill="#6f6e6e" d="M 863.5,274.5 C 866.833,275.833 870.167,275.833 873.5,274.5C 874.164,276.81 874.497,279.31 874.5,282C 870.1,399.5 865.767,517 861.5,634.5C 857.64,634.192 853.974,633.525 850.5,632.5C 854.266,513.086 858.6,393.753 863.5,274.5 Z" /></g>
    <g><path style="opacity:1" fill="#08773c" d="M 390.5,306.5 C 404.021,306.411 417.354,307.911 430.5,311C 422.524,317.204 415.691,324.37 410,332.5C 405.515,346.771 401.181,361.104 397,375.5C 385.286,400.453 366.786,407.786 341.5,397.5C 337.91,411.251 329.577,420.751 316.5,426C 313.5,426.667 310.5,426.667 307.5,426C 306.065,423.733 306.398,421.733 308.5,420C 316.894,418.888 323.727,415.054 329,408.5C 333.723,398.329 338.057,387.996 342,377.5C 348.407,373.578 355.241,370.412 362.5,368C 357.365,368.925 352.198,370.092 347,371.5C 346.167,371.167 345.333,370.833 344.5,370.5C 347.273,365.287 349.773,359.954 352,354.5C 354.966,352.966 358.133,351.8 361.5,351C 359.167,350.667 356.833,350.333 354.5,350C 358.814,343.689 363.814,338.022 369.5,333C 365.246,334.538 361.413,337.038 358,340.5C 357.86,337.957 357.194,335.623 356,333.5C 355.667,336.833 355.333,340.167 355,343.5C 350.922,348.657 347.088,353.99 343.5,359.5C 341.139,356.112 339.306,352.446 338,348.5C 337.346,347.304 336.846,347.304 336.5,348.5C 338.366,353.432 340.033,358.432 341.5,363.5C 338.034,372.432 334.034,381.098 329.5,389.5C 319.623,377.453 316.79,363.786 321,348.5C 326.263,333.568 336.096,322.735 350.5,316C 363.308,310.064 376.641,306.897 390.5,306.5 Z" /></g>
    <g><path style="opacity:1" fill="#666665" d="M 725.5,370.5 C 729.71,369.712 732.377,371.379 733.5,375.5C 738.517,373.953 743.684,373.286 749,373.5C 755.843,372.91 762.343,374.077 768.5,377C 772.817,382.233 772.484,387.066 767.5,391.5C 770.562,393.12 773.396,395.12 776,397.5C 775.003,415.179 774.503,433.012 774.5,451C 774.437,466.606 774.937,482.106 776,497.5C 775.492,502.012 773.325,505.512 769.5,508C 759.114,513.176 748.114,515.343 736.5,514.5C 724.326,515.53 712.993,513.03 702.5,507C 700.622,505.457 699.122,503.624 698,501.5C 697.105,494.86 697.605,488.36 699.5,482C 698.706,460.848 698.206,439.682 698,418.5C 691.686,415.921 689.353,411.255 691,404.5C 695.667,395.833 702.333,389.167 711,384.5C 711.21,383.197 711.043,381.864 710.5,380.5C 710.637,378.893 711.304,377.559 712.5,376.5C 716.774,374.194 721.107,372.194 725.5,370.5 Z" /></g>
    <g><path style="opacity:1" fill="#393938" d="M 742.5,376.5 C 750.076,375.897 757.41,376.897 764.5,379.5C 765.614,380.723 765.781,382.056 765,383.5C 762.961,385.874 760.628,387.874 758,389.5C 756.269,387.383 754.102,385.883 751.5,385C 746.302,382.989 740.969,381.489 735.5,380.5C 737.765,378.873 740.099,377.539 742.5,376.5 Z" /></g>
    <g><path style="opacity:1" fill="#383837" d="M 725.5,381.5 C 735.928,382.012 745.762,384.679 755,389.5C 755.617,390.449 755.451,391.282 754.5,392C 735.991,403.115 715.991,409.282 694.5,410.5C 694.249,406.669 695.416,403.336 698,400.5C 701.534,396.631 705.367,393.131 709.5,390C 710.793,389.51 712.127,389.343 713.5,389.5C 711.866,393.944 710.866,398.611 710.5,403.5C 710.833,404.833 711.167,406.167 711.5,407.5C 711.833,407.333 712.167,407.167 712.5,407C 713.111,401.08 714.278,395.247 716,389.5C 717.586,388.624 719.086,387.624 720.5,386.5C 720.291,385.914 719.957,385.414 719.5,385C 721.727,384.059 723.727,382.892 725.5,381.5 Z" /></g>
    <g><path style="opacity:1" fill="#666565" d="M 723.5,385.5 C 727.735,388.951 730.735,393.451 732.5,399C 732.167,399.5 731.833,400 731.5,400.5C 728.044,395.922 725.378,390.922 723.5,385.5 Z" /></g>
    <g><path style="opacity:1" fill="#393938" d="M 761.5,395.5 C 764.988,395.705 768.321,396.539 771.5,398C 772.833,399.333 772.833,400.667 771.5,402C 761.895,405.92 751.895,407.587 741.5,407C 748.987,404.362 755.654,400.528 761.5,395.5 Z" /></g>
    <g><path style="opacity:1" fill="#434342" d="M 765.5,385.5 C 766.525,385.897 766.692,386.563 766,387.5C 748.216,401.548 728.049,410.381 705.5,414C 702.366,414.79 699.366,414.457 696.5,413C 717.725,411.48 737.392,405.147 755.5,394C 759.462,391.86 762.796,389.027 765.5,385.5 Z" /></g>
    <g><path style="opacity:1" fill="#383837" d="M 769.5,404.5 C 770.5,404.5 771.5,404.5 772.5,404.5C 773.011,408.03 772.344,411.196 770.5,414C 751.154,420.161 731.488,421.161 711.5,417C 718.939,414.974 726.272,412.641 733.5,410C 741.858,409.624 750.191,408.957 758.5,408C 762.491,407.502 766.158,406.335 769.5,404.5 Z" /></g>
    <g><path style="opacity:1" fill="#383837" d="M 769.5,416.5 C 770.663,440.663 770.83,464.997 770,489.5C 760.046,496.617 748.879,499.95 736.5,499.5C 726.238,499.869 716.572,497.703 707.5,493C 705.86,491.605 704.36,490.105 703,488.5C 702.5,464.836 702.333,441.169 702.5,417.5C 722.701,422.221 743.034,422.721 763.5,419C 765.852,418.76 767.852,417.927 769.5,416.5 Z" /></g>
    <g><path style="opacity:1" fill="#666565" d="M 706.5,420.5 C 708.5,420.5 710.5,420.5 712.5,420.5C 712.227,422.451 712.893,423.951 714.5,425C 719.673,425.44 724.839,425.94 730,426.5C 732.281,426.437 734.114,425.603 735.5,424C 737.5,423.333 739.5,423.333 741.5,424C 742.554,425.388 742.72,426.888 742,428.5C 739.638,429.352 737.805,430.852 736.5,433C 733.518,433.498 730.518,433.665 727.5,433.5C 727.333,453.169 727.5,472.836 728,492.5C 729.976,493.543 730.476,494.877 729.5,496.5C 727.803,495.636 726.637,494.303 726,492.5C 725.5,472.836 725.333,453.169 725.5,433.5C 721.846,433.058 718.179,432.724 714.5,432.5C 714.179,451.88 714.513,471.213 715.5,490.5C 714.726,491.711 713.893,491.711 713,490.5C 712.833,470.825 712.333,451.158 711.5,431.5C 708.763,430.931 707.263,429.264 707,426.5C 706.369,447.221 706.369,467.887 707,488.5C 706.333,487.833 705.667,487.167 705,486.5C 704.333,465.833 704.333,445.167 705,424.5C 705.41,423.099 705.91,421.766 706.5,420.5 Z" /></g>
    <g><path style="opacity:1" fill="#3b3b3a" d="M 708.5,422.5 C 709.926,423.802 711.259,425.302 712.5,427C 720.383,428.354 728.216,428.521 736,427.5C 736.684,428.784 736.517,429.951 735.5,431C 726.78,431.493 718.114,430.993 709.5,429.5C 709.552,427.097 709.219,424.764 708.5,422.5 Z" /></g>
    <g><path style="opacity:1" fill="#6a6969" d="M 743.5,425.5 C 744.822,425.33 745.989,425.663 747,426.5C 747.667,448.833 747.667,471.167 747,493.5C 746.275,495.158 745.108,495.658 743.5,495C 744,494.5 744.5,494 745,493.5C 745.667,471.833 745.667,450.167 745,428.5C 743.961,427.756 743.461,426.756 743.5,425.5 Z" /></g>
    <g><path style="opacity:1" fill="#626161" d="M 756.5,424.5 C 757.822,424.33 758.989,424.663 760,425.5C 760.667,447.5 760.667,469.5 760,491.5C 757.042,494.192 756.375,493.859 758,490.5C 758.167,479.833 758.333,469.167 758.5,458.5C 758.457,447.01 757.79,435.677 756.5,424.5 Z" /></g>
    <g><path style="opacity:1" fill="#676666" d="M 765.5,422.5 C 766.496,422.414 767.329,422.748 768,423.5C 768.667,444.5 768.667,465.5 768,486.5C 767.333,487.167 766.667,487.833 766,488.5C 766.811,466.498 766.644,444.498 765.5,422.5 Z" /></g>
    <g><path style="opacity:0.984" fill="#535252" d="M 225.5,489.5 C 217.833,489.5 210.167,489.5 202.5,489.5C 202.5,491.833 202.5,494.167 202.5,496.5C 199.309,495.908 196.309,494.741 193.5,493C 185.841,492.5 178.174,492.334 170.5,492.5C 172.073,502.373 176.407,510.873 183.5,518C 178.7,516.267 174.034,513.934 169.5,511C 159.758,506.45 149.758,505.45 139.5,508C 154.906,509.524 169.239,514.358 182.5,522.5C 183.833,524.833 183.833,527.167 182.5,529.5C 163.67,535.242 147.003,544.575 132.5,557.5C 111.49,557.062 90.4902,556.396 69.5,555.5C 77.5228,546.978 86.8562,540.144 97.5,535C 106.841,525.821 114.341,515.321 120,503.5C 125.619,495.777 133.119,491.277 142.5,490C 150.479,488.836 158.479,487.836 166.5,487C 162.473,482.068 163.973,479.902 171,480.5C 176.237,480.578 180.737,482.411 184.5,486C 190.157,486.499 195.824,486.666 201.5,486.5C 201.583,472.586 204.416,459.253 210,446.5C 219.635,459.238 224.801,473.571 225.5,489.5 Z" /></g>
    <g><path style="opacity:1" fill="#383837" d="M 701.5,491.5 C 709.452,497.468 718.452,500.635 728.5,501C 740.118,502.102 751.451,500.769 762.5,497C 765.759,495.789 768.592,493.956 771,491.5C 773.354,498.961 770.854,503.794 763.5,506C 743.823,513.783 724.489,513.117 705.5,504C 701.835,500.702 700.502,496.535 701.5,491.5 Z" /></g>
    <g><path style="opacity:1" fill="#79b758" d="M 494.5,474.5 C 501.603,486.483 505.27,499.483 505.5,513.5C 505.815,517.371 505.482,521.038 504.5,524.5C 502.369,523.686 500.036,523.186 497.5,523C 483.162,522.631 468.828,522.131 454.5,521.5C 450.982,521.502 447.649,521.835 444.5,522.5C 443.12,519.226 441.62,515.893 440,512.5C 439.329,511.748 438.496,511.414 437.5,511.5C 437.881,509.153 437.215,506.82 435.5,504.5C 443.687,502.186 451.021,503.686 457.5,509C 464.492,509.5 471.492,509.666 478.5,509.5C 478.798,499.68 480.131,490.013 482.5,480.5C 484.316,475.275 486.149,469.942 488,464.5C 490.03,468.009 492.196,471.342 494.5,474.5 Z" /></g>
    <g><path style="opacity:1" fill="#535252" d="M 225.5,489.5 C 231.925,489.96 238.258,490.96 244.5,492.5C 275.523,500.095 303.023,514.428 327,535.5C 333.58,543.327 337.414,552.327 338.5,562.5C 333.511,563.166 328.344,563.499 323,563.5C 296.174,562.469 269.341,561.802 242.5,561.5C 232.404,552.615 221.737,544.448 210.5,537C 215.271,536.117 219.271,533.95 222.5,530.5C 246.623,529.236 270.289,531.736 293.5,538C 285.493,533.219 276.826,530.219 267.5,529C 252.855,527.96 238.189,527.126 223.5,526.5C 221.644,523.81 219.311,521.644 216.5,520C 232.487,511.511 249.487,506.177 267.5,504C 250.497,501.72 234.831,505.22 220.5,514.5C 220.167,514.167 219.833,513.833 219.5,513.5C 223.386,505.957 225.386,497.957 225.5,489.5 Z" /></g>
    <g><path style="opacity:1" fill="#7ebc5a" d="M 437.5,511.5 C 438.496,511.414 439.329,511.748 440,512.5C 441.62,515.893 443.12,519.226 444.5,522.5C 445.738,527.895 447.738,532.895 450.5,537.5C 452.5,541.5 455.5,544.5 459.5,546.5C 460.795,547.488 462.128,548.488 463.5,549.5C 462.167,550.833 460.833,550.833 459.5,549.5C 444.623,535.949 427.29,530.782 407.5,534C 425.103,536.367 441.436,542.2 456.5,551.5C 456.5,552.833 456.5,554.167 456.5,555.5C 427.982,555.243 399.649,554.243 371.5,552.5C 375.977,544.888 380.477,537.222 385,529.5C 391.046,520.39 399.546,515.223 410.5,514C 419.421,512.273 428.421,511.44 437.5,511.5 Z" /></g>
    <g><path style="opacity:1" fill="#010201" d="M 611.5,514.5 C 616.844,514.334 622.177,514.501 627.5,515C 665.195,521.56 702.862,528.227 740.5,535C 754.62,537.259 767.62,542.259 779.5,550C 783.463,554.427 785.963,559.594 787,565.5C 787.5,595.832 787.667,626.165 787.5,656.5C 786.504,671.991 786.17,687.658 786.5,703.5C 786.002,707.219 786.836,710.553 789,713.5C 790.499,721.373 789.166,728.706 785,735.5C 782.997,737.922 780.497,738.755 777.5,738C 774.265,736.64 771.765,734.473 770,731.5C 769.176,724.363 769.676,717.363 771.5,710.5C 771.5,708.167 771.5,705.833 771.5,703.5C 772.497,687.008 772.83,670.342 772.5,653.5C 772.667,624.498 772.5,595.498 772,566.5C 769.28,560.198 764.446,556.365 757.5,555C 739.623,550.491 721.623,546.491 703.5,543C 678.451,538.911 653.451,534.578 628.5,530C 623.316,529.184 618.316,529.35 613.5,530.5C 611.016,532.12 609.516,534.453 609,537.5C 608.501,543.157 608.334,548.824 608.5,554.5C 608.5,585.167 608.5,615.833 608.5,646.5C 603.775,648.86 598.775,650.86 593.5,652.5C 593.5,646.833 593.5,641.167 593.5,635.5C 593.5,626.833 593.5,618.167 593.5,609.5C 593.5,597.5 593.5,585.5 593.5,573.5C 593.5,569.5 593.5,565.5 593.5,561.5C 594.33,552.676 594.83,543.676 595,534.5C 596.71,524.63 602.21,517.963 611.5,514.5 Z" /></g>
    <g><path style="opacity:1" fill="#67a650" d="M 504.5,524.5 C 503.999,529.676 502.332,534.342 499.5,538.5C 483.185,536.667 466.852,536.334 450.5,537.5C 447.738,532.895 445.738,527.895 444.5,522.5C 447.649,521.835 450.982,521.502 454.5,521.5C 468.828,522.131 483.162,522.631 497.5,523C 500.036,523.186 502.369,523.686 504.5,524.5 Z" /></g>
    <g><path style="opacity:1" fill="#9bc879" d="M 493.5,548.5 C 493.833,547.833 494.167,547.167 494.5,546.5C 495.833,545.167 497.167,543.833 498.5,542.5C 512.083,534.417 526.75,529.75 542.5,528.5C 546.569,528.504 550.569,529.004 554.5,530C 545.299,530.7 536.299,532.366 527.5,535C 515.955,539.014 504.622,543.514 493.5,548.5 Z" /></g>
    <g><path style="opacity:1" fill="#363635" d="M 772.5,653.5 C 771.833,653.5 771.167,653.5 770.5,653.5C 739.426,648.686 708.426,643.352 677.5,637.5C 676.416,637.685 675.416,638.018 674.5,638.5C 672.319,638.716 670.653,637.883 669.5,636C 659.03,635.256 648.697,636.09 638.5,638.5C 639.24,622.009 638.073,605.675 635,589.5C 631.827,577.797 625.66,568.13 616.5,560.5C 615.5,550.5 614.5,540.5 613.5,530.5C 618.316,529.35 623.316,529.184 628.5,530C 653.451,534.578 678.451,538.911 703.5,543C 721.623,546.491 739.623,550.491 757.5,555C 764.446,556.365 769.28,560.198 772,566.5C 772.5,595.498 772.667,624.498 772.5,653.5 Z" /></g>
    <g><path style="opacity:1" fill="#7ebb5a" d="M 505.5,513.5 C 536.617,517.538 565.617,527.538 592.5,543.5C 593.49,549.31 593.823,555.31 593.5,561.5C 593.5,565.5 593.5,569.5 593.5,573.5C 591.5,572.833 589.5,572.167 587.5,571.5C 584.744,568.611 581.411,566.444 577.5,565C 565.997,560.193 553.997,557.526 541.5,557C 528.838,556.5 516.171,556.333 503.5,556.5C 499.028,555.356 494.362,554.523 489.5,554C 490.056,553.617 490.389,553.117 490.5,552.5C 491.5,551.167 492.5,549.833 493.5,548.5C 504.622,543.514 515.955,539.014 527.5,535C 536.299,532.366 545.299,530.7 554.5,530C 550.569,529.004 546.569,528.504 542.5,528.5C 526.75,529.75 512.083,534.417 498.5,542.5C 498.833,541.167 499.167,539.833 499.5,538.5C 502.332,534.342 503.999,529.676 504.5,524.5C 505.482,521.038 505.815,517.371 505.5,513.5 Z" /></g>
    <g><path style="opacity:1" fill="#0c6332" d="M 613.5,530.5 C 614.5,540.5 615.5,550.5 616.5,560.5C 614.116,558.115 611.45,556.115 608.5,554.5C 608.334,548.824 608.501,543.157 609,537.5C 609.516,534.453 611.016,532.12 613.5,530.5 Z" /></g>
    <g><path style="opacity:1" fill="#9bc87a" d="M 459.5,549.5 C 458.5,550.167 457.5,550.833 456.5,551.5C 441.436,542.2 425.103,536.367 407.5,534C 427.29,530.782 444.623,535.949 459.5,549.5 Z" /></g>
    <g><path style="opacity:1" fill="#434342" d="M 225.5,489.5 C 225.386,497.957 223.386,505.957 219.5,513.5C 219.833,513.833 220.167,514.167 220.5,514.5C 234.831,505.22 250.497,501.72 267.5,504C 249.487,506.177 232.487,511.511 216.5,520C 219.311,521.644 221.644,523.81 223.5,526.5C 238.189,527.126 252.855,527.96 267.5,529C 276.826,530.219 285.493,533.219 293.5,538C 270.289,531.736 246.623,529.236 222.5,530.5C 219.271,533.95 215.271,536.117 210.5,537C 221.737,544.448 232.404,552.615 242.5,561.5C 249.83,569.684 255.33,579.018 259,589.5C 259.667,591.167 259.667,592.833 259,594.5C 253.178,583.692 246.012,573.858 237.5,565C 227.126,555.624 216.46,546.624 205.5,538C 202.568,537.047 199.568,536.547 196.5,536.5C 195.432,535.566 194.099,535.232 192.5,535.5C 190.312,533.245 187.646,532.411 184.5,533C 164.323,541.577 145.99,552.91 129.5,567C 126.667,570.5 123.833,574 121,577.5C 121.025,575.08 121.691,572.747 123,570.5C 125.998,566.008 129.165,561.675 132.5,557.5C 147.003,544.575 163.67,535.242 182.5,529.5C 183.833,527.167 183.833,524.833 182.5,522.5C 169.239,514.358 154.906,509.524 139.5,508C 149.758,505.45 159.758,506.45 169.5,511C 174.034,513.934 178.7,516.267 183.5,518C 176.407,510.873 172.073,502.373 170.5,492.5C 178.174,492.334 185.841,492.5 193.5,493C 196.309,494.741 199.309,495.908 202.5,496.5C 202.5,494.167 202.5,491.833 202.5,489.5C 210.167,489.5 217.833,489.5 225.5,489.5 Z" /></g>
    <g><path style="opacity:1" fill="#559648" d="M 499.5,538.5 C 499.167,539.833 498.833,541.167 498.5,542.5C 497.167,543.833 495.833,545.167 494.5,546.5C 482.679,545.294 471.012,545.294 459.5,546.5C 455.5,544.5 452.5,541.5 450.5,537.5C 466.852,536.334 483.185,536.667 499.5,538.5 Z" /></g>
    <g><path style="opacity:1" fill="#468942" d="M 494.5,546.5 C 494.167,547.167 493.833,547.833 493.5,548.5C 492.5,549.833 491.5,551.167 490.5,552.5C 481.017,555.785 472.017,554.785 463.5,549.5C 462.128,548.488 460.795,547.488 459.5,546.5C 471.012,545.294 482.679,545.294 494.5,546.5 Z" /></g>
    <g><path style="opacity:0.995" fill="#4e4e4d" d="M 192.5,535.5 C 187.678,545.812 182.845,556.145 178,566.5C 173.743,577.197 170.576,588.197 168.5,599.5C 127.127,599.63 85.794,598.63 44.5,596.5C 47.3189,587.195 51.4856,578.528 57,570.5C 60.6545,565.018 64.8211,560.018 69.5,555.5C 90.4902,556.396 111.49,557.062 132.5,557.5C 129.165,561.675 125.998,566.008 123,570.5C 121.691,572.747 121.025,575.08 121,577.5C 123.833,574 126.667,570.5 129.5,567C 145.99,552.91 164.323,541.577 184.5,533C 187.646,532.411 190.312,533.245 192.5,535.5 Z" /></g>
    <g><path style="opacity:1" fill="#99c678" d="M 503.5,556.5 C 516.171,556.333 528.838,556.5 541.5,557C 553.997,557.526 565.997,560.193 577.5,565C 581.411,566.444 584.744,568.611 587.5,571.5C 577.404,567.892 567.071,565.059 556.5,563C 538.887,560.993 521.22,559.827 503.5,559.5C 503.5,558.5 503.5,557.5 503.5,556.5 Z" /></g>
    <g><path style="opacity:1" fill="#79b758" d="M 459.5,549.5 C 460.833,550.833 462.167,550.833 463.5,549.5C 472.017,554.785 481.017,555.785 490.5,552.5C 490.389,553.117 490.056,553.617 489.5,554C 494.362,554.523 499.028,555.356 503.5,556.5C 503.5,557.5 503.5,558.5 503.5,559.5C 521.22,559.827 538.887,560.993 556.5,563C 567.071,565.059 577.404,567.892 587.5,571.5C 589.5,572.167 591.5,572.833 593.5,573.5C 593.5,585.5 593.5,597.5 593.5,609.5C 574.163,609.328 554.83,608.995 535.5,608.5C 521.928,591.924 505.928,578.257 487.5,567.5C 493.525,566.995 498.525,564.495 502.5,560C 487.686,558.409 473.02,558.242 458.5,559.5C 436.735,565.214 417.402,575.381 400.5,590C 396.258,594.732 392.258,599.565 388.5,604.5C 364.822,603.354 341.156,602.021 317.5,600.5C 323.798,591.202 331.465,583.202 340.5,576.5C 347.803,572.848 354.803,568.682 361.5,564C 364.698,559.974 368.032,556.141 371.5,552.5C 399.649,554.243 427.982,555.243 456.5,555.5C 456.5,554.167 456.5,552.833 456.5,551.5C 457.5,550.833 458.5,550.167 459.5,549.5 Z" /></g>
    <g><path style="opacity:1" fill="#5a9b4a" d="M 487.5,567.5 C 485.5,567.5 483.5,567.5 481.5,567.5C 477.452,567.605 473.452,567.272 469.5,566.5C 469.167,566.5 468.833,566.5 468.5,566.5C 465.869,564.847 463.203,563.181 460.5,561.5C 459.5,561.167 458.833,560.5 458.5,559.5C 473.02,558.242 487.686,558.409 502.5,560C 498.525,564.495 493.525,566.995 487.5,567.5 Z" /></g>
    <g><path style="opacity:1" fill="#97c478" d="M 458.5,559.5 C 458.833,560.5 459.5,561.167 460.5,561.5C 446.895,568.972 433.229,576.472 419.5,584C 410.513,589.321 402.513,595.821 395.5,603.5C 391.096,606.901 387.429,610.901 384.5,615.5C 385.548,611.736 386.881,608.069 388.5,604.5C 392.258,599.565 396.258,594.732 400.5,590C 417.402,575.381 436.735,565.214 458.5,559.5 Z" /></g>
    <g><path style="opacity:1" fill="#4e4e4d" d="M 196.5,536.5 C 199.568,536.547 202.568,537.047 205.5,538C 216.46,546.624 227.126,555.624 237.5,565C 246.012,573.858 253.178,583.692 259,594.5C 259.667,592.833 259.667,591.167 259,589.5C 255.33,579.018 249.83,569.684 242.5,561.5C 269.341,561.802 296.174,562.469 323,563.5C 328.344,563.499 333.511,563.166 338.5,562.5C 339.644,566.964 340.31,571.63 340.5,576.5C 331.465,583.202 323.798,591.202 317.5,600.5C 316.061,602.36 314.395,604.027 312.5,605.5C 295.514,604.672 278.514,604.005 261.5,603.5C 260.247,594.316 259.581,594.316 259.5,603.5C 229.819,602.722 200.152,601.722 170.5,600.5C 171.526,594.729 173.026,589.062 175,583.5C 181.079,567.758 187.245,552.091 193.5,536.5C 194.5,536.5 195.5,536.5 196.5,536.5 Z" /></g>
    <g><path style="opacity:1" fill="#93c175" d="M 468.5,566.5 C 468.833,566.5 469.167,566.5 469.5,566.5C 464.556,579.666 459.223,592.666 453.5,605.5C 448.288,618.136 444.288,631.136 441.5,644.5C 440.21,652.327 439.543,652.327 439.5,644.5C 441.947,631.273 445.28,618.273 449.5,605.5C 455.017,592.132 461.35,579.132 468.5,566.5 Z" /></g>
    <g><path style="opacity:1" fill="#96c377" d="M 481.5,567.5 C 483.5,567.5 485.5,567.5 487.5,567.5C 505.928,578.257 521.928,591.924 535.5,608.5C 537.973,613.447 540.473,618.447 543,623.5C 544.324,627.446 544.991,631.446 545,635.5C 540.202,624.877 533.702,615.544 525.5,607.5C 523.42,603.914 520.754,600.747 517.5,598C 505.309,587.969 493.309,577.802 481.5,567.5 Z" /></g>
    <g><path style="opacity:1" fill="#78b657" d="M 460.5,561.5 C 463.203,563.181 465.869,564.847 468.5,566.5C 461.35,579.132 455.017,592.132 449.5,605.5C 431.456,605.176 413.456,604.509 395.5,603.5C 402.513,595.821 410.513,589.321 419.5,584C 433.229,576.472 446.895,568.972 460.5,561.5 Z" /></g>
    <g><path style="opacity:1" fill="#78b657" d="M 469.5,566.5 C 473.452,567.272 477.452,567.605 481.5,567.5C 493.309,577.802 505.309,587.969 517.5,598C 520.754,600.747 523.42,603.914 525.5,607.5C 501.484,607.257 477.484,606.59 453.5,605.5C 459.223,592.666 464.556,579.666 469.5,566.5 Z" /></g>
    <g><path style="opacity:1" fill="#73b155" d="M 317.5,600.5 C 341.156,602.021 364.822,603.354 388.5,604.5C 386.881,608.069 385.548,611.736 384.5,615.5C 387.429,610.901 391.096,606.901 395.5,603.5C 413.456,604.509 431.456,605.176 449.5,605.5C 445.28,618.273 441.947,631.273 439.5,644.5C 391.799,642.978 344.132,641.312 296.5,639.5C 300.773,627.622 306.107,616.289 312.5,605.5C 314.395,604.027 316.061,602.36 317.5,600.5 Z" /></g>
    <g><path style="opacity:0.998" fill="#484847" d="M 192.5,535.5 C 194.099,535.232 195.432,535.566 196.5,536.5C 195.5,536.5 194.5,536.5 193.5,536.5C 187.245,552.091 181.079,567.758 175,583.5C 173.026,589.062 171.526,594.729 170.5,600.5C 200.152,601.722 229.819,602.722 259.5,603.5C 259.581,594.316 260.247,594.316 261.5,603.5C 278.514,604.005 295.514,604.672 312.5,605.5C 306.107,616.289 300.773,627.622 296.5,639.5C 294.975,642.079 293.641,644.746 292.5,647.5C 256.024,645.303 219.357,643.969 182.5,643.5C 184.036,641.084 185.036,638.417 185.5,635.5C 185.451,631.896 183.784,629.396 180.5,628C 169.901,625.54 159.567,626.373 149.5,630.5C 148.474,626.851 146.141,625.685 142.5,627C 137.919,628.871 133.752,631.371 130,634.5C 129.349,636.235 129.515,637.902 130.5,639.5C 129.812,640.855 128.812,641.855 127.5,642.5C 96.349,640.584 65.0157,639.251 33.5,638.5C 35.0026,623.818 38.6692,609.818 44.5,596.5C 85.794,598.63 127.127,599.63 168.5,599.5C 170.576,588.197 173.743,577.197 178,566.5C 182.845,556.145 187.678,545.812 192.5,535.5 Z" /></g>
    <g><path style="opacity:1" fill="#73b155" d="M 453.5,605.5 C 477.484,606.59 501.484,607.257 525.5,607.5C 533.702,615.544 540.202,624.877 545,635.5C 544.991,631.446 544.324,627.446 543,623.5C 540.473,618.447 537.973,613.447 535.5,608.5C 554.83,608.995 574.163,609.328 593.5,609.5C 593.5,618.167 593.5,626.833 593.5,635.5C 592.515,639.634 592.182,643.968 592.5,648.5C 578.153,648.604 563.82,648.27 549.5,647.5C 548.297,659.315 546.631,659.315 544.5,647.5C 510.169,646.438 475.836,645.438 441.5,644.5C 444.288,631.136 448.288,618.136 453.5,605.5 Z" /></g>
    <g><path style="opacity:1" fill="#75b356" d="M 608.5,554.5 C 611.45,556.115 614.116,558.115 616.5,560.5C 625.66,568.13 631.827,577.797 635,589.5C 638.073,605.675 639.24,622.009 638.5,638.5C 628.674,641.458 618.674,644.125 608.5,646.5C 608.5,615.833 608.5,585.167 608.5,554.5 Z" /></g>
    <g><path style="opacity:1" fill="#90bf74" d="M 384.5,615.5 C 383.57,619.796 382.737,624.13 382,628.5C 378.687,636.817 377.354,636.484 378,627.5C 379.418,622.99 381.585,618.99 384.5,615.5 Z" /></g>
    <g><path style="opacity:1" fill="#555454" d="M 182.5,643.5 C 183.761,644.683 185.761,645.85 188.5,647C 190.037,648.11 190.703,649.61 190.5,651.5C 190.5,653.5 190.5,655.5 190.5,657.5C 188.857,657.52 187.524,656.853 186.5,655.5C 185.893,655.624 185.56,655.957 185.5,656.5C 185.167,656.5 184.833,656.5 184.5,656.5C 183.761,656.631 183.094,656.464 182.5,656C 185.394,655.131 186.561,653.298 186,650.5C 183.711,649.014 181.211,648.014 178.5,647.5C 173.989,650.495 169.322,653.328 164.5,656C 162.5,656.667 160.5,656.667 158.5,656C 163.008,653.247 167.341,650.247 171.5,647C 165.854,649.661 160.187,652.661 154.5,656C 152.934,656.765 151.601,656.598 150.5,655.5C 157.802,652.517 164.469,648.517 170.5,643.5C 162.179,638.602 153.179,636.435 143.5,637C 139.692,638.479 136.858,640.979 135,644.5C 132.864,649.97 131.364,655.637 130.5,661.5C 130.167,660 129.833,658.5 129.5,657C 130.322,653.191 130.988,649.358 131.5,645.5C 126.625,647.702 122.625,651.036 119.5,655.5C 118.5,655.167 117.833,654.5 117.5,653.5C 120.152,649.183 123.485,645.516 127.5,642.5C 128.812,641.855 129.812,640.855 130.5,639.5C 129.515,637.902 129.349,636.235 130,634.5C 133.752,631.371 137.919,628.871 142.5,627C 146.141,625.685 148.474,626.851 149.5,630.5C 159.567,626.373 169.901,625.54 180.5,628C 183.784,629.396 185.451,631.896 185.5,635.5C 185.036,638.417 184.036,641.084 182.5,643.5 Z" /></g>
    <g><path style="opacity:1" fill="#7d4e24" d="M 674.5,638.5 C 675.913,641.505 677.913,644.005 680.5,646C 710.654,652.581 740.988,658.081 771.5,662.5C 771.5,672.167 771.5,681.833 771.5,691.5C 756.956,696.626 742.289,701.459 727.5,706C 719.555,707.488 711.555,707.822 703.5,707C 696.94,705.155 690.274,703.821 683.5,703C 661.103,702.784 639.103,699.784 617.5,694C 596.906,688.469 576.573,682.135 556.5,675C 554.313,673.975 552.646,672.475 551.5,670.5C 551.511,668.983 552.177,667.816 553.5,667C 566.34,660.744 579.673,655.911 593.5,652.5C 598.775,650.86 603.775,648.86 608.5,646.5C 618.674,644.125 628.674,641.458 638.5,638.5C 648.697,636.09 659.03,635.256 669.5,636C 670.653,637.883 672.319,638.716 674.5,638.5 Z" /></g>
    <g><path style="opacity:1" fill="#010102" d="M 850.5,632.5 C 853.974,633.525 857.64,634.192 861.5,634.5C 893.599,640.795 925.599,646.128 957.5,650.5C 965.354,651.881 973.021,654.048 980.5,657C 986.392,659.892 990.559,664.392 993,670.5C 993.92,682.01 994.754,693.51 995.5,705C 994.514,730.468 994.18,755.968 994.5,781.5C 994.5,787.167 994.5,792.833 994.5,798.5C 994.5,800.167 994.5,801.833 994.5,803.5C 993.511,808.975 993.178,814.642 993.5,820.5C 991.218,819.61 988.885,819.444 986.5,820C 984.667,821.833 982.833,823.667 981,825.5C 980.667,778.5 980.333,731.5 980,684.5C 979.261,680.615 977.927,676.948 976,673.5C 976.959,677.741 977.959,682.074 979,686.5C 979.667,734.167 979.667,781.833 979,829.5C 976.572,836.84 977.072,843.84 980.5,850.5C 976.599,849.6 973.932,847.267 972.5,843.5C 972.5,839.167 972.5,834.833 972.5,830.5C 972.833,830.5 973.167,830.5 973.5,830.5C 974.833,782.833 974.833,735.167 973.5,687.5C 971.835,679.001 966.835,673.501 958.5,671C 947.61,668.069 936.61,666.903 925.5,667.5C 919.477,662.694 912.977,661.694 906,664.5C 900.276,660.379 893.943,659.045 887,660.5C 880.936,656.601 874.436,655.601 867.5,657.5C 865.513,655.673 863.179,654.673 860.5,654.5C 857.033,652.537 853.366,652.203 849.5,653.5C 848.883,653.611 848.383,653.944 848,654.5C 846.421,652.959 844.587,651.792 842.5,651C 832.955,648.697 823.289,647.197 813.5,646.5C 810.375,646.435 807.375,646.935 804.5,648C 802.671,649.113 801.837,650.613 802,652.5C 804.819,648.507 808.653,646.84 813.5,647.5C 813.5,654.167 813.5,660.833 813.5,667.5C 813.5,674.833 813.5,682.167 813.5,689.5C 813.5,717.5 813.5,745.5 813.5,773.5C 808.897,775.463 804.23,777.463 799.5,779.5C 799.35,737.778 799.517,696.111 800,654.5C 798.511,696.081 798.011,737.748 798.5,779.5C 796.833,780.167 795.167,780.833 793.5,781.5C 793.026,737.128 793.526,692.794 795,648.5C 799.097,639.359 806.264,635.192 816.5,636C 812.452,635.566 808.452,635.566 804.5,636C 811.378,631.642 818.878,629.475 827,629.5C 834.822,630.554 842.656,631.554 850.5,632.5 Z M 951.5,671.5 C 963.445,671.781 970.445,677.781 972.5,689.5C 968.241,684.704 962.908,682.037 956.5,681.5C 955.081,680.549 953.415,680.216 951.5,680.5C 951.5,677.5 951.5,674.5 951.5,671.5 Z" /></g>
    <g><path style="opacity:1" fill="#673c10" d="M 770.5,653.5 C 771.403,656.391 771.736,659.391 771.5,662.5C 740.988,658.081 710.654,652.581 680.5,646C 677.913,644.005 675.913,641.505 674.5,638.5C 675.416,638.018 676.416,637.685 677.5,637.5C 708.426,643.352 739.426,648.686 770.5,653.5 Z" /></g>
    <g><path style="opacity:1" fill="#353434" d="M 818.5,637.5 C 819.274,636.853 820.274,636.52 821.5,636.5C 867.9,644.347 914.233,652.514 960.5,661C 913.141,653.591 865.808,645.757 818.5,637.5 Z" /></g>
    <g><path style="opacity:1" fill="#6dab52" d="M 593.5,635.5 C 593.5,641.167 593.5,646.833 593.5,652.5C 579.673,655.911 566.34,660.744 553.5,667C 552.177,667.816 551.511,668.983 551.5,670.5C 551.577,674.215 551.244,677.881 550.5,681.5C 547.262,682.748 543.762,683.415 540,683.5C 489.498,681.783 438.998,680.116 388.5,678.5C 386.05,678.298 383.717,678.631 381.5,679.5C 350.354,677.504 319.02,676.17 287.5,675.5C 287.5,673.833 287.5,672.167 287.5,670.5C 289.294,662.862 290.961,655.195 292.5,647.5C 293.641,644.746 294.975,642.079 296.5,639.5C 344.132,641.312 391.799,642.978 439.5,644.5C 439.543,652.327 440.21,652.327 441.5,644.5C 475.836,645.438 510.169,646.438 544.5,647.5C 546.631,659.315 548.297,659.315 549.5,647.5C 563.82,648.27 578.153,648.604 592.5,648.5C 592.182,643.968 592.515,639.634 593.5,635.5 Z" /></g>
    <g><path style="opacity:0.997" fill="#434342" d="M 33.5,638.5 C 65.0157,639.251 96.349,640.584 127.5,642.5C 123.485,645.516 120.152,649.183 117.5,653.5C 113.936,657.376 112.602,662.043 113.5,667.5C 87.2051,666.279 60.8718,665.279 34.5,664.5C 33.6602,655.862 33.3268,647.195 33.5,638.5 Z" /></g>
    <g><path style="opacity:1" fill="#373736" d="M 849.5,653.5 C 847.934,690.491 846.6,727.491 845.5,764.5C 834.833,767.5 824.166,770.5 813.5,773.5C 813.5,745.5 813.5,717.5 813.5,689.5C 814.583,689.461 815.583,689.127 816.5,688.5C 817.819,682.126 817.653,675.792 816,669.5C 815.292,668.619 814.458,667.953 813.5,667.5C 813.5,660.833 813.5,654.167 813.5,647.5C 808.653,646.84 804.819,648.507 802,652.5C 801.837,650.613 802.671,649.113 804.5,648C 807.375,646.935 810.375,646.435 813.5,646.5C 823.289,647.197 832.955,648.697 842.5,651C 844.587,651.792 846.421,652.959 848,654.5C 848.383,653.944 848.883,653.611 849.5,653.5 Z" /></g>
    <g><path style="opacity:1" fill="#444443" d="M 150.5,655.5 C 139.956,661.459 128.623,664.792 116.5,665.5C 116.35,661.805 117.35,658.472 119.5,655.5C 122.625,651.036 126.625,647.702 131.5,645.5C 130.988,649.358 130.322,653.191 129.5,657C 129.833,658.5 130.167,660 130.5,661.5C 131.364,655.637 132.864,649.97 135,644.5C 136.858,640.979 139.692,638.479 143.5,637C 153.179,636.435 162.179,638.602 170.5,643.5C 164.469,648.517 157.802,652.517 150.5,655.5 Z" /></g>
    <g><path style="opacity:1" fill="#434342" d="M 182.5,643.5 C 219.357,643.969 256.024,645.303 292.5,647.5C 290.961,655.195 289.294,662.862 287.5,670.5C 286.662,670.842 286.328,671.508 286.5,672.5C 253.842,671.298 221.175,670.298 188.5,669.5C 191.559,663.72 192.225,657.72 190.5,651.5C 190.703,649.61 190.037,648.11 188.5,647C 185.761,645.85 183.761,644.683 182.5,643.5 Z" /></g>
    <g><path style="opacity:1" fill="#4f4e4e" d="M 184.5,656.5 C 182.142,658.129 179.476,659.295 176.5,660C 168.597,661.762 160.597,662.762 152.5,663C 145.388,665.48 138.388,668.147 131.5,671C 148.068,673.584 164.401,672.584 180.5,668C 186.085,665.868 187.751,662.034 185.5,656.5C 185.56,655.957 185.893,655.624 186.5,655.5C 187.524,656.853 188.857,657.52 190.5,657.5C 190.5,655.5 190.5,653.5 190.5,651.5C 192.225,657.72 191.559,663.72 188.5,669.5C 188.5,679.5 188.5,689.5 188.5,699.5C 187.5,699.5 186.5,699.5 185.5,699.5C 185.629,689.479 185.296,679.479 184.5,669.5C 164.394,674.784 144.06,675.784 123.5,672.5C 123.398,692.176 122.898,711.842 122,731.5C 121.617,730.944 121.117,730.611 120.5,730.5C 120.5,728.167 120.5,725.833 120.5,723.5C 120.913,706.449 120.246,689.449 118.5,672.5C 116.479,671.145 114.812,669.479 113.5,667.5C 112.602,662.043 113.936,657.376 117.5,653.5C 117.833,654.5 118.5,655.167 119.5,655.5C 117.35,658.472 116.35,661.805 116.5,665.5C 128.623,664.792 139.956,661.459 150.5,655.5C 151.601,656.598 152.934,656.765 154.5,656C 160.187,652.661 165.854,649.661 171.5,647C 167.341,650.247 163.008,653.247 158.5,656C 160.5,656.667 162.5,656.667 164.5,656C 169.322,653.328 173.989,650.495 178.5,647.5C 181.211,648.014 183.711,649.014 186,650.5C 186.561,653.298 185.394,655.131 182.5,656C 183.094,656.464 183.761,656.631 184.5,656.5 Z" /></g>
    <g><path style="opacity:1" fill="#6e6d6d" d="M 860.5,654.5 C 859.273,689.827 858.273,725.16 857.5,760.5C 853.681,762.128 849.681,763.461 845.5,764.5C 846.6,727.491 847.934,690.491 849.5,653.5C 853.366,652.203 857.033,652.537 860.5,654.5 Z" /></g>
    <g><path style="opacity:1" fill="#565555" d="M 860.5,654.5 C 863.179,654.673 865.513,655.673 867.5,657.5C 874.436,655.601 880.936,656.601 887,660.5C 893.943,659.045 900.276,660.379 906,664.5C 912.977,661.694 919.477,662.694 925.5,667.5C 936.61,666.903 947.61,668.069 958.5,671C 966.835,673.501 971.835,679.001 973.5,687.5C 973.5,688.5 973.5,689.5 973.5,690.5C 973.167,690.5 972.833,690.5 972.5,690.5C 972.5,690.167 972.5,689.833 972.5,689.5C 970.445,677.781 963.445,671.781 951.5,671.5C 933.024,676.665 918.524,687.331 908,703.5C 897.203,722.021 891.703,742.021 891.5,763.5C 880.303,761.1 868.97,760.1 857.5,760.5C 858.273,725.16 859.273,689.827 860.5,654.5 Z M 951.5,671.5 C 963.445,671.781 970.445,677.781 972.5,689.5C 968.241,684.704 962.908,682.037 956.5,681.5C 955.081,680.549 953.415,680.216 951.5,680.5C 951.5,677.5 951.5,674.5 951.5,671.5 Z" /></g>
    <g><path style="opacity:1" fill="#414140" d="M 184.5,656.5 C 184.833,656.5 185.167,656.5 185.5,656.5C 187.751,662.034 186.085,665.868 180.5,668C 164.401,672.584 148.068,673.584 131.5,671C 138.388,668.147 145.388,665.48 152.5,663C 160.597,662.762 168.597,661.762 176.5,660C 179.476,659.295 182.142,658.129 184.5,656.5 Z" /></g>
    <g><path style="opacity:1" fill="#3f2710" d="M 770.5,653.5 C 771.167,653.5 771.833,653.5 772.5,653.5C 772.83,670.342 772.497,687.008 771.5,703.5C 771.5,699.5 771.5,695.5 771.5,691.5C 771.5,681.833 771.5,672.167 771.5,662.5C 771.736,659.391 771.403,656.391 770.5,653.5 Z" /></g>
    <g><path style="opacity:1" fill="#2d2c2c" d="M 799.5,779.5 C 799.167,779.5 798.833,779.5 798.5,779.5C 798.011,737.748 798.511,696.081 800,654.5C 799.517,696.111 799.35,737.778 799.5,779.5 Z" /></g>
    <g><path style="opacity:0.995" fill="#3c3c3b" d="M 34.5,664.5 C 60.8718,665.279 87.2051,666.279 113.5,667.5C 114.812,669.479 116.479,671.145 118.5,672.5C 120.246,689.449 120.913,706.449 120.5,723.5C 119.596,722.791 119.263,721.791 119.5,720.5C 119.5,716.5 119.5,712.5 119.5,708.5C 119.5,702.833 119.5,697.167 119.5,691.5C 92.5173,690.355 65.5173,689.355 38.5,688.5C 36.9516,680.543 35.6183,672.543 34.5,664.5 Z" /></g>
    <g><path style="opacity:1" fill="#683c10" d="M 551.5,670.5 C 552.646,672.475 554.313,673.975 556.5,675C 576.573,682.135 596.906,688.469 617.5,694C 639.103,699.784 661.103,702.784 683.5,703C 690.274,703.821 696.94,705.155 703.5,707C 711.555,707.822 719.555,707.488 727.5,706C 742.289,701.459 756.956,696.626 771.5,691.5C 771.5,695.5 771.5,699.5 771.5,703.5C 771.5,705.833 771.5,708.167 771.5,710.5C 754.957,715.903 738.291,720.903 721.5,725.5C 719.833,725.5 718.167,725.5 716.5,725.5C 691.555,724.065 666.888,720.565 642.5,715C 613.748,708.896 585.415,701.396 557.5,692.5C 555.418,692.528 553.584,691.861 552,690.5C 550.851,687.607 550.351,684.607 550.5,681.5C 551.244,677.881 551.577,674.215 551.5,670.5 Z" /></g>
    <g><path style="opacity:1" fill="#663d15" d="M 813.5,667.5 C 814.458,667.953 815.292,668.619 816,669.5C 817.653,675.792 817.819,682.126 816.5,688.5C 815.583,689.127 814.583,689.461 813.5,689.5C 813.5,682.167 813.5,674.833 813.5,667.5 Z" /></g>
    <g><path style="opacity:1" fill="#3c3c3b" d="M 188.5,669.5 C 221.175,670.298 253.842,671.298 286.5,672.5C 285.07,680.428 284.403,688.428 284.5,696.5C 252.853,695.117 221.186,694.117 189.5,693.5C 189.5,699.167 189.5,704.833 189.5,710.5C 189.5,714.5 189.5,718.5 189.5,722.5C 188.534,727.997 188.534,733.33 189.5,738.5C 190.038,740.117 190.371,741.784 190.5,743.5C 188.473,743.662 186.473,743.495 184.5,743C 185.641,737.532 185.475,732.032 184,726.5C 183.667,730.5 183.333,734.5 183,738.5C 182.257,740.645 181.424,740.811 180.5,739C 180.805,723.54 180.805,708.04 180.5,692.5C 178.833,692.5 177.167,692.5 175.5,692.5C 175.667,709.503 175.5,726.503 175,743.5C 174.174,745.405 173.007,745.739 171.5,744.5C 171.808,743.692 172.308,743.025 173,742.5C 173.499,737.511 173.666,732.511 173.5,727.5C 173.288,714.163 172.954,700.83 172.5,687.5C 169.5,687.5 166.5,687.5 163.5,687.5C 163.822,693.358 163.489,699.025 162.5,704.5C 162.817,695.915 162.483,687.415 161.5,679C 158.819,678.542 156.319,677.709 154,676.5C 152.393,676.769 151.226,677.603 150.5,679C 144.161,679.348 137.827,679.182 131.5,678.5C 131.5,677.167 131.5,675.833 131.5,674.5C 129.5,674.5 127.5,674.5 125.5,674.5C 124.047,688.009 124.38,701.342 126.5,714.5C 126.219,721.712 126.552,728.878 127.5,736C 126.576,737.811 125.743,737.645 125,735.5C 124.667,726.5 124.333,717.5 124,708.5C 123.333,718.5 123.333,728.5 124,738.5C 125.546,739.503 125.713,740.503 124.5,741.5C 123.833,741.167 123.167,740.833 122.5,740.5C 121.487,741.659 121.153,743.659 121.5,746.5C 120.5,746.5 119.5,746.5 118.5,746.5C 118.5,743.167 118.5,739.833 118.5,736.5C 120.074,734.898 120.741,732.898 120.5,730.5C 121.117,730.611 121.617,730.944 122,731.5C 122.898,711.842 123.398,692.176 123.5,672.5C 144.06,675.784 164.394,674.784 184.5,669.5C 185.296,679.479 185.629,689.479 185.5,699.5C 186.5,699.5 187.5,699.5 188.5,699.5C 188.5,689.5 188.5,679.5 188.5,669.5 Z" /></g>
    <g><path style="opacity:1" fill="#66a54f" d="M 287.5,670.5 C 287.5,672.167 287.5,673.833 287.5,675.5C 319.02,676.17 350.354,677.504 381.5,679.5C 375.277,687.59 369.277,695.923 363.5,704.5C 365.188,705.521 366.521,706.855 367.5,708.5C 366.551,709.152 365.385,709.486 364,709.5C 337.839,708.389 311.672,707.389 285.5,706.5C 284.949,703.193 284.616,699.86 284.5,696.5C 284.403,688.428 285.07,680.428 286.5,672.5C 286.328,671.508 286.662,670.842 287.5,670.5 Z" /></g>
    <g><path style="opacity:1" fill="#66a54f" d="M 388.5,678.5 C 438.998,680.116 489.498,681.783 540,683.5C 543.762,683.415 547.262,682.748 550.5,681.5C 550.351,684.607 550.851,687.607 552,690.5C 553.584,691.861 555.418,692.528 557.5,692.5C 560.276,699.936 561.943,707.603 562.5,715.5C 524.507,714.106 486.507,712.773 448.5,711.5C 448.703,709.956 449.37,708.622 450.5,707.5C 450.167,707.167 449.833,706.833 449.5,706.5C 446.28,708.479 442.947,709.145 439.5,708.5C 436.548,702.094 433.215,695.927 429.5,690C 415.953,685.366 402.287,681.533 388.5,678.5 Z" /></g>
    <g><path style="opacity:0.998" fill="#24241e" d="M 951.5,671.5 C 951.5,674.5 951.5,677.5 951.5,680.5C 953.415,680.216 955.081,680.549 956.5,681.5C 951.088,681.603 946.088,683.103 941.5,686C 926.096,701.308 916.93,719.808 914,741.5C 912.947,749.802 912.447,758.135 912.5,766.5C 905.379,766.069 898.379,765.069 891.5,763.5C 891.703,742.021 897.203,722.021 908,703.5C 918.524,687.331 933.024,676.665 951.5,671.5 Z" /></g>
    <g><path style="opacity:1" fill="#4a4949" d="M 162.5,704.5 C 162.666,713.839 162.5,723.173 162,732.5C 161.633,715.159 161.133,697.826 160.5,680.5C 156.897,681.303 153.897,683.137 151.5,686C 149.19,686.497 146.857,686.663 144.5,686.5C 144.5,694.167 144.5,701.833 144.5,709.5C 144.5,714.5 144.5,719.5 144.5,724.5C 143.406,712.007 142.573,699.34 142,686.5C 138.951,685.39 135.784,684.723 132.5,684.5C 132.167,732.5 131.833,732.5 131.5,684.5C 129.089,684.863 127.589,683.863 127,681.5C 126.5,690.494 126.334,699.494 126.5,708.5C 126.5,710.5 126.5,712.5 126.5,714.5C 124.38,701.342 124.047,688.009 125.5,674.5C 127.5,674.5 129.5,674.5 131.5,674.5C 131.5,675.833 131.5,677.167 131.5,678.5C 137.827,679.182 144.161,679.348 150.5,679C 151.226,677.603 152.393,676.769 154,676.5C 156.319,677.709 158.819,678.542 161.5,679C 162.483,687.415 162.817,695.915 162.5,704.5 Z" /></g>
    <g><path style="opacity:0.994" fill="#5c5448" d="M 956.5,681.5 C 962.908,682.037 968.241,684.704 972.5,689.5C 972.5,689.833 972.5,690.167 972.5,690.5C 972.5,691.167 972.833,691.5 973.5,691.5C 973.828,703.345 973.495,715.012 972.5,726.5C 971.875,719.126 969.375,712.459 965,706.5C 961.136,702.372 956.636,701.039 951.5,702.5C 946.622,704.539 942.788,707.873 940,712.5C 936.066,719.364 933.566,726.697 932.5,734.5C 931.566,735.568 931.232,736.901 931.5,738.5C 929.736,748.704 929.07,759.037 929.5,769.5C 923.54,769.452 917.873,768.452 912.5,766.5C 912.447,758.135 912.947,749.802 914,741.5C 916.93,719.808 926.096,701.308 941.5,686C 946.088,683.103 951.088,681.603 956.5,681.5 Z" /></g>
    <g><path style="opacity:1" fill="#643c16" d="M 787.5,656.5 C 788.492,656.328 789.158,656.662 789.5,657.5C 787.529,666.105 786.862,675.105 787.5,684.5C 788.822,684.67 789.989,684.337 791,683.5C 791.5,674.84 791.666,666.173 791.5,657.5C 792.496,671.99 792.829,686.657 792.5,701.5C 790.297,701.604 788.297,702.27 786.5,703.5C 786.17,687.658 786.504,671.991 787.5,656.5 Z" /></g>
    <g><path style="opacity:1" fill="#794a20" d="M 789.5,657.5 C 790.167,657.5 790.833,657.5 791.5,657.5C 791.666,666.173 791.5,674.84 791,683.5C 789.989,684.337 788.822,684.67 787.5,684.5C 786.862,675.105 787.529,666.105 789.5,657.5 Z" /></g>
    <g><path style="opacity:0.994" fill="#343434" d="M 38.5,688.5 C 65.5173,689.355 92.5173,690.355 119.5,691.5C 119.5,697.167 119.5,702.833 119.5,708.5C 93.4983,707.894 67.4983,707.227 41.5,706.5C 40.4998,700.499 39.4998,694.499 38.5,688.5 Z" /></g>
    <g><path style="opacity:1" fill="#97bd81" d="M 388.5,678.5 C 402.287,681.533 415.953,685.366 429.5,690C 433.215,695.927 436.548,702.094 439.5,708.5C 442.947,709.145 446.28,708.479 449.5,706.5C 449.833,706.833 450.167,707.167 450.5,707.5C 449.37,708.622 448.703,709.956 448.5,711.5C 444.677,720.329 440.677,728.996 436.5,737.5C 425.282,732.391 413.949,727.558 402.5,723C 405.544,721.596 408.544,720.096 411.5,718.5C 409.868,714.58 407.868,710.913 405.5,707.5C 400.73,714.054 395.73,720.387 390.5,726.5C 382.84,720.509 375.174,714.509 367.5,708.5C 366.521,706.855 365.188,705.521 363.5,704.5C 369.277,695.923 375.277,687.59 381.5,679.5C 383.717,678.631 386.05,678.298 388.5,678.5 Z" /></g>
    <g><path style="opacity:1" fill="#373736" d="M 144.5,724.5 C 144.334,729.844 144.501,735.177 145,740.5C 145.304,742.441 146.137,744.107 147.5,745.5C 144.849,746.047 143.349,744.714 143,741.5C 142.5,730.839 142.333,720.172 142.5,709.5C 139.5,709.5 136.5,709.5 133.5,709.5C 132.945,720.494 132.945,731.161 133.5,741.5C 132.201,740.91 131.368,739.91 131,738.5C 130.832,728.816 130.332,719.149 129.5,709.5C 128.583,708.873 127.583,708.539 126.5,708.5C 126.334,699.494 126.5,690.494 127,681.5C 127.589,683.863 129.089,684.863 131.5,684.5C 131.833,732.5 132.167,732.5 132.5,684.5C 135.784,684.723 138.951,685.39 142,686.5C 142.573,699.34 143.406,712.007 144.5,724.5 Z" /></g>
    <g><path style="opacity:1" fill="#363635" d="M 162.5,704.5 C 163.489,699.025 163.822,693.358 163.5,687.5C 166.5,687.5 169.5,687.5 172.5,687.5C 172.954,700.83 173.288,714.163 173.5,727.5C 172.511,722.025 172.178,716.358 172.5,710.5C 169.5,710.5 166.5,710.5 163.5,710.5C 163.667,721.505 163.5,732.505 163,743.5C 162.804,745.286 161.971,746.619 160.5,747.5C 160.762,735.173 160.762,722.507 160.5,709.5C 155.167,709.5 149.833,709.5 144.5,709.5C 144.5,701.833 144.5,694.167 144.5,686.5C 146.857,686.663 149.19,686.497 151.5,686C 153.897,683.137 156.897,681.303 160.5,680.5C 161.133,697.826 161.633,715.159 162,732.5C 162.5,723.173 162.666,713.839 162.5,704.5 Z" /></g>
    <g><path style="opacity:1" fill="#343434" d="M 284.5,696.5 C 284.616,699.86 284.949,703.193 285.5,706.5C 286.092,709.127 286.425,711.794 286.5,714.5C 254.222,712.98 221.888,711.647 189.5,710.5C 189.5,704.833 189.5,699.167 189.5,693.5C 221.186,694.117 252.853,695.117 284.5,696.5 Z" /></g>
    <g><path style="opacity:0.998" fill="#7e4f25" d="M 557.5,692.5 C 585.415,701.396 613.748,708.896 642.5,715C 666.888,720.565 691.555,724.065 716.5,725.5C 716.398,804.169 715.898,882.836 715,961.5C 711.356,963.401 707.856,965.401 704.5,967.5C 665.072,957.809 626.406,945.642 588.5,931C 587.333,929.833 586.167,928.667 585,927.5C 584.512,915.95 583.345,904.616 581.5,893.5C 581.804,892.85 582.137,892.183 582.5,891.5C 581.625,884.691 580.625,878.024 579.5,871.5C 579.452,862.257 578.452,853.257 576.5,844.5C 576.497,839.473 576.164,834.473 575.5,829.5C 575.259,824.306 574.593,819.306 573.5,814.5C 572.184,799.653 570.518,784.986 568.5,770.5C 568.247,761.733 567.247,753.066 565.5,744.5C 564.61,734.825 563.61,725.158 562.5,715.5C 561.943,707.603 560.276,699.936 557.5,692.5 Z" /></g>
    <g><path style="opacity:1" fill="#40403f" d="M 973.5,687.5 C 974.833,735.167 974.833,782.833 973.5,830.5C 973.5,826.167 973.5,821.833 973.5,817.5C 973.5,814.167 973.5,810.833 973.5,807.5C 973.5,797.5 973.5,787.5 973.5,777.5C 973.826,768.651 973.493,759.984 972.5,751.5C 973.833,743.167 973.833,734.833 972.5,726.5C 973.495,715.012 973.828,703.345 973.5,691.5C 973.5,691.167 973.5,690.833 973.5,690.5C 973.5,689.5 973.5,688.5 973.5,687.5 Z" /></g>
    <g><path style="opacity:0.997" fill="#925f37" d="M 792.5,701.5 C 792.5,728.167 792.5,754.833 792.5,781.5C 785.753,783.379 779.42,786.046 773.5,789.5C 772.29,789.932 771.29,790.599 770.5,791.5C 765.393,792.551 761.059,794.885 757.5,798.5C 755.636,804.925 755.136,811.592 756,818.5C 758.56,821.006 761.227,823.34 764,825.5C 765.305,835.084 767.638,844.417 771,853.5C 779.874,869.576 786.207,886.576 790,904.5C 790.912,909.464 791.412,914.464 791.5,919.5C 791.917,924.715 790.917,929.549 788.5,934C 770.579,945.462 751.912,955.629 732.5,964.5C 728.751,963.561 724.917,962.561 721,961.5C 720.71,882.833 720.877,804.166 721.5,725.5C 738.291,720.903 754.957,715.903 771.5,710.5C 769.676,717.363 769.176,724.363 770,731.5C 771.765,734.473 774.265,736.64 777.5,738C 780.497,738.755 782.997,737.922 785,735.5C 789.166,728.706 790.499,721.373 789,713.5C 786.836,710.553 786.002,707.219 786.5,703.5C 788.297,702.27 790.297,701.604 792.5,701.5 Z" /></g>
    <g><path style="opacity:1" fill="#131310" d="M 972.5,726.5 C 973.833,734.833 973.833,743.167 972.5,751.5C 971.181,760.123 968.847,768.457 965.5,776.5C 962.311,776.142 959.311,775.475 956.5,774.5C 964.65,755.138 965.483,735.472 959,715.5C 956.993,710.812 954.493,706.479 951.5,702.5C 956.636,701.039 961.136,702.372 965,706.5C 969.375,712.459 971.875,719.126 972.5,726.5 Z" /></g>
    <g><path style="opacity:1" fill="#c0bebd" d="M 951.5,702.5 C 954.493,706.479 956.993,710.812 959,715.5C 965.483,735.472 964.65,755.138 956.5,774.5C 952.342,774.668 948.342,774.002 944.5,772.5C 949.134,765.6 951.801,757.933 952.5,749.5C 952.5,748.833 952.5,748.167 952.5,747.5C 953.98,739.857 953.48,732.19 951,724.5C 949.509,719.674 946.342,717.84 941.5,719C 936.941,724.33 934.108,730.497 933,737.5C 932.517,736.552 932.351,735.552 932.5,734.5C 933.566,726.697 936.066,719.364 940,712.5C 942.788,707.873 946.622,704.539 951.5,702.5 Z" /></g>
    <g><path style="opacity:0.994" fill="#2f2f2e" d="M 41.5,706.5 C 67.4983,707.227 93.4983,707.894 119.5,708.5C 119.5,712.5 119.5,716.5 119.5,720.5C 94.5181,719.399 69.5181,718.399 44.5,717.5C 43.3848,713.954 42.3848,710.288 41.5,706.5 Z" /></g>
    <g><path style="opacity:1" fill="#60a04d" d="M 285.5,706.5 C 311.672,707.389 337.839,708.389 364,709.5C 365.385,709.486 366.551,709.152 367.5,708.5C 375.174,714.509 382.84,720.509 390.5,726.5C 395.73,720.387 400.73,714.054 405.5,707.5C 407.868,710.913 409.868,714.58 411.5,718.5C 408.544,720.096 405.544,721.596 402.5,723C 413.949,727.558 425.282,732.391 436.5,737.5C 440.677,728.996 444.677,720.329 448.5,711.5C 486.507,712.773 524.507,714.106 562.5,715.5C 563.61,725.158 564.61,734.825 565.5,744.5C 528.823,743.833 492.156,742.833 455.5,741.5C 453.784,741.629 452.117,741.962 450.5,742.5C 426.696,740.588 402.696,739.588 378.5,739.5C 375.759,734.199 373.759,728.533 372.5,722.5C 360.888,720.73 349.221,720.23 337.5,721C 340.646,723.312 343.646,725.812 346.5,728.5C 344.057,732.411 341.39,736.078 338.5,739.5C 322.87,737.502 306.87,736.502 290.5,736.5C 289.525,733.689 288.858,730.689 288.5,727.5C 287.575,723.21 286.909,718.876 286.5,714.5C 286.425,711.794 286.092,709.127 285.5,706.5 Z" /></g>
    <g><path style="opacity:1" fill="#2f2f2e" d="M 189.5,710.5 C 221.888,711.647 254.222,712.98 286.5,714.5C 286.909,718.876 287.575,723.21 288.5,727.5C 286.171,725.951 283.504,725.117 280.5,725C 250.17,723.995 219.836,723.162 189.5,722.5C 189.5,718.5 189.5,714.5 189.5,710.5 Z" /></g>
    <g><path style="opacity:1" fill="#442714" d="M 781.5,711.5 C 786.684,711.749 789.018,714.583 788.5,720C 788.005,725.148 786.505,729.982 784,734.5C 782.155,736.35 780.155,736.683 778,735.5C 774.323,726.855 775.489,718.855 781.5,711.5 Z" /></g>
    <g><path style="opacity:1" fill="#a4a0a0" d="M 952.5,747.5 C 952.965,741.623 950.299,737.956 944.5,736.5C 942.647,737.189 941.481,738.522 941,740.5C 940.333,745.167 940.333,749.833 941,754.5C 941.739,755.574 942.739,756.241 944,756.5C 947.619,755.041 950.453,752.707 952.5,749.5C 951.801,757.933 949.134,765.6 944.5,772.5C 940.267,772.461 936.267,771.795 932.5,770.5C 933.873,770.657 935.207,770.49 936.5,770C 934.8,766.709 933.633,763.209 933,759.5C 932.829,752.321 932.329,745.321 931.5,738.5C 931.232,736.901 931.566,735.568 932.5,734.5C 932.351,735.552 932.517,736.552 933,737.5C 934.108,730.497 936.941,724.33 941.5,719C 946.342,717.84 949.509,719.674 951,724.5C 953.48,732.19 953.98,739.857 952.5,747.5 Z" /></g>
    <g><path style="opacity:0.995" fill="#292928" d="M 44.5,717.5 C 69.5181,718.399 94.5181,719.399 119.5,720.5C 119.263,721.791 119.596,722.791 120.5,723.5C 120.5,725.833 120.5,728.167 120.5,730.5C 120.741,732.898 120.074,734.898 118.5,736.5C 94.8465,735.47 71.1799,734.803 47.5,734.5C 46.3398,728.86 45.3398,723.193 44.5,717.5 Z" /></g>
    <g><path style="opacity:0.997" fill="#ad7b48" d="M 716.5,725.5 C 718.167,725.5 719.833,725.5 721.5,725.5C 720.877,804.166 720.71,882.833 721,961.5C 724.917,962.561 728.751,963.561 732.5,964.5C 723.557,968.107 714.224,969.107 704.5,967.5C 707.856,965.401 711.356,963.401 715,961.5C 715.898,882.836 716.398,804.169 716.5,725.5 Z" /></g>
    <g><path style="opacity:1" fill="#292928" d="M 189.5,722.5 C 219.836,723.162 250.17,723.995 280.5,725C 283.504,725.117 286.171,725.951 288.5,727.5C 288.858,730.689 289.525,733.689 290.5,736.5C 290.5,738.167 290.5,739.833 290.5,741.5C 256.833,740.521 223.166,739.521 189.5,738.5C 188.534,733.33 188.534,727.997 189.5,722.5 Z" /></g>
    <g><path style="opacity:1" fill="#433f3d" d="M 952.5,747.5 C 952.5,748.167 952.5,748.833 952.5,749.5C 950.453,752.707 947.619,755.041 944,756.5C 942.739,756.241 941.739,755.574 941,754.5C 940.333,749.833 940.333,745.167 941,740.5C 941.481,738.522 942.647,737.189 944.5,736.5C 950.299,737.956 952.965,741.623 952.5,747.5 Z" /></g>
    <g><path style="opacity:1" fill="#bdbbb9" d="M 931.5,738.5 C 932.329,745.321 932.829,752.321 933,759.5C 933.633,763.209 934.8,766.709 936.5,770C 935.207,770.49 933.873,770.657 932.5,770.5C 931.209,770.737 930.209,770.404 929.5,769.5C 929.07,759.037 929.736,748.704 931.5,738.5 Z" /></g>
    <g><path style="opacity:0.993" fill="#232322" d="M 47.5,734.5 C 71.1799,734.803 94.8465,735.47 118.5,736.5C 118.5,739.833 118.5,743.167 118.5,746.5C 118.491,748.308 118.991,749.975 120,751.5C 122.04,753.37 123.873,755.37 125.5,757.5C 101.173,756.632 76.8398,755.965 52.5,755.5C 50.704,748.644 49.0373,741.644 47.5,734.5 Z" /></g>
    <g><path style="opacity:1" fill="#2a2a29" d="M 190.5,743.5 C 192.007,749.309 191.007,754.643 187.5,759.5C 179.665,763.919 171.165,766.252 162,766.5C 149.2,765.842 137.034,762.842 125.5,757.5C 123.873,755.37 122.04,753.37 120,751.5C 118.991,749.975 118.491,748.308 118.5,746.5C 119.5,746.5 120.5,746.5 121.5,746.5C 121.153,743.659 121.487,741.659 122.5,740.5C 121.278,746.166 122.945,750.666 127.5,754C 144.975,762.325 162.975,763.659 181.5,758C 186.45,755.16 187.784,750.993 185.5,745.5C 174.389,751.73 162.389,753.897 149.5,752C 143.235,751.267 137.235,749.601 131.5,747C 128.734,745.629 126.401,743.796 124.5,741.5C 125.713,740.503 125.546,739.503 124,738.5C 123.333,728.5 123.333,718.5 124,708.5C 124.333,717.5 124.667,726.5 125,735.5C 125.743,737.645 126.576,737.811 127.5,736C 126.552,728.878 126.219,721.712 126.5,714.5C 126.5,712.5 126.5,710.5 126.5,708.5C 127.583,708.539 128.583,708.873 129.5,709.5C 130.332,719.149 130.832,728.816 131,738.5C 131.368,739.91 132.201,740.91 133.5,741.5C 132.945,731.161 132.945,720.494 133.5,709.5C 136.5,709.5 139.5,709.5 142.5,709.5C 142.333,720.172 142.5,730.839 143,741.5C 143.349,744.714 144.849,746.047 147.5,745.5C 146.137,744.107 145.304,742.441 145,740.5C 144.501,735.177 144.334,729.844 144.5,724.5C 144.5,719.5 144.5,714.5 144.5,709.5C 149.833,709.5 155.167,709.5 160.5,709.5C 160.762,722.507 160.762,735.173 160.5,747.5C 161.971,746.619 162.804,745.286 163,743.5C 163.5,732.505 163.667,721.505 163.5,710.5C 166.5,710.5 169.5,710.5 172.5,710.5C 172.178,716.358 172.511,722.025 173.5,727.5C 173.666,732.511 173.499,737.511 173,742.5C 172.308,743.025 171.808,743.692 171.5,744.5C 173.007,745.739 174.174,745.405 175,743.5C 175.5,726.503 175.667,709.503 175.5,692.5C 177.167,692.5 178.833,692.5 180.5,692.5C 180.805,708.04 180.805,723.54 180.5,739C 181.424,740.811 182.257,740.645 183,738.5C 183.333,734.5 183.667,730.5 184,726.5C 185.475,732.032 185.641,737.532 184.5,743C 186.473,743.495 188.473,743.662 190.5,743.5 Z" /></g>
    <g><path style="opacity:1" fill="#696564" d="M 945.5,742.5 C 947.167,742.5 948.833,742.5 950.5,742.5C 950.662,744.527 950.495,746.527 950,748.5C 944.651,749.895 943.151,747.895 945.5,742.5 Z" /></g>
    <g><path style="opacity:1" fill="#232322" d="M 189.5,738.5 C 223.166,739.521 256.833,740.521 290.5,741.5C 292.139,748.316 293.472,755.316 294.5,762.5C 258.834,761.48 223.167,760.48 187.5,759.5C 191.007,754.643 192.007,749.309 190.5,743.5C 190.371,741.784 190.038,740.117 189.5,738.5 Z" /></g>
    <g><path style="opacity:1" fill="#20201f" d="M 122.5,740.5 C 123.167,740.833 123.833,741.167 124.5,741.5C 126.401,743.796 128.734,745.629 131.5,747C 137.235,749.601 143.235,751.267 149.5,752C 162.389,753.897 174.389,751.73 185.5,745.5C 187.784,750.993 186.45,755.16 181.5,758C 162.975,763.659 144.975,762.325 127.5,754C 122.945,750.666 121.278,746.166 122.5,740.5 Z" /></g>
    <g><path style="opacity:1" fill="#595146" d="M 972.5,751.5 C 973.493,759.984 973.826,768.651 973.5,777.5C 970.833,777.167 968.167,776.833 965.5,776.5C 968.847,768.457 971.181,760.123 972.5,751.5 Z" /></g>
    <g><path style="opacity:1" fill="#5a9a4a" d="M 378.5,739.5 C 402.696,739.588 426.696,740.588 450.5,742.5C 442.18,744.717 434.18,747.717 426.5,751.5C 430.818,760.136 435.151,768.802 439.5,777.5C 438.833,777.833 438.167,778.167 437.5,778.5C 434.239,777.289 430.905,776.289 427.5,775.5C 427.638,771.958 427.305,768.292 426.5,764.5C 419.472,771.53 412.138,778.196 404.5,784.5C 401.713,783.523 398.713,783.19 395.5,783.5C 395.821,789.026 395.488,794.36 394.5,799.5C 394.684,788.819 394.85,778.152 395,767.5C 385.795,765.407 376.629,763.074 367.5,760.5C 369.482,757.19 371.815,754.19 374.5,751.5C 377.188,754.022 380.021,756.356 383,758.5C 381.634,752.213 380.134,745.879 378.5,739.5 Z" /></g>
    <g><path style="opacity:0.998" fill="#1b1b1b" d="M 52.5,755.5 C 76.8398,755.965 101.173,756.632 125.5,757.5C 137.034,762.842 149.2,765.842 162,766.5C 171.165,766.252 179.665,763.919 187.5,759.5C 223.167,760.48 258.834,761.48 294.5,762.5C 295.725,768.175 297.058,773.842 298.5,779.5C 218.155,776.914 137.821,774.247 57.5,771.5C 53.6932,766.968 52.0265,761.635 52.5,755.5 Z" /></g>
    <g><path style="opacity:1" fill="#5a9a4a" d="M 455.5,741.5 C 492.156,742.833 528.823,743.833 565.5,744.5C 567.247,753.066 568.247,761.733 568.5,770.5C 568.5,771.833 568.5,773.167 568.5,774.5C 537.487,773.843 506.487,772.843 475.5,771.5C 473.631,771.507 471.964,771.84 470.5,772.5C 465.263,762.358 460.263,752.025 455.5,741.5 Z" /></g>
    <g><path style="opacity:1" fill="#48599c" d="M 857.5,760.5 C 868.97,760.1 880.303,761.1 891.5,763.5C 898.379,765.069 905.379,766.069 912.5,766.5C 917.873,768.452 923.54,769.452 929.5,769.5C 930.209,770.404 931.209,770.737 932.5,770.5C 936.267,771.795 940.267,772.461 944.5,772.5C 948.342,774.002 952.342,774.668 956.5,774.5C 959.311,775.475 962.311,776.142 965.5,776.5C 968.167,776.833 970.833,777.167 973.5,777.5C 973.5,787.5 973.5,797.5 973.5,807.5C 966.759,809.7 960.092,812.2 953.5,815C 952.556,817.719 952.223,820.552 952.5,823.5C 959.533,821.658 966.533,819.658 973.5,817.5C 973.5,821.833 973.5,826.167 973.5,830.5C 973.167,830.5 972.833,830.5 972.5,830.5C 972.657,829.127 972.49,827.793 972,826.5C 964.568,829.398 957.068,832.065 949.5,834.5C 942.718,835.868 936.051,837.202 929.5,838.5C 928.5,838.5 927.5,838.5 926.5,838.5C 922.167,838.5 917.833,838.5 913.5,838.5C 904.649,835.704 895.649,833.37 886.5,831.5C 881.362,831.034 876.362,830.034 871.5,828.5C 840.462,822.659 809.462,816.492 778.5,810C 772.363,808.399 766.363,806.399 760.5,804C 758.393,802.736 757.393,800.903 757.5,798.5C 761.059,794.885 765.393,792.551 770.5,791.5C 770.648,793.934 770.814,796.601 771,799.5C 771.792,801.587 772.959,803.421 774.5,805C 801.417,811.383 828.417,817.383 855.5,823C 857.387,823.78 859.054,823.613 860.5,822.5C 851.743,818.122 842.743,814.289 833.5,811C 823.796,809.497 814.129,809.164 804.5,810C 806.863,807.82 809.53,806.153 812.5,805C 800.197,802.674 788.197,799.341 776.5,795C 775.242,793.259 774.242,791.426 773.5,789.5C 779.42,786.046 785.753,783.379 792.5,781.5C 792.833,781.5 793.167,781.5 793.5,781.5C 795.167,780.833 796.833,780.167 798.5,779.5C 798.833,779.5 799.167,779.5 799.5,779.5C 804.23,777.463 808.897,775.463 813.5,773.5C 824.166,770.5 834.833,767.5 845.5,764.5C 849.681,763.461 853.681,762.128 857.5,760.5 Z" /></g>
    <g><path style="opacity:1" fill="#8db47b" d="M 378.5,739.5 C 380.134,745.879 381.634,752.213 383,758.5C 380.021,756.356 377.188,754.022 374.5,751.5C 371.815,754.19 369.482,757.19 367.5,760.5C 376.629,763.074 385.795,765.407 395,767.5C 394.85,778.152 394.684,788.819 394.5,799.5C 385.527,797.673 376.527,796.007 367.5,794.5C 363.393,793.726 359.893,791.726 357,788.5C 351.272,776.044 345.272,763.711 339,751.5C 337.266,747.543 337.099,743.543 338.5,739.5C 341.39,736.078 344.057,732.411 346.5,728.5C 343.646,725.812 340.646,723.312 337.5,721C 349.221,720.23 360.888,720.73 372.5,722.5C 373.759,728.533 375.759,734.199 378.5,739.5 Z" /></g>
    <g><path style="opacity:1" fill="#8bb27a" d="M 455.5,741.5 C 460.263,752.025 465.263,762.358 470.5,772.5C 470.789,775.649 470.289,778.649 469,781.5C 462.167,791.167 455.333,800.833 448.5,810.5C 446.727,811.087 444.894,811.42 443,811.5C 437.537,810.307 432.037,809.307 426.5,808.5C 426.5,809.833 426.5,811.167 426.5,812.5C 426.66,814.199 426.494,815.866 426,817.5C 425.333,818.833 424.667,818.833 424,817.5C 417.58,807.659 410.913,797.993 404,788.5C 403.421,787.072 403.588,785.738 404.5,784.5C 412.138,778.196 419.472,771.53 426.5,764.5C 427.305,768.292 427.638,771.958 427.5,775.5C 430.905,776.289 434.239,777.289 437.5,778.5C 438.167,778.167 438.833,777.833 439.5,777.5C 435.151,768.802 430.818,760.136 426.5,751.5C 434.18,747.717 442.18,744.717 450.5,742.5C 452.117,741.962 453.784,741.629 455.5,741.5 Z" /></g>
    <g><path style="opacity:0.996" fill="#151515" d="M 57.5,771.5 C 137.821,774.247 218.155,776.914 298.5,779.5C 299.302,783.9 300.302,788.233 301.5,792.5C 301.5,793.167 301.5,793.833 301.5,794.5C 226.512,791.904 151.512,789.571 76.5,787.5C 72.388,785.272 68.388,782.772 64.5,780C 61.5532,777.564 59.2199,774.731 57.5,771.5 Z" /></g>
    <g><path style="opacity:1" fill="#559648" d="M 290.5,736.5 C 306.87,736.502 322.87,737.502 338.5,739.5C 337.099,743.543 337.266,747.543 339,751.5C 345.272,763.711 351.272,776.044 357,788.5C 359.893,791.726 363.393,793.726 367.5,794.5C 345.482,794.249 323.482,793.583 301.5,792.5C 300.302,788.233 299.302,783.9 298.5,779.5C 297.058,773.842 295.725,768.175 294.5,762.5C 293.472,755.316 292.139,748.316 290.5,741.5C 290.5,739.833 290.5,738.167 290.5,736.5 Z" /></g>
    <g><path style="opacity:0.951" fill="#48599c" d="M 994.5,781.5 C 1002.23,781.877 1009.23,784.21 1015.5,788.5C 1008.86,792.655 1001.86,795.989 994.5,798.5C 994.5,792.833 994.5,787.167 994.5,781.5 Z" /></g>
    <g><path style="opacity:0.994" fill="#10100f" d="M 76.5,787.5 C 151.512,789.571 226.512,791.904 301.5,794.5C 302.294,797.802 302.96,801.135 303.5,804.5C 235.515,802.076 167.515,800.076 99.5,798.5C 91.1248,796.144 83.4581,792.478 76.5,787.5 Z" /></g>
    <g><path style="opacity:1" fill="#925f36" d="M 653.5,766.5 C 656.888,770.249 660.055,774.249 663,778.5C 664.153,781.711 664.82,785.044 665,788.5C 666.684,786.649 668.517,784.982 670.5,783.5C 671.5,783.833 672.167,784.5 672.5,785.5C 670.016,788.484 667.35,791.318 664.5,794C 672.601,799.103 679.768,805.27 686,812.5C 688.208,815.554 689.208,818.887 689,822.5C 682.362,816.433 674.529,812.933 665.5,812C 660.35,807.538 654.35,804.871 647.5,804C 646.346,799.858 644.512,796.024 642,792.5C 643.328,796.772 644.828,801.105 646.5,805.5C 653.419,806.46 659.419,809.293 664.5,814C 669.017,814.263 673.351,815.263 677.5,817C 670.933,818.865 665.433,822.365 661,827.5C 659.908,830.044 659.241,832.711 659,835.5C 652.486,840.901 650.82,847.567 654,855.5C 655.455,858.912 657.288,862.079 659.5,865C 651.444,865.137 645.11,861.803 640.5,855C 632.337,852.837 626.67,847.837 623.5,840C 617.771,838.288 613.104,834.955 609.5,830C 615.472,830.406 621.472,830.406 627.5,830C 632.177,826.811 634.344,822.311 634,816.5C 636.148,815.023 637.482,813.023 638,810.5C 639.096,803.392 638.263,796.558 635.5,790C 636.833,790 638.167,790 639.5,790C 637.421,788.36 635.088,787.194 632.5,786.5C 630.588,784.343 628.921,782.009 627.5,779.5C 627.709,778.914 628.043,778.414 628.5,778C 639.6,776.714 648.933,780.214 656.5,788.5C 656.833,788.333 657.167,788.167 657.5,788C 651.418,781.598 650.084,774.432 653.5,766.5 Z" /></g>
    <g><path style="opacity:0.997" fill="#303b87" d="M 1015.5,788.5 C 1015.5,789.5 1015.5,790.5 1015.5,791.5C 1015.06,793.746 1014.4,795.913 1013.5,798C 1007.22,801.262 1000.88,804.428 994.5,807.5C 994.5,806.167 994.5,804.833 994.5,803.5C 994.5,801.833 994.5,800.167 994.5,798.5C 1001.86,795.989 1008.86,792.655 1015.5,788.5 Z" /></g>
    <g><path style="opacity:0.988" fill="#48599c" d="M 1015.5,791.5 C 1020.46,792.376 1025.13,794.043 1029.5,796.5C 1032.06,798.677 1032.06,800.844 1029.5,803C 1018.46,808.845 1007.13,814.011 995.5,818.5C 994.511,814.893 994.177,811.226 994.5,807.5C 1000.88,804.428 1007.22,801.262 1013.5,798C 1014.4,795.913 1015.06,793.746 1015.5,791.5 Z" /></g>
    <g><path style="opacity:1" fill="#509246" d="M 568.5,770.5 C 570.518,784.986 572.184,799.653 573.5,814.5C 568.544,815.828 563.211,816.495 557.5,816.5C 513.832,815.146 470.165,813.812 426.5,812.5C 426.5,811.167 426.5,809.833 426.5,808.5C 432.037,809.307 437.537,810.307 443,811.5C 444.894,811.42 446.727,811.087 448.5,810.5C 455.333,800.833 462.167,791.167 469,781.5C 470.289,778.649 470.789,775.649 470.5,772.5C 471.964,771.84 473.631,771.507 475.5,771.5C 506.487,772.843 537.487,773.843 568.5,774.5C 568.5,773.167 568.5,771.833 568.5,770.5 Z" /></g>
    <g><path style="opacity:0.981" fill="#2f3a86" d="M 1029.5,796.5 C 1031.41,796.574 1032.58,797.574 1033,799.5C 1034.68,806.141 1034.68,812.808 1033,819.5C 1031.33,820.5 1029.67,821.5 1028,822.5C 1026.16,828.383 1024.82,834.383 1024,840.5C 1021.13,886.02 1016.47,931.354 1010,976.5C 1009.13,981.637 1007.8,986.637 1006,991.5C 1002.53,994.484 998.694,996.817 994.5,998.5C 994.056,947.168 993.722,895.834 993.5,844.5C 997.382,836.42 997.382,828.42 993.5,820.5C 993.178,814.642 993.511,808.975 994.5,803.5C 994.5,804.833 994.5,806.167 994.5,807.5C 994.177,811.226 994.511,814.893 995.5,818.5C 1007.13,814.011 1018.46,808.845 1029.5,803C 1032.06,800.844 1032.06,798.677 1029.5,796.5 Z" /></g>
    <g><path style="opacity:0.996" fill="#232944" d="M 757.5,798.5 C 757.393,800.903 758.393,802.736 760.5,804C 766.363,806.399 772.363,808.399 778.5,810C 809.462,816.492 840.462,822.659 871.5,828.5C 871.5,835.833 871.5,843.167 871.5,850.5C 876.863,850.949 882.196,851.616 887.5,852.5C 895.426,854.218 903.426,855.552 911.5,856.5C 912.325,866.457 914.492,876.124 918,885.5C 939.555,926.71 946.889,970.377 940,1016.5C 939.333,1021.18 937.167,1024.85 933.5,1027.5C 888.078,1017.81 843.411,1005.31 799.5,990C 795.234,986.656 794.234,982.49 796.5,977.5C 796.148,957.903 794.481,938.57 791.5,919.5C 791.412,914.464 790.912,909.464 790,904.5C 786.207,886.576 779.874,869.576 771,853.5C 767.638,844.417 765.305,835.084 764,825.5C 761.227,823.34 758.56,821.006 756,818.5C 755.136,811.592 755.636,804.925 757.5,798.5 Z" /></g>
    <g><path style="opacity:0.986" fill="#090908" d="M 99.5,798.5 C 167.515,800.076 235.515,802.076 303.5,804.5C 304.403,807.391 304.736,810.391 304.5,813.5C 285.207,823.487 264.874,830.487 243.5,834.5C 204.203,828.842 165.536,820.342 127.5,809C 117.796,806.159 108.463,802.659 99.5,798.5 Z" /></g>
    <g><path style="opacity:1" fill="#252c49" d="M 773.5,789.5 C 774.242,791.426 775.242,793.259 776.5,795C 788.197,799.341 800.197,802.674 812.5,805C 809.53,806.153 806.863,807.82 804.5,810C 814.129,809.164 823.796,809.497 833.5,811C 842.743,814.289 851.743,818.122 860.5,822.5C 859.054,823.613 857.387,823.78 855.5,823C 828.417,817.383 801.417,811.383 774.5,805C 772.959,803.421 771.792,801.587 771,799.5C 770.814,796.601 770.648,793.934 770.5,791.5C 771.29,790.599 772.29,789.932 773.5,789.5 Z" /></g>
    <g><path style="opacity:1" fill="#374892" d="M 973.5,807.5 C 973.5,810.833 973.5,814.167 973.5,817.5C 966.533,819.658 959.533,821.658 952.5,823.5C 952.223,820.552 952.556,817.719 953.5,815C 960.092,812.2 966.759,809.7 973.5,807.5 Z" /></g>
    <g><path style="opacity:1" fill="#2c3659" d="M 896.5,820.5 C 898.242,823.145 898.909,826.145 898.5,829.5C 897.167,829.5 895.833,829.5 894.5,829.5C 882.77,828.688 871.437,826.354 860.5,822.5C 856.438,818.291 851.772,814.791 846.5,812C 863.049,815.147 879.716,817.981 896.5,820.5 Z" /></g>
    <g><path style="opacity:0.999" fill="#4d8e44" d="M 404.5,784.5 C 403.588,785.738 403.421,787.072 404,788.5C 410.913,797.993 417.58,807.659 424,817.5C 424.667,818.833 425.333,818.833 426,817.5C 426.494,815.866 426.66,814.199 426.5,812.5C 470.165,813.812 513.832,815.146 557.5,816.5C 563.211,816.495 568.544,815.828 573.5,814.5C 574.593,819.306 575.259,824.306 575.5,829.5C 485.837,826.712 396.171,824.046 306.5,821.5C 306.198,818.627 305.531,815.961 304.5,813.5C 304.736,810.391 304.403,807.391 303.5,804.5C 302.96,801.135 302.294,797.802 301.5,794.5C 301.5,793.833 301.5,793.167 301.5,792.5C 323.482,793.583 345.482,794.249 367.5,794.5C 376.527,796.007 385.527,797.673 394.5,799.5C 395.488,794.36 395.821,789.026 395.5,783.5C 398.713,783.19 401.713,783.523 404.5,784.5 Z" /></g>
    <g><path style="opacity:0.998" fill="#498b42" d="M 306.5,821.5 C 396.171,824.046 485.837,826.712 575.5,829.5C 576.164,834.473 576.497,839.473 576.5,844.5C 575.726,845.147 574.726,845.48 573.5,845.5C 485.858,842.23 398.192,839.563 310.5,837.5C 308.16,832.544 306.827,827.211 306.5,821.5 Z" /></g>
    <g><path style="opacity:1" fill="#5074b4" d="M 916.5,832.5 C 916.5,829.5 916.5,826.5 916.5,823.5C 922.445,822.245 928.445,821.245 934.5,820.5C 934.817,823.572 934.484,826.572 933.5,829.5C 928.122,832.006 922.455,833.006 916.5,832.5 Z" /></g>
    <g><path style="opacity:1" fill="#405786" d="M 896.5,820.5 C 903.106,821.872 909.772,822.872 916.5,823.5C 916.5,826.5 916.5,829.5 916.5,832.5C 908.912,832.364 901.578,831.364 894.5,829.5C 895.833,829.5 897.167,829.5 898.5,829.5C 898.909,826.145 898.242,823.145 896.5,820.5 Z" /></g>
    <g><path style="opacity:1" fill="#925f36" d="M 604.5,827.5 C 608.584,831.081 612.584,834.914 616.5,839C 618.842,840.171 621.176,841.338 623.5,842.5C 626.858,850.024 632.525,854.857 640.5,857C 646.477,864.108 654.143,867.775 663.5,868C 661.844,869.829 659.844,871.163 657.5,872C 651.903,873.091 646.57,872.424 641.5,870C 634.333,863.168 626.333,857.501 617.5,853C 609.853,846.206 605.519,837.706 604.5,827.5 Z" /></g>
    <g><path style="opacity:1" fill="#2e3a5d" d="M 871.5,828.5 C 876.362,830.034 881.362,831.034 886.5,831.5C 887.462,838.412 887.795,845.412 887.5,852.5C 882.196,851.616 876.863,850.949 871.5,850.5C 871.5,843.167 871.5,835.833 871.5,828.5 Z" /></g>
    <g><path style="opacity:1" fill="#3c539b" d="M 972.5,830.5 C 972.5,834.833 972.5,839.167 972.5,843.5C 972.586,844.496 972.252,845.329 971.5,846C 969.753,846.352 968.086,846.852 966.5,847.5C 965.833,847.5 965.5,847.833 965.5,848.5C 959.645,849.563 953.979,851.23 948.5,853.5C 949.458,847.256 949.791,840.923 949.5,834.5C 957.068,832.065 964.568,829.398 972,826.5C 972.49,827.793 972.657,829.127 972.5,830.5 Z" /></g>
    <g><path style="opacity:1" fill="#3a4d77" d="M 886.5,831.5 C 895.649,833.37 904.649,835.704 913.5,838.5C 913.5,844.5 913.5,850.5 913.5,856.5C 912.833,856.5 912.167,856.5 911.5,856.5C 903.426,855.552 895.426,854.218 887.5,852.5C 887.795,845.412 887.462,838.412 886.5,831.5 Z" /></g>
    <g><path style="opacity:1" fill="#4866ab" d="M 949.5,834.5 C 949.791,840.923 949.458,847.256 948.5,853.5C 944.214,854.707 939.88,855.707 935.5,856.5C 935.5,850.5 935.5,844.5 935.5,838.5C 933.5,838.5 931.5,838.5 929.5,838.5C 936.051,837.202 942.718,835.868 949.5,834.5 Z" /></g>
    <g><path style="opacity:1" fill="#49494b" d="M 993.5,820.5 C 997.382,828.42 997.382,836.42 993.5,844.5C 992.197,846.142 990.864,847.809 989.5,849.5C 986.656,851.538 983.656,851.871 980.5,850.5C 977.072,843.84 976.572,836.84 979,829.5C 979.667,781.833 979.667,734.167 979,686.5C 977.959,682.074 976.959,677.741 976,673.5C 977.927,676.948 979.261,680.615 980,684.5C 980.333,731.5 980.667,778.5 981,825.5C 982.833,823.667 984.667,821.833 986.5,820C 988.885,819.444 991.218,819.61 993.5,820.5 Z" /></g>
    <g><path style="opacity:1" fill="#020202" d="M 987.5,821.5 C 992.691,822.629 995.024,825.963 994.5,831.5C 994.32,836.907 992.82,841.907 990,846.5C 986.066,850.84 982.733,850.507 980,845.5C 977.633,835.775 980.133,827.775 987.5,821.5 Z" /></g>
    <g><path style="opacity:1" fill="#4b6aa1" d="M 913.5,838.5 C 917.833,838.5 922.167,838.5 926.5,838.5C 925.791,839.404 924.791,839.737 923.5,839.5C 923.5,845.833 923.5,852.167 923.5,858.5C 921.167,858.5 918.833,858.5 916.5,858.5C 915.71,857.599 914.71,856.932 913.5,856.5C 913.5,850.5 913.5,844.5 913.5,838.5 Z" /></g>
    <g><path style="opacity:1" fill="#547ab9" d="M 926.5,838.5 C 927.5,838.5 928.5,838.5 929.5,838.5C 931.5,838.5 933.5,838.5 935.5,838.5C 935.5,844.5 935.5,850.5 935.5,856.5C 931.817,858.25 927.817,858.917 923.5,858.5C 923.5,852.167 923.5,845.833 923.5,839.5C 924.791,839.737 925.791,839.404 926.5,838.5 Z" /></g>
    <g><path style="opacity:0.997" fill="#438640" d="M 310.5,837.5 C 398.192,839.563 485.858,842.23 573.5,845.5C 574.726,845.48 575.726,845.147 576.5,844.5C 578.452,853.257 579.452,862.257 579.5,871.5C 498.83,869.288 418.163,866.954 337.5,864.5C 325.444,858.444 316.444,849.444 310.5,837.5 Z" /></g>
    <g><path style="opacity:0.999" fill="#232946" d="M 993.5,844.5 C 993.722,895.834 994.056,947.168 994.5,998.5C 993.167,998.5 991.833,998.5 990.5,998.5C 990.777,964.153 990.444,929.819 989.5,895.5C 989.5,885.833 989.5,876.167 989.5,866.5C 989.5,860.833 989.5,855.167 989.5,849.5C 990.864,847.809 992.197,846.142 993.5,844.5 Z" /></g>
    <g><path style="opacity:0.996" fill="#2f3986" d="M 965.5,848.5 C 965.325,864.182 965.658,879.849 966.5,895.5C 974.167,895.5 981.833,895.5 989.5,895.5C 990.444,929.819 990.777,964.153 990.5,998.5C 983.351,1002.58 976.018,1006.41 968.5,1010C 967.91,1011.51 967.244,1013.01 966.5,1014.5C 959.6,1018.12 952.6,1021.45 945.5,1024.5C 944.06,1023.05 943.393,1021.22 943.5,1019C 949.285,983.45 946.451,948.617 935,914.5C 930,903.167 925,891.833 920,880.5C 918.5,873.833 917,867.167 915.5,860.5C 915.543,859.584 915.876,858.917 916.5,858.5C 918.833,858.5 921.167,858.5 923.5,858.5C 927.817,858.917 931.817,858.25 935.5,856.5C 939.88,855.707 944.214,854.707 948.5,853.5C 953.979,851.23 959.645,849.563 965.5,848.5 Z" /></g>
    <g><path style="opacity:0.997" fill="#3e4d85" d="M 911.5,856.5 C 912.167,856.5 912.833,856.5 913.5,856.5C 914.71,856.932 915.71,857.599 916.5,858.5C 915.876,858.917 915.543,859.584 915.5,860.5C 917,867.167 918.5,873.833 920,880.5C 925,891.833 930,903.167 935,914.5C 946.451,948.617 949.285,983.45 943.5,1019C 943.393,1021.22 944.06,1023.05 945.5,1024.5C 941.982,1026.97 937.982,1027.97 933.5,1027.5C 937.167,1024.85 939.333,1021.18 940,1016.5C 946.889,970.377 939.555,926.71 918,885.5C 914.492,876.124 912.325,866.457 911.5,856.5 Z" /></g>
    <g><path style="opacity:1" fill="#2a3161" d="M 972.5,843.5 C 973.932,847.267 976.599,849.6 980.5,850.5C 983.656,851.871 986.656,851.538 989.5,849.5C 989.5,855.167 989.5,860.833 989.5,866.5C 981.833,866.5 974.167,866.5 966.5,866.5C 966.5,860.167 966.5,853.833 966.5,847.5C 968.086,846.852 969.753,846.352 971.5,846C 972.252,845.329 972.586,844.496 972.5,843.5 Z" /></g>
    <g><path style="opacity:0.986" fill="#3c7f3d" d="M 337.5,864.5 C 418.163,866.954 498.83,869.288 579.5,871.5C 580.625,878.024 581.625,884.691 582.5,891.5C 582.137,892.183 581.804,892.85 581.5,893.5C 564,901.777 545.667,907.444 526.5,910.5C 487.907,905.512 449.574,899.012 411.5,891C 395.264,887.144 379.264,882.477 363.5,877C 354.376,873.604 345.71,869.437 337.5,864.5 Z" /></g>
    <g><path style="opacity:1" fill="#32334f" d="M 885.5,877.5 C 893.429,877.294 898.763,880.794 901.5,888C 896.068,897.688 890.234,907.188 884,916.5C 884.305,922.912 882.972,928.912 880,934.5C 870.546,946.956 860.712,959.123 850.5,971C 837.62,973.475 828.453,968.641 823,956.5C 822.238,951 823.572,946 827,941.5C 835.067,929.43 843.901,917.93 853.5,907C 856.993,905.209 860.659,903.876 864.5,903C 872.467,895.208 879.467,886.708 885.5,877.5 Z" /></g>
    <g><path style="opacity:1" fill="#2d3677" d="M 966.5,847.5 C 966.5,853.833 966.5,860.167 966.5,866.5C 974.167,866.5 981.833,866.5 989.5,866.5C 989.5,876.167 989.5,885.833 989.5,895.5C 981.833,895.5 974.167,895.5 966.5,895.5C 965.658,879.849 965.325,864.182 965.5,848.5C 965.5,847.833 965.833,847.5 966.5,847.5 Z" /></g>
    <g><path style="opacity:1" fill="#232944" d="M 846.5,921.5 C 850.289,925.791 854.289,929.958 858.5,934C 862.495,936.496 866.828,938.162 871.5,939C 865.167,946.667 858.833,954.333 852.5,962C 841.264,961.281 833.931,955.448 830.5,944.5C 835.824,936.84 841.157,929.173 846.5,921.5 Z" /></g>
</svg>