<?xml version="1.0" encoding="UTF-8"?>
<!DOCTYPE svg PUBLIC "-//W3C//DTD SVG 1.1//EN" "http://www.w3.org/Graphics/SVG/1.1/DTD/svg11.dtd">
<svg xmlns="http://www.w3.org/2000/svg" version="1.1" width="861px" height="835px" style="shape-rendering:geometricPrecision; text-rendering:geometricPrecision; image-rendering:optimizeQuality; fill-rule:evenodd; clip-rule:evenodd" xmlns:xlink="http://www.w3.org/1999/xlink">
<g><path style="opacity:0.801" fill="#f7f7f7" d="M 476.5,69.5 C 463.167,67.5 449.833,65.5 436.5,63.5C 442.803,61.8889 449.303,60.5555 456,59.5C 463.219,62.1935 470.052,65.5268 476.5,69.5 Z"/></g>
<g><path style="opacity:0.994" fill="#707073" d="M 436.5,63.5 C 449.833,65.5 463.167,67.5 476.5,69.5C 477.496,69.4142 478.329,69.7476 479,70.5C 481.953,78.1073 480.453,84.4406 474.5,89.5C 473.167,89.8333 471.833,90.1667 470.5,90.5C 456.851,88.8532 443.184,87.6865 429.5,87C 425.531,90.5612 423.698,95.0612 424,100.5C 422.509,109.197 424.176,117.197 429,124.5C 432.516,129.281 436.016,129.448 439.5,125C 445.287,122.241 451.287,121.908 457.5,124C 459.305,124.972 460.972,126.139 462.5,127.5C 464.352,125.781 465.686,123.781 466.5,121.5C 466.5,123.833 466.5,126.167 466.5,128.5C 464.721,132.595 463.388,136.928 462.5,141.5C 460.384,145.954 457.051,148.954 452.5,150.5C 451.5,150.5 450.5,150.5 449.5,150.5C 433.534,151.528 422.867,144.528 417.5,129.5C 416.702,129.957 416.369,130.624 416.5,131.5C 411.891,124.594 409.225,116.927 408.5,108.5C 408.353,97.6798 409.519,87.0131 412,76.5C 415.088,73.6319 417.921,70.6319 420.5,67.5C 422.819,67.0075 424.819,66.0075 426.5,64.5C 429.625,63.5206 432.958,63.1872 436.5,63.5 Z"/></g>
<g><path style="opacity:0.165" fill="#eceded" d="M 426.5,64.5 C 424.819,66.0075 422.819,67.0075 420.5,67.5C 421.687,65.0246 423.687,64.0246 426.5,64.5 Z"/></g>
<g><path style="opacity:0.923" fill="#fefbf9" d="M 614.5,82.5 C 614.631,81.6236 614.298,80.9569 613.5,80.5C 611.517,81.982 609.684,83.6487 608,85.5C 605.157,90.5188 601.824,95.1855 598,99.5C 600.158,90.8914 602.658,82.2247 605.5,73.5C 605.333,72.8333 605.167,72.1667 605,71.5C 604,72.5 603,73.5 602,74.5C 598.667,81.8333 595.333,89.1667 592,96.5C 592.845,89.1062 594.345,81.7729 596.5,74.5C 596.253,73.2867 595.586,72.62 594.5,72.5C 596.811,70.9318 599.478,70.0984 602.5,70C 613.193,68.513 617.193,72.6796 614.5,82.5 Z"/></g>
<g><path style="opacity:0.999" fill="#f2ccb2" d="M 614.5,82.5 C 611.977,89.2108 608.644,95.5441 604.5,101.5C 604.667,101.833 604.833,102.167 605,102.5C 608.387,99.4465 612.053,96.7798 616,94.5C 616.667,96.1667 616.667,97.8333 616,99.5C 612.333,104.5 608,108.833 603,112.5C 599,118.5 595,124.5 591,130.5C 589.991,132.025 589.491,133.692 589.5,135.5C 590.791,135.263 591.791,135.596 592.5,136.5C 585.362,135.455 578.362,133.788 571.5,131.5C 570.818,132.243 570.151,132.909 569.5,133.5C 569.5,132.5 569.5,131.5 569.5,130.5C 571.467,130.261 573.301,130.594 575,131.5C 575.198,127.404 574.531,123.404 573,119.5C 573.764,110.475 571.764,102.142 567,94.5C 566.389,90.9124 567.889,89.7458 571.5,91C 575.187,94.2102 578.021,98.0435 580,102.5C 581,101.5 582,100.5 583,99.5C 586.066,91.6366 588.732,83.6366 591,75.5C 591.422,73.5743 592.589,72.5743 594.5,72.5C 595.586,72.62 596.253,73.2867 596.5,74.5C 594.345,81.7729 592.845,89.1062 592,96.5C 595.333,89.1667 598.667,81.8333 602,74.5C 603,73.5 604,72.5 605,71.5C 605.167,72.1667 605.333,72.8333 605.5,73.5C 602.658,82.2247 600.158,90.8914 598,99.5C 601.824,95.1855 605.157,90.5188 608,85.5C 609.684,83.6487 611.517,81.982 613.5,80.5C 614.298,80.9569 614.631,81.6236 614.5,82.5 Z"/></g>
<g><path style="opacity:1" fill="#f0c6a8" d="M 470.5,90.5 C 468.878,100.754 467.545,111.087 466.5,121.5C 465.686,123.781 464.352,125.781 462.5,127.5C 460.972,126.139 459.305,124.972 457.5,124C 451.287,121.908 445.287,122.241 439.5,125C 436.016,129.448 432.516,129.281 429,124.5C 424.176,117.197 422.509,109.197 424,100.5C 423.698,95.0612 425.531,90.5612 429.5,87C 443.184,87.6865 456.851,88.8532 470.5,90.5 Z"/></g>
<g><path style="opacity:0.051" fill="#f7eee8" d="M 474.5,89.5 C 472.588,90.9801 471.421,92.9801 471,95.5C 469.712,106.676 468.212,117.676 466.5,128.5C 466.5,126.167 466.5,123.833 466.5,121.5C 467.545,111.087 468.878,100.754 470.5,90.5C 471.833,90.1667 473.167,89.8333 474.5,89.5 Z"/></g>
<g><path style="opacity:1" fill="#eec4a7" d="M 412.5,98.5 C 415.864,97.8728 417.864,99.2061 418.5,102.5C 417.398,107.111 416.731,111.778 416.5,116.5C 413.405,116.374 411.572,114.707 411,111.5C 409.978,106.871 410.478,102.538 412.5,98.5 Z"/></g>
<g><path style="opacity:0.902" fill="#f8f9fa" d="M 408.5,108.5 C 409.225,116.927 411.891,124.594 416.5,131.5C 416.5,132.833 416.5,134.167 416.5,135.5C 413.069,146.323 415.736,155.323 424.5,162.5C 421.833,165.5 419.167,168.5 416.5,171.5C 415.207,172.645 414.041,172.311 413,170.5C 410.023,165.887 408.19,160.887 407.5,155.5C 395.272,159.631 382.938,163.465 370.5,167C 363.498,169.669 357.998,174.169 354,180.5C 351.383,191.754 349.216,203.087 347.5,214.5C 343.007,212.421 338.674,210.088 334.5,207.5C 333.455,203.744 331.622,200.411 329,197.5C 327.511,195.668 325.678,194.835 323.5,195C 314.832,205.498 307.165,216.664 300.5,228.5C 298.619,226.07 297.285,223.404 296.5,220.5C 295.872,217.91 294.705,215.577 293,213.5C 290.815,214.928 288.815,216.595 287,218.5C 284.184,229.447 280.684,240.113 276.5,250.5C 279.158,235.873 281.491,221.206 283.5,206.5C 286.806,208.489 290.139,210.489 293.5,212.5C 298.821,208.172 304.488,204.338 310.5,201C 314.159,198.185 316.826,194.685 318.5,190.5C 316.957,185.873 315.624,181.207 314.5,176.5C 321.739,161.366 320.905,146.699 312,132.5C 304.368,124.963 295.201,122.13 284.5,124C 278.374,126.81 272.041,127.31 265.5,125.5C 265.611,124.883 265.944,124.383 266.5,124C 276.876,122.452 286.542,119.119 295.5,114C 297.833,113.333 300.167,113.333 302.5,114C 306.576,122.309 312.409,129.142 320,134.5C 320.667,135.833 321.333,137.167 322,138.5C 322.881,155.825 323.548,173.158 324,190.5C 326.833,192.667 329.667,194.833 332.5,197C 339.64,199.29 344.807,197.123 348,190.5C 350.135,184.234 352.801,178.234 356,172.5C 358.739,169.882 361.573,167.382 364.5,165C 374.649,161.587 384.983,158.92 395.5,157C 403.673,152.315 407.673,145.315 407.5,136C 407.381,130.022 406.381,124.189 404.5,118.5C 405.272,114.833 406.605,111.499 408.5,108.5 Z"/></g>
<g><path style="opacity:0.999" fill="#2c2c2a" d="M 314.5,176.5 C 313.861,175.903 313.528,175.07 313.5,174C 316.14,168.432 316.974,162.599 316,156.5C 311.217,153.117 308.384,154.284 307.5,160C 315.17,183.496 307.17,198.663 283.5,205.5C 279.13,203.772 276.463,200.439 275.5,195.5C 277.722,194.312 280.055,193.312 282.5,192.5C 283.386,191.675 283.719,190.675 283.5,189.5C 280.123,189.959 276.789,190.626 273.5,191.5C 272.85,189.565 272.517,187.565 272.5,185.5C 278.977,184.314 285.477,184.314 292,185.5C 298.125,186.044 302.125,183.377 304,177.5C 304.789,171.763 304.456,166.097 303,160.5C 301.878,158.376 300.378,156.543 298.5,155C 293.669,152.837 288.835,150.67 284,148.5C 282.373,148.625 280.873,149.125 279.5,150C 274.5,153.667 269.5,157.333 264.5,161C 263.663,162.011 263.33,163.178 263.5,164.5C 256.849,160.181 252.515,154.181 250.5,146.5C 250.5,145.5 250.5,144.5 250.5,143.5C 250.629,136.238 253.629,130.571 259.5,126.5C 261.565,126.483 263.565,126.15 265.5,125.5C 272.041,127.31 278.374,126.81 284.5,124C 295.201,122.13 304.368,124.963 312,132.5C 320.905,146.699 321.739,161.366 314.5,176.5 Z"/></g>
<g><path style="opacity:0.765" fill="#f8f8f8" d="M 259.5,126.5 C 253.629,130.571 250.629,136.238 250.5,143.5C 248.304,138.403 247.971,133.069 249.5,127.5C 252.807,126.949 256.14,126.616 259.5,126.5 Z"/></g>
<g><path style="opacity:0.047" fill="#d5d6d7" d="M 466.5,128.5 C 466.231,133.264 464.898,137.597 462.5,141.5C 463.388,136.928 464.721,132.595 466.5,128.5 Z"/></g>
<g><path style="opacity:0.983" fill="#243f4c" d="M 592.5,136.5 C 591.707,140.88 590.707,145.214 589.5,149.5C 581.124,145.89 572.457,144.89 563.5,146.5C 564.441,144.95 565.107,143.284 565.5,141.5C 567.891,139.385 569.224,136.719 569.5,133.5C 570.151,132.909 570.818,132.243 571.5,131.5C 578.362,133.788 585.362,135.455 592.5,136.5 Z"/></g>
<g><path style="opacity:1" fill="#e4bda3" d="M 443.5,131.5 C 448.181,131.669 452.848,132.002 457.5,132.5C 457.67,133.822 457.337,134.989 456.5,136C 453.167,136.667 449.833,136.667 446.5,136C 444.859,134.871 443.859,133.371 443.5,131.5 Z"/></g>
<g><path style="opacity:1" fill="#d5b097" d="M 449.5,150.5 C 449.5,151.167 449.5,151.833 449.5,152.5C 436.873,156.288 426.373,152.955 418,142.5C 416.798,140.323 416.298,137.989 416.5,135.5C 416.5,134.167 416.5,132.833 416.5,131.5C 416.369,130.624 416.702,129.957 417.5,129.5C 422.867,144.528 433.534,151.528 449.5,150.5 Z"/></g>
<g><path style="opacity:1" fill="#f1c7a9" d="M 416.5,135.5 C 416.298,137.989 416.798,140.323 418,142.5C 426.373,152.955 436.873,156.288 449.5,152.5C 448.913,157.354 446.58,161.021 442.5,163.5C 439.607,169.061 437.941,175.061 437.5,181.5C 435.833,181.5 434.167,181.5 432.5,181.5C 430.627,174.764 427.961,168.43 424.5,162.5C 415.736,155.323 413.069,146.323 416.5,135.5 Z"/></g>
<g><path style="opacity:0.775" fill="#f6f6f6" d="M 565.5,141.5 C 565.107,143.284 564.441,144.95 563.5,146.5C 554.721,148.141 547.554,152.474 542,159.5C 538.91,163.739 536.077,168.072 533.5,172.5C 532.427,171.749 532.26,170.749 533,169.5C 538.197,161.646 543.364,153.813 548.5,146C 554.192,144.498 559.859,142.998 565.5,141.5 Z"/></g>
<g><path style="opacity:0.998" fill="#2b2014" d="M 589.5,149.5 C 593.982,150.663 597.816,152.996 601,156.5C 603.832,160.664 605.999,165.164 607.5,170C 607.138,171.225 606.638,172.391 606,173.5C 605.667,182.833 605.333,192.167 605,201.5C 602.127,212.62 596.294,221.62 587.5,228.5C 586.609,229.11 585.609,229.443 584.5,229.5C 582.167,229.5 579.833,229.5 577.5,229.5C 577.5,226.833 577.5,224.167 577.5,221.5C 585.042,221.814 590.209,218.481 593,211.5C 596.228,198.17 596.228,184.836 593,171.5C 592.586,171.043 592.086,170.709 591.5,170.5C 581.186,176.03 570.186,178.363 558.5,177.5C 557.051,182.016 556.218,186.683 556,191.5C 552.718,194.082 551.718,197.416 553,201.5C 555.719,203.219 557.719,205.553 559,208.5C 561.436,219.99 560.936,231.323 557.5,242.5C 555.92,252.904 556.253,263.238 558.5,273.5C 558.167,273.833 557.833,274.167 557.5,274.5C 554.961,273.069 552.628,271.403 550.5,269.5C 548.5,267.167 546.5,264.833 544.5,262.5C 539.197,255.563 535.197,247.896 532.5,239.5C 532.5,238.833 532.167,238.5 531.5,238.5C 531.737,237.209 531.404,236.209 530.5,235.5C 529.781,233.236 529.448,230.903 529.5,228.5C 528.167,214.5 528.167,200.5 529.5,186.5C 529.905,181.544 531.238,176.877 533.5,172.5C 536.077,168.072 538.91,163.739 542,159.5C 547.554,152.474 554.721,148.141 563.5,146.5C 572.457,144.89 581.124,145.89 589.5,149.5 Z"/></g>
<g><path style="opacity:0.901" fill="#fafaf9" d="M 250.5,146.5 C 252.515,154.181 256.849,160.181 263.5,164.5C 266.255,171.67 269.255,178.67 272.5,185.5C 272.517,187.565 272.85,189.565 273.5,191.5C 273.66,193.153 274.326,194.486 275.5,195.5C 276.463,200.439 279.13,203.772 283.5,205.5C 283.5,205.833 283.5,206.167 283.5,206.5C 278.989,207.931 274.655,209.598 270.5,211.5C 265.299,213.567 259.965,215.234 254.5,216.5C 260.353,213.16 265.52,208.827 270,203.5C 270.667,201.167 270.667,198.833 270,196.5C 261.768,184.495 255.434,171.495 251,157.5C 250.501,153.848 250.335,150.182 250.5,146.5 Z"/></g>
<g><path style="opacity:1" fill="#995839" d="M 272.5,185.5 C 269.255,178.67 266.255,171.67 263.5,164.5C 263.33,163.178 263.663,162.011 264.5,161C 269.5,157.333 274.5,153.667 279.5,150C 280.873,149.125 282.373,148.625 284,148.5C 288.835,150.67 293.669,152.837 298.5,155C 300.378,156.543 301.878,158.376 303,160.5C 304.456,166.097 304.789,171.763 304,177.5C 302.125,183.377 298.125,186.044 292,185.5C 285.477,184.314 278.977,184.314 272.5,185.5 Z"/></g>
<g><path style="opacity:0.971" fill="#f6f7f9" d="M 449.5,150.5 C 450.5,150.5 451.5,150.5 452.5,150.5C 455.167,152.833 457.833,155.167 460.5,157.5C 460.167,157.5 459.833,157.5 459.5,157.5C 457.368,163.264 455.201,169.264 453,175.5C 451.624,174.295 450.458,172.962 449.5,171.5C 447.167,168.833 444.833,166.167 442.5,163.5C 446.58,161.021 448.913,157.354 449.5,152.5C 449.5,151.833 449.5,151.167 449.5,150.5 Z"/></g>
<g><path style="opacity:1" fill="#985a3b" d="M 314.5,176.5 C 315.624,181.207 316.957,185.873 318.5,190.5C 316.826,194.685 314.159,198.185 310.5,201C 304.488,204.338 298.821,208.172 293.5,212.5C 290.139,210.489 286.806,208.489 283.5,206.5C 283.5,206.167 283.5,205.833 283.5,205.5C 307.17,198.663 315.17,183.496 307.5,160C 308.384,154.284 311.217,153.117 316,156.5C 316.974,162.599 316.14,168.432 313.5,174C 313.528,175.07 313.861,175.903 314.5,176.5 Z"/></g>
<g><path style="opacity:1" fill="#1e3a48" d="M 416.5,171.5 C 419.297,173.795 421.964,176.295 424.5,179C 435.674,185.216 444.008,182.716 449.5,171.5C 450.458,172.962 451.624,174.295 453,175.5C 455.201,169.264 457.368,163.264 459.5,157.5C 466.803,160.936 474.47,163.602 482.5,165.5C 485.146,167.253 488.146,168.253 491.5,168.5C 498.872,172.186 506.205,175.853 513.5,179.5C 517.416,182.29 521.749,184.29 526.5,185.5C 527.609,185.557 528.609,185.89 529.5,186.5C 528.167,200.5 528.167,214.5 529.5,228.5C 526.305,226.796 522.971,225.463 519.5,224.5C 514.122,222.407 508.455,221.073 502.5,220.5C 501.167,220.167 499.833,219.833 498.5,219.5C 496.677,225.61 495.343,231.943 494.5,238.5C 486.493,238.334 478.493,238.5 470.5,239C 467.814,241.546 466.814,244.713 467.5,248.5C 464.615,248.194 461.948,248.527 459.5,249.5C 449.912,252.302 440.578,255.636 431.5,259.5C 431.907,265.161 432.24,270.828 432.5,276.5C 411.224,278.652 389.891,279.652 368.5,279.5C 368.768,281.099 368.434,282.432 367.5,283.5C 369.213,267.874 369.713,252.207 369,236.5C 368.058,233.007 366.725,229.674 365,226.5C 363.362,224.266 361.195,222.933 358.5,222.5C 354.833,219.833 351.167,217.167 347.5,214.5C 349.216,203.087 351.383,191.754 354,180.5C 357.998,174.169 363.498,169.669 370.5,167C 382.938,163.465 395.272,159.631 407.5,155.5C 408.19,160.887 410.023,165.887 413,170.5C 414.041,172.311 415.207,172.645 416.5,171.5 Z"/></g>
<g><path style="opacity:0.008" fill="#bec6ca" d="M 459.5,157.5 C 459.833,157.5 460.167,157.5 460.5,157.5C 468.126,159.595 475.459,162.262 482.5,165.5C 474.47,163.602 466.803,160.936 459.5,157.5 Z"/></g>
<g><path style="opacity:1" fill="#d2dade" d="M 424.5,162.5 C 427.961,168.43 430.627,174.764 432.5,181.5C 434.167,181.5 435.833,181.5 437.5,181.5C 437.941,175.061 439.607,169.061 442.5,163.5C 444.833,166.167 447.167,168.833 449.5,171.5C 444.008,182.716 435.674,185.216 424.5,179C 421.964,176.295 419.297,173.795 416.5,171.5C 419.167,168.5 421.833,165.5 424.5,162.5 Z"/></g>
<g><path style="opacity:0.486" fill="#8f9da4" d="M 482.5,165.5 C 485.854,165.747 488.854,166.747 491.5,168.5C 488.146,168.253 485.146,167.253 482.5,165.5 Z"/></g>
<g><path style="opacity:1" fill="#985838" d="M 584.5,229.5 C 586.916,236.513 588.916,243.68 590.5,251C 590.779,254.721 589.112,257.055 585.5,258C 572.491,259.331 563.157,254.165 557.5,242.5C 560.936,231.323 561.436,219.99 559,208.5C 557.719,205.553 555.719,203.219 553,201.5C 551.718,197.416 552.718,194.082 556,191.5C 556.218,186.683 557.051,182.016 558.5,177.5C 570.186,178.363 581.186,176.03 591.5,170.5C 592.086,170.709 592.586,171.043 593,171.5C 596.228,184.836 596.228,198.17 593,211.5C 590.209,218.481 585.042,221.814 577.5,221.5C 577.5,224.167 577.5,226.833 577.5,229.5C 579.833,229.5 582.167,229.5 584.5,229.5 Z"/></g>
<g><path style="opacity:0.125" fill="#c4cbcf" d="M 513.5,179.5 C 518.251,180.71 522.584,182.71 526.5,185.5C 521.749,184.29 517.416,182.29 513.5,179.5 Z"/></g>
<g><path style="opacity:1" fill="#94593c" d="M 275.5,195.5 C 274.326,194.486 273.66,193.153 273.5,191.5C 276.789,190.626 280.123,189.959 283.5,189.5C 283.719,190.675 283.386,191.675 282.5,192.5C 280.055,193.312 277.722,194.312 275.5,195.5 Z"/></g>
<g><path style="opacity:1" fill="#515d7a" d="M 334.5,207.5 C 332.865,211.508 331.531,215.842 330.5,220.5C 326.841,221.101 323.174,221.767 319.5,222.5C 321.051,224.884 322.385,227.384 323.5,230C 313.406,243.984 302.239,257.151 290,269.5C 287.239,273.36 284.739,277.36 282.5,281.5C 279.563,280.528 276.897,279.195 274.5,277.5C 275.376,277.631 276.043,277.298 276.5,276.5C 281.588,265.325 286.922,254.325 292.5,243.5C 295.405,238.693 298.072,233.693 300.5,228.5C 307.165,216.664 314.832,205.498 323.5,195C 325.678,194.835 327.511,195.668 329,197.5C 331.622,200.411 333.455,203.744 334.5,207.5 Z"/></g>
<g><path style="opacity:1" fill="#515d7a" d="M 283.5,206.5 C 281.491,221.206 279.158,235.873 276.5,250.5C 274.198,258.887 272.865,267.553 272.5,276.5C 268.289,274.902 264.622,272.568 261.5,269.5C 261.167,254.485 261.501,239.485 262.5,224.5C 265.167,222.833 267.833,221.167 270.5,219.5C 267.47,216.052 268.137,213.552 272.5,212C 271.906,211.536 271.239,211.369 270.5,211.5C 274.655,209.598 278.989,207.931 283.5,206.5 Z"/></g>
<g><path style="opacity:1" fill="#3b4866" d="M 334.5,207.5 C 338.674,210.088 343.007,212.421 347.5,214.5C 351.167,217.167 354.833,219.833 358.5,222.5C 353.84,222.748 350.007,224.748 347,228.5C 343.555,233.055 340.888,238.055 339,243.5C 334.104,260.48 331.604,277.814 331.5,295.5C 316.151,291.163 300.818,286.83 285.5,282.5C 284.391,282.443 283.391,282.11 282.5,281.5C 284.739,277.36 287.239,273.36 290,269.5C 302.239,257.151 313.406,243.984 323.5,230C 322.385,227.384 321.051,224.884 319.5,222.5C 323.174,221.767 326.841,221.101 330.5,220.5C 331.531,215.842 332.865,211.508 334.5,207.5 Z"/></g>
<g><path style="opacity:1" fill="#394665" d="M 270.5,211.5 C 271.239,211.369 271.906,211.536 272.5,212C 268.137,213.552 267.47,216.052 270.5,219.5C 267.833,221.167 265.167,222.833 262.5,224.5C 261.501,239.485 261.167,254.485 261.5,269.5C 259.545,268.677 257.545,268.51 255.5,269C 249.114,272.193 242.78,275.36 236.5,278.5C 238.764,263.531 240.931,248.531 243,233.5C 243.841,228.155 246.008,223.488 249.5,219.5C 250.899,218.11 252.566,217.11 254.5,216.5C 259.965,215.234 265.299,213.567 270.5,211.5 Z"/></g>
<g><path style="opacity:0.529" fill="#d8bdb0" d="M 681.5,215.5 C 681.649,214.448 681.483,213.448 681,212.5C 680.292,213.381 679.458,214.047 678.5,214.5C 678.694,212.088 680.027,211.088 682.5,211.5C 682.768,213.099 682.434,214.432 681.5,215.5 Z"/></g>
<g><path style="opacity:0.991" fill="#a76c4f" d="M 681.5,215.5 C 680.782,217.137 680.616,218.803 681,220.5C 682.833,218 684.667,215.5 686.5,213C 687.448,212.517 688.448,212.351 689.5,212.5C 688.081,217.596 685.748,222.263 682.5,226.5C 682.667,226.833 682.833,227.167 683,227.5C 685.727,224.269 688.894,221.603 692.5,219.5C 693.568,221.187 693.401,222.854 692,224.5C 689.618,227.427 687.118,230.261 684.5,233C 687.423,232.224 690.423,231.391 693.5,230.5C 691.365,235.116 687.698,238.283 682.5,240C 678.701,244.801 674.534,249.301 670,253.5C 664.98,264.212 659.48,274.546 653.5,284.5C 652.883,284.611 652.383,284.944 652,285.5C 648.651,281.984 645.151,278.651 641.5,275.5C 640.055,277.394 638.388,279.06 636.5,280.5C 642.941,269.211 650.774,258.877 660,249.5C 660.311,243.814 660.811,238.147 661.5,232.5C 660.238,228.901 659.738,225.234 660,221.5C 661,220.167 662,220.167 663,221.5C 664.504,224.509 666.004,227.509 667.5,230.5C 671.67,225.485 675.337,220.152 678.5,214.5C 679.458,214.047 680.292,213.381 681,212.5C 681.483,213.448 681.649,214.448 681.5,215.5 Z"/></g>
<g><path style="opacity:1" fill="#25a8df" d="M 296.5,220.5 C 296.213,222.121 295.213,223.121 293.5,223.5C 292.503,230.134 292.17,236.8 292.5,243.5C 286.922,254.325 281.588,265.325 276.5,276.5C 276.043,277.298 275.376,277.631 274.5,277.5C 273.833,277.167 273.167,276.833 272.5,276.5C 272.865,267.553 274.198,258.887 276.5,250.5C 280.684,240.113 284.184,229.447 287,218.5C 288.815,216.595 290.815,214.928 293,213.5C 294.705,215.577 295.872,217.91 296.5,220.5 Z"/></g>
<g><path style="opacity:0.804" fill="#a0acb2" d="M 502.5,220.5 C 508.455,221.073 514.122,222.407 519.5,224.5C 513.545,223.927 507.878,222.593 502.5,220.5 Z"/></g>
<g><path style="opacity:0.98" fill="#fdfdfd" d="M 249.5,219.5 C 246.008,223.488 243.841,228.155 243,233.5C 240.931,248.531 238.764,263.531 236.5,278.5C 234.645,279.69 232.812,281.023 231,282.5C 230.517,283.448 230.351,284.448 230.5,285.5C 231.833,285.5 233.167,285.5 234.5,285.5C 231.18,290.676 227.18,295.509 222.5,300C 227.167,303 231.833,306 236.5,309C 235.619,309.708 234.953,310.542 234.5,311.5C 233.298,312.405 231.964,312.405 230.5,311.5C 227.648,309.924 224.648,308.424 221.5,307C 220.833,305.667 220.167,304.333 219.5,303C 217.203,302.982 214.869,303.149 212.5,303.5C 213.252,297.562 211.252,296.229 206.5,299.5C 205.77,297.659 205.103,295.825 204.5,294C 201.741,293.023 199.741,293.856 198.5,296.5C 197.28,295.289 196.113,295.289 195,296.5C 194.236,292.901 192.07,290.901 188.5,290.5C 189.765,304.394 197.099,313.06 210.5,316.5C 210.232,318.099 210.566,319.432 211.5,320.5C 212.434,327.335 215.434,333.002 220.5,337.5C 225.254,334.913 229.587,331.746 233.5,328C 240.005,325.583 246.005,322.417 251.5,318.5C 251.846,327.792 250.846,337.126 248.5,346.5C 247.178,346.33 246.011,346.663 245,347.5C 243.872,352.139 242.872,356.805 242,361.5C 239.667,365.167 237.333,368.833 235,372.5C 235.463,378.486 235.796,384.486 236,390.5C 230.949,412.815 226.116,435.148 221.5,457.5C 216.646,455.703 211.646,454.369 206.5,453.5C 196.184,444.285 194.684,433.618 202,421.5C 202.56,415.672 203.06,409.838 203.5,404C 203.496,401.639 203.163,399.473 202.5,397.5C 202.066,392.332 201.4,387.332 200.5,382.5C 198.237,378.897 195.57,375.564 192.5,372.5C 196.182,372.665 199.848,372.499 203.5,372C 205.235,369.808 206.402,367.308 207,364.5C 207.667,354.833 207.667,345.167 207,335.5C 204.688,331.42 201.188,328.92 196.5,328C 195.333,326.833 194.167,325.667 193,324.5C 187.507,313.51 181.507,302.843 175,292.5C 174.333,290.5 174.333,288.5 175,286.5C 179.755,283.872 184.588,281.372 189.5,279C 194.769,277.894 200.103,277.227 205.5,277C 211.167,274 216.833,271 222.5,268C 225.869,265.635 228.036,262.468 229,258.5C 231.094,251.275 232.76,243.942 234,236.5C 236.249,228.088 241.416,222.421 249.5,219.5 Z"/></g>
<g><path style="opacity:1" fill="#daecf7" d="M 296.5,220.5 C 297.285,223.404 298.619,226.07 300.5,228.5C 298.072,233.693 295.405,238.693 292.5,243.5C 292.17,236.8 292.503,230.134 293.5,223.5C 295.213,223.121 296.213,222.121 296.5,220.5 Z"/></g>
<g><path style="opacity:1" fill="#515d7a" d="M 358.5,222.5 C 361.195,222.933 363.362,224.266 365,226.5C 366.725,229.674 368.058,233.007 369,236.5C 369.713,252.207 369.213,267.874 367.5,283.5C 367.5,284.833 367.5,286.167 367.5,287.5C 367.5,288.167 367.5,288.833 367.5,289.5C 367.498,298.858 366.998,308.191 366,317.5C 366.414,327.755 361.581,333.922 351.5,336C 347.395,336.48 343.395,335.98 339.5,334.5C 338.702,334.957 338.369,335.624 338.5,336.5C 337.596,335.791 337.263,334.791 337.5,333.5C 318.142,329.328 298.809,324.828 279.5,320C 278.572,319.612 277.905,318.945 277.5,318C 278.687,315.276 279.353,312.443 279.5,309.5C 281.888,301.462 284.222,293.295 286.5,285C 286.257,284.098 285.923,283.265 285.5,282.5C 300.818,286.83 316.151,291.163 331.5,295.5C 331.604,277.814 334.104,260.48 339,243.5C 340.888,238.055 343.555,233.055 347,228.5C 350.007,224.748 353.84,222.748 358.5,222.5 Z"/></g>
<g><path style="opacity:1" fill="#ebddd6" d="M 679.5,220.5 C 679.5,221.167 679.833,221.5 680.5,221.5C 679.25,223.932 677.75,226.266 676,228.5C 676.329,225.505 677.496,222.838 679.5,220.5 Z"/></g>
<g><path style="opacity:1" fill="#f4ece9" d="M 681.5,227.5 C 681.5,228.167 681.833,228.5 682.5,228.5C 681.878,229.627 681.045,230.627 680,231.5C 679.652,229.86 680.152,228.527 681.5,227.5 Z"/></g>
<g><path style="opacity:0.997" fill="#f4ebad" d="M 587.5,228.5 C 592.061,230.538 596.727,232.705 601.5,235C 603.333,236.833 605.167,238.667 607,240.5C 613.99,256.635 620.49,272.968 626.5,289.5C 627.002,290.521 627.668,290.688 628.5,290C 631.031,286.642 633.698,283.476 636.5,280.5C 638.388,279.06 640.055,277.394 641.5,275.5C 645.151,278.651 648.651,281.984 652,285.5C 652.383,284.944 652.883,284.611 653.5,284.5C 654.963,286.598 654.796,288.598 653,290.5C 647.667,298.5 642.333,306.5 637,314.5C 630.399,322.512 622.899,323.512 614.5,317.5C 610.468,311.298 606.635,304.965 603,298.5C 601.438,300.957 600.438,303.624 600,306.5C 599.833,312.667 599.667,318.833 599.5,325C 600.361,343.496 601.194,361.996 602,380.5C 602.708,381.381 603.542,382.047 604.5,382.5C 606.292,391.595 607.958,400.595 609.5,409.5C 608.392,418.119 608.225,426.785 609,435.5C 610.277,442.827 611.443,450.16 612.5,457.5C 611.508,457.328 610.842,457.662 610.5,458.5C 601.481,459.643 592.481,460.643 583.5,461.5C 580.918,461.025 578.918,461.692 577.5,463.5C 572.595,462.555 567.595,462.221 562.5,462.5C 562.737,463.791 562.404,464.791 561.5,465.5C 561.5,464.5 561.5,463.5 561.5,462.5C 550.921,461.903 540.255,460.903 529.5,459.5C 526.921,459.917 524.754,459.25 523,457.5C 521.278,446.185 520.778,434.851 521.5,423.5C 533.662,428.767 545.829,428.767 558,423.5C 560.105,419.417 561.438,415.083 562,410.5C 562.825,399.992 562.659,389.658 561.5,379.5C 562.303,378.577 562.47,377.577 562,376.5C 559.92,374.877 557.754,373.377 555.5,372C 558.423,372.193 561.256,373.026 564,374.5C 565.257,374.15 565.591,373.483 565,372.5C 563.348,371.601 561.848,370.601 560.5,369.5C 558.222,336.055 554.889,302.721 550.5,269.5C 552.628,271.403 554.961,273.069 557.5,274.5C 557.833,274.167 558.167,273.833 558.5,273.5C 556.253,263.238 555.92,252.904 557.5,242.5C 563.157,254.165 572.491,259.331 585.5,258C 589.112,257.055 590.779,254.721 590.5,251C 588.916,243.68 586.916,236.513 584.5,229.5C 585.609,229.443 586.609,229.11 587.5,228.5 Z"/></g>
<g><path style="opacity:1" fill="#e3e7e9" d="M 377.5,232.5 C 378.492,240.316 378.826,248.316 378.5,256.5C 377.167,256.5 375.833,256.5 374.5,256.5C 375.189,248.426 376.189,240.426 377.5,232.5 Z"/></g>
<g><path style="opacity:0.407" fill="#bfc1c2" d="M 498.5,219.5 C 498.602,225.32 497.602,231.153 495.5,237C 501.333,237.167 507.167,237.333 513,237.5C 519.207,237.496 525.04,236.829 530.5,235.5C 531.404,236.209 531.737,237.209 531.5,238.5C 519.167,238.5 506.833,238.5 494.5,238.5C 495.343,231.943 496.677,225.61 498.5,219.5 Z"/></g>
<g><path style="opacity:1" fill="#595857" d="M 494.5,238.5 C 506.833,238.5 519.167,238.5 531.5,238.5C 532.167,238.5 532.5,238.833 532.5,239.5C 525.05,242.114 519.217,246.78 515,253.5C 511.179,264.85 507.679,276.183 504.5,287.5C 497.167,287.5 489.833,287.5 482.5,287.5C 475.833,287.5 469.167,287.5 462.5,287.5C 461.883,287.389 461.383,287.056 461,286.5C 460.502,283.518 460.335,280.518 460.5,277.5C 455.637,277.819 450.97,277.486 446.5,276.5C 457.82,277.354 468.82,275.854 479.5,272C 484.749,270.014 487.415,266.181 487.5,260.5C 490.187,260.664 492.854,260.497 495.5,260C 496.833,258.333 496.833,256.667 495.5,255C 485.85,254.123 476.183,253.623 466.5,253.5C 466.5,252.167 466.5,250.833 466.5,249.5C 464.167,249.5 461.833,249.5 459.5,249.5C 461.948,248.527 464.615,248.194 467.5,248.5C 466.814,244.713 467.814,241.546 470.5,239C 478.493,238.5 486.493,238.334 494.5,238.5 Z"/></g>
<g><path style="opacity:1" fill="#f3eaac" d="M 532.5,239.5 C 535.197,247.896 539.197,255.563 544.5,262.5C 543.848,263.449 543.514,264.615 543.5,266C 547.789,295.684 550.123,325.517 550.5,355.5C 547.15,355.665 543.817,355.498 540.5,355C 536.307,351.635 532.307,348.135 528.5,344.5C 534.957,332.358 537.124,319.358 535,305.5C 533.333,300.167 531.667,294.833 530,289.5C 523.577,302.013 517.41,314.68 511.5,327.5C 515.256,331.247 518.59,335.247 521.5,339.5C 518.484,342.52 515.817,345.854 513.5,349.5C 512.211,350.501 510.878,350.334 509.5,349C 503.612,344.446 498.446,339.279 494,333.5C 493.333,330.5 493.333,327.5 494,324.5C 497.811,312.236 501.311,299.902 504.5,287.5C 507.679,276.183 511.179,264.85 515,253.5C 519.217,246.78 525.05,242.114 532.5,239.5 Z"/></g>
<g><path style="opacity:1" fill="#eec4a7" d="M 459.5,249.5 C 461.833,249.5 464.167,249.5 466.5,249.5C 466.5,250.833 466.5,252.167 466.5,253.5C 476.183,253.623 485.85,254.123 495.5,255C 496.833,256.667 496.833,258.333 495.5,260C 492.854,260.497 490.187,260.664 487.5,260.5C 487.415,266.181 484.749,270.014 479.5,272C 468.82,275.854 457.82,277.354 446.5,276.5C 441.833,275.167 437.167,275.167 432.5,276.5C 432.24,270.828 431.907,265.161 431.5,259.5C 440.578,255.636 449.912,252.302 459.5,249.5 Z"/></g>
<g><path style="opacity:1" fill="#9aa6ab" d="M 374.5,256.5 C 375.833,256.5 377.167,256.5 378.5,256.5C 378.826,248.316 378.492,240.316 377.5,232.5C 377.281,231.325 377.614,230.325 378.5,229.5C 379.498,238.81 379.832,248.143 379.5,257.5C 377.585,257.784 375.919,257.451 374.5,256.5 Z"/></g>
<g><path style="opacity:1" fill="#fdfdfb" d="M 544.5,262.5 C 546.5,264.833 548.5,267.167 550.5,269.5C 554.889,302.721 558.222,336.055 560.5,369.5C 554.263,367.063 550.929,362.396 550.5,355.5C 550.123,325.517 547.789,295.684 543.5,266C 543.514,264.615 543.848,263.449 544.5,262.5 Z"/></g>
<g><path style="opacity:1" fill="#98593a" d="M 261.5,269.5 C 264.622,272.568 268.289,274.902 272.5,276.5C 273.167,276.833 273.833,277.167 274.5,277.5C 276.897,279.195 279.563,280.528 282.5,281.5C 280.454,286.906 278.454,292.239 276.5,297.5C 276.167,297.5 275.833,297.5 275.5,297.5C 271.487,297.205 267.654,296.205 264,294.5C 263.235,294.57 262.735,294.903 262.5,295.5C 260.598,296.511 258.598,296.678 256.5,296C 254.595,294.579 252.595,293.412 250.5,292.5C 248.974,291.895 247.974,290.729 247.5,289C 245.866,288.506 244.199,288.34 242.5,288.5C 242.549,285.901 243.549,283.734 245.5,282C 241.673,282.441 238.007,283.608 234.5,285.5C 233.167,285.5 231.833,285.5 230.5,285.5C 230.351,284.448 230.517,283.448 231,282.5C 232.812,281.023 234.645,279.69 236.5,278.5C 242.78,275.36 249.114,272.193 255.5,269C 257.545,268.51 259.545,268.677 261.5,269.5 Z"/></g>
<g><path style="opacity:1" fill="#1a333f" d="M 446.5,276.5 C 450.97,277.486 455.637,277.819 460.5,277.5C 460.335,280.518 460.502,283.518 461,286.5C 461.383,287.056 461.883,287.389 462.5,287.5C 460.636,288.793 458.636,288.793 456.5,287.5C 455.127,285.51 454.127,283.343 453.5,281C 427.668,280.491 403.501,286.658 381,299.5C 380.51,298.207 380.343,296.873 380.5,295.5C 380.5,292.5 380.5,289.5 380.5,286.5C 376.158,286.739 371.824,287.073 367.5,287.5C 367.5,286.167 367.5,284.833 367.5,283.5C 368.434,282.432 368.768,281.099 368.5,279.5C 389.891,279.652 411.224,278.652 432.5,276.5C 437.167,275.167 441.833,275.167 446.5,276.5 Z"/></g>
<g><path style="opacity:1" fill="#1d3a48" d="M 462.5,287.5 C 469.167,287.5 475.833,287.5 482.5,287.5C 484.361,304.448 485.361,321.448 485.5,338.5C 485.5,345.167 485.5,351.833 485.5,358.5C 448.833,358.5 412.167,358.5 375.5,358.5C 375.5,356.167 375.5,353.833 375.5,351.5C 375.951,341.171 376.284,330.838 376.5,320.5C 376.856,311.951 377.856,303.618 379.5,295.5C 379.833,295.5 380.167,295.5 380.5,295.5C 380.343,296.873 380.51,298.207 381,299.5C 403.501,286.658 427.668,280.491 453.5,281C 454.127,283.343 455.127,285.51 456.5,287.5C 458.636,288.793 460.636,288.793 462.5,287.5 Z"/></g>
<g><path style="opacity:1" fill="#8a573c" d="M 188.5,281.5 C 192.155,281.472 194.822,283.139 196.5,286.5C 196.167,286.833 195.833,287.167 195.5,287.5C 193.615,286.391 191.615,285.557 189.5,285C 188.663,283.989 188.33,282.822 188.5,281.5 Z"/></g>
<g><path style="opacity:1" fill="#2a385a" d="M 250.5,292.5 C 252.656,301.123 252.989,309.79 251.5,318.5C 246.005,322.417 240.005,325.583 233.5,328C 229.587,331.746 225.254,334.913 220.5,337.5C 215.434,333.002 212.434,327.335 211.5,320.5C 211.369,319.761 211.536,319.094 212,318.5C 212.278,319.416 212.778,320.082 213.5,320.5C 219.795,328.388 226.295,328.388 233,320.5C 234.289,317.649 234.789,314.649 234.5,311.5C 234.953,310.542 235.619,309.708 236.5,309C 231.833,306 227.167,303 222.5,300C 227.18,295.509 231.18,290.676 234.5,285.5C 238.007,283.608 241.673,282.441 245.5,282C 243.549,283.734 242.549,285.901 242.5,288.5C 244.199,288.34 245.866,288.506 247.5,289C 247.974,290.729 248.974,291.895 250.5,292.5 Z"/></g>
<g><path style="opacity:1" fill="#e0e9f1" d="M 282.5,281.5 C 283.391,282.11 284.391,282.443 285.5,282.5C 285.923,283.265 286.257,284.098 286.5,285C 284.222,293.295 281.888,301.462 279.5,309.5C 275.477,306.416 274.477,302.416 276.5,297.5C 278.454,292.239 280.454,286.906 282.5,281.5 Z"/></g>
<g><path style="opacity:0.282" fill="#bcc3c7" d="M 380.5,295.5 C 380.167,295.5 379.833,295.5 379.5,295.5C 379.5,292.833 379.5,290.167 379.5,287.5C 375.439,288.006 371.439,288.673 367.5,289.5C 367.5,288.833 367.5,288.167 367.5,287.5C 371.824,287.073 376.158,286.739 380.5,286.5C 380.5,289.5 380.5,292.5 380.5,295.5 Z"/></g>
<g><path style="opacity:0.996" fill="#fefefe" d="M 482.5,287.5 C 489.833,287.5 497.167,287.5 504.5,287.5C 501.311,299.902 497.811,312.236 494,324.5C 493.333,327.5 493.333,330.5 494,333.5C 498.446,339.279 503.612,344.446 509.5,349C 510.878,350.334 512.211,350.501 513.5,349.5C 524.86,356.023 534.526,364.523 542.5,375C 548.347,379.078 554.681,380.578 561.5,379.5C 562.659,389.658 562.825,399.992 562,410.5C 561.438,415.083 560.105,419.417 558,423.5C 545.829,428.767 533.662,428.767 521.5,423.5C 520.778,434.851 521.278,446.185 523,457.5C 524.754,459.25 526.921,459.917 529.5,459.5C 531.253,469.938 532.586,480.438 533.5,491C 531.656,503.772 531.156,516.605 532,529.5C 534.892,549.185 537.892,568.851 541,588.5C 541.333,596.167 541.667,603.833 542,611.5C 544.773,614.136 547.94,616.136 551.5,617.5C 551.5,617.833 551.5,618.167 551.5,618.5C 547.719,618.026 544.552,616.359 542,613.5C 541.41,617.201 541.077,620.868 541,624.5C 544.324,622.421 547.824,620.754 551.5,619.5C 551.5,620.167 551.833,620.5 552.5,620.5C 548.925,622.287 545.259,624.121 541.5,626C 539.993,626.837 539.493,628.004 540,629.5C 544.754,625.936 549.754,625.602 555,628.5C 555.494,626.866 555.66,625.199 555.5,623.5C 556.468,625.607 556.802,627.941 556.5,630.5C 557.5,630.5 558.5,630.5 559.5,630.5C 558.069,632.401 557.069,634.568 556.5,637C 550.833,637.667 545.167,637.667 539.5,637C 539.002,635.842 538.169,635.009 537,634.5C 532.411,634.813 528.411,636.48 525,639.5C 524.333,640.5 524.333,641.5 525,642.5C 526.255,643.211 527.421,644.044 528.5,645C 533.364,646.209 538.031,647.709 542.5,649.5C 526.077,651.475 509.744,653.975 493.5,657C 476.833,657.667 460.167,657.667 443.5,657C 433.984,654.884 424.317,653.884 414.5,654C 403.201,651.174 391.868,648.674 380.5,646.5C 384.936,644.235 389.769,643.235 395,643.5C 417.51,644.871 440.01,644.704 462.5,643C 472.761,642.304 482.761,640.804 492.5,638.5C 499.167,638.5 505.833,638.5 512.5,638.5C 512.768,636.901 512.434,635.568 511.5,634.5C 511.5,634.167 511.5,633.833 511.5,633.5C 511.5,633.167 511.5,632.833 511.5,632.5C 513.27,631.236 514.937,629.736 516.5,628C 501.126,624.766 486.126,620.099 471.5,614C 470.594,612.301 470.261,610.467 470.5,608.5C 474.774,563.85 478.941,519.184 483,474.5C 484.656,445.008 486.156,415.508 487.5,386C 487.095,369.996 486.428,354.162 485.5,338.5C 485.361,321.448 484.361,304.448 482.5,287.5 Z"/></g>
<g><path style="opacity:1" fill="#965a3c" d="M 230.5,311.5 C 230.977,315.69 229.311,318.69 225.5,320.5C 223.143,320.663 220.81,320.497 218.5,320C 215.929,318.546 213.262,317.38 210.5,316.5C 197.099,313.06 189.765,304.394 188.5,290.5C 192.07,290.901 194.236,292.901 195,296.5C 196.113,295.289 197.28,295.289 198.5,296.5C 199.741,293.856 201.741,293.023 204.5,294C 205.103,295.825 205.77,297.659 206.5,299.5C 211.252,296.229 213.252,297.562 212.5,303.5C 214.869,303.149 217.203,302.982 219.5,303C 220.167,304.333 220.833,305.667 221.5,307C 224.648,308.424 227.648,309.924 230.5,311.5 Z"/></g>
<g><path style="opacity:1" fill="#fefefc" d="M 528.5,344.5 C 526.343,342.588 524.009,340.921 521.5,339.5C 518.59,335.247 515.256,331.247 511.5,327.5C 517.41,314.68 523.577,302.013 530,289.5C 531.667,294.833 533.333,300.167 535,305.5C 537.124,319.358 534.957,332.358 528.5,344.5 Z"/></g>
<g><path style="opacity:1" fill="#3c4967" d="M 250.5,292.5 C 252.595,293.412 254.595,294.579 256.5,296C 258.598,296.678 260.598,296.511 262.5,295.5C 264.045,296.23 264.878,297.563 265,299.5C 266.148,307.536 267.481,315.536 269,323.5C 269.226,314.327 271.393,305.661 275.5,297.5C 275.833,297.5 276.167,297.5 276.5,297.5C 274.477,302.416 275.477,306.416 279.5,309.5C 279.353,312.443 278.687,315.276 277.5,318C 277.905,318.945 278.572,319.612 279.5,320C 298.809,324.828 318.142,329.328 337.5,333.5C 337.263,334.791 337.596,335.791 338.5,336.5C 340.918,360.178 343.585,383.844 346.5,407.5C 339.905,408.821 333.239,409.488 326.5,409.5C 321.833,409.5 317.167,409.5 312.5,409.5C 313.752,438.727 311.752,467.727 306.5,496.5C 308.252,508.606 309.252,520.772 309.5,533C 308.699,545.171 308.199,557.338 308,569.5C 310.433,557.572 312.433,545.572 314,533.5C 323.092,543.255 331.425,553.588 339,564.5C 343.18,570.538 345.014,577.205 344.5,584.5C 339.695,589.665 333.695,592.331 326.5,592.5C 320.529,586.699 314.363,581.033 308,575.5C 305.498,588.517 302.998,601.517 300.5,614.5C 297.356,616.898 293.689,618.064 289.5,618C 283.981,618.999 278.647,618.499 273.5,616.5C 272.817,616.863 272.15,617.196 271.5,617.5C 273.102,593.186 273.935,568.853 274,544.5C 265.969,537.3 258.136,529.967 250.5,522.5C 250.5,521.5 250.5,520.5 250.5,519.5C 255.329,507.871 256.829,495.871 255,483.5C 252.44,478.884 249.273,474.718 245.5,471C 237.849,465.68 229.849,461.18 221.5,457.5C 226.116,435.148 230.949,412.815 236,390.5C 235.796,384.486 235.463,378.486 235,372.5C 237.333,368.833 239.667,365.167 242,361.5C 242.872,356.805 243.872,352.139 245,347.5C 246.011,346.663 247.178,346.33 248.5,346.5C 250.846,337.126 251.846,327.792 251.5,318.5C 252.989,309.79 252.656,301.123 250.5,292.5 Z M 273.5,456.5 C 273.515,465.365 274.182,474.032 275.5,482.5C 275.631,483.239 275.464,483.906 275,484.5C 271.662,481.992 268.495,479.325 265.5,476.5C 267.908,470.276 269.908,463.943 271.5,457.5C 272.167,457.167 272.833,456.833 273.5,456.5 Z"/></g>
<g><path style="opacity:1" fill="#515c79" d="M 262.5,295.5 C 262.735,294.903 263.235,294.57 264,294.5C 267.654,296.205 271.487,297.205 275.5,297.5C 271.393,305.661 269.226,314.327 269,323.5C 267.481,315.536 266.148,307.536 265,299.5C 264.878,297.563 264.045,296.23 262.5,295.5 Z"/></g>
<g><path style="opacity:1" fill="#c4ccd9" d="M 230.5,311.5 C 231.964,312.405 233.298,312.405 234.5,311.5C 234.789,314.649 234.289,317.649 233,320.5C 226.295,328.388 219.795,328.388 213.5,320.5C 215.552,321.71 217.718,322.71 220,323.5C 222.399,323.387 224.232,322.387 225.5,320.5C 229.311,318.69 230.977,315.69 230.5,311.5 Z"/></g>
<g><path style="opacity:1" fill="#8d8a88" d="M 210.5,316.5 C 213.262,317.38 215.929,318.546 218.5,320C 220.81,320.497 223.143,320.663 225.5,320.5C 224.232,322.387 222.399,323.387 220,323.5C 217.718,322.71 215.552,321.71 213.5,320.5C 212.778,320.082 212.278,319.416 212,318.5C 211.536,319.094 211.369,319.761 211.5,320.5C 210.566,319.432 210.232,318.099 210.5,316.5 Z"/></g>
<g><path style="opacity:1" fill="#9c5d3d" d="M 521.5,339.5 C 524.009,340.921 526.343,342.588 528.5,344.5C 532.307,348.135 536.307,351.635 540.5,355C 543.817,355.498 547.15,355.665 550.5,355.5C 550.929,362.396 554.263,367.063 560.5,369.5C 561.848,370.601 563.348,371.601 565,372.5C 565.591,373.483 565.257,374.15 564,374.5C 561.256,373.026 558.423,372.193 555.5,372C 557.754,373.377 559.92,374.877 562,376.5C 562.47,377.577 562.303,378.577 561.5,379.5C 554.681,380.578 548.347,379.078 542.5,375C 534.526,364.523 524.86,356.023 513.5,349.5C 515.817,345.854 518.484,342.52 521.5,339.5 Z"/></g>
<g><path style="opacity:0.627" fill="#adb9bf" d="M 376.5,320.5 C 376.284,330.838 375.951,341.171 375.5,351.5C 375.167,351.5 374.833,351.5 374.5,351.5C 374.264,340.958 374.93,330.624 376.5,320.5 Z"/></g>
<g><path style="opacity:1" fill="#2b6373" d="M 374.5,351.5 C 374.833,351.5 375.167,351.5 375.5,351.5C 375.5,353.833 375.5,356.167 375.5,358.5C 412.167,358.5 448.833,358.5 485.5,358.5C 483.735,359.461 481.735,359.795 479.5,359.5C 444.5,359.5 409.5,359.5 374.5,359.5C 374.5,357.167 374.5,354.833 374.5,352.5C 374.5,352.167 374.5,351.833 374.5,351.5 Z"/></g>
<g><path style="opacity:1" fill="#3d9fb0" d="M 485.5,338.5 C 486.428,354.162 487.095,369.996 487.5,386C 486.156,415.508 484.656,445.008 483,474.5C 478.941,519.184 474.774,563.85 470.5,608.5C 469.549,609.919 469.216,611.585 469.5,613.5C 461.5,613.5 453.5,613.5 445.5,613.5C 444.862,601.177 444.528,588.844 444.5,576.5C 446.016,588.3 446.682,600.3 446.5,612.5C 449.833,612.5 453.167,612.5 456.5,612.5C 456.424,566.113 454.924,519.78 452,473.5C 447.557,446.807 442.057,420.474 435.5,394.5C 434.833,393.167 434.167,391.833 433.5,390.5C 432.081,389.549 430.415,389.216 428.5,389.5C 428.5,390.833 428.5,392.167 428.5,393.5C 426.053,417.523 423.386,441.523 420.5,465.5C 416.088,491.312 412.088,517.312 408.5,543.5C 408.5,543.833 408.5,544.167 408.5,544.5C 407.778,544.918 407.278,545.584 407,546.5C 405.172,557.801 403.672,569.135 402.5,580.5C 401.205,591.233 399.538,601.9 397.5,612.5C 389.586,613.467 381.586,613.801 373.5,613.5C 373.5,611.167 373.5,608.833 373.5,606.5C 373.169,585.66 373.503,564.993 374.5,544.5C 374.5,567.167 374.5,589.833 374.5,612.5C 378.167,612.5 381.833,612.5 385.5,612.5C 386.235,579.154 387.402,545.82 389,512.5C 389.195,465.832 389.195,419.165 389,372.5C 392.593,369.519 396.76,367.685 401.5,367C 426.063,363.777 450.729,361.777 475.5,361C 477.058,360.79 478.391,360.29 479.5,359.5C 481.735,359.795 483.735,359.461 485.5,358.5C 485.5,351.833 485.5,345.167 485.5,338.5 Z"/></g>
<g><path style="opacity:1" fill="#3b94a4" d="M 374.5,359.5 C 409.5,359.5 444.5,359.5 479.5,359.5C 478.391,360.29 477.058,360.79 475.5,361C 450.729,361.777 426.063,363.777 401.5,367C 396.76,367.685 392.593,369.519 389,372.5C 389.195,419.165 389.195,465.832 389,512.5C 387.402,545.82 386.235,579.154 385.5,612.5C 381.833,612.5 378.167,612.5 374.5,612.5C 374.5,589.833 374.5,567.167 374.5,544.5C 374.2,523.133 374.533,501.8 375.5,480.5C 374.986,440.169 374.652,399.835 374.5,359.5 Z"/></g>
<g><path style="opacity:0.993" fill="#4f3f3a" d="M 192.5,372.5 C 195.57,375.564 198.237,378.897 200.5,382.5C 200.663,384.857 200.497,387.19 200,389.5C 196.258,393.747 192.092,397.414 187.5,400.5C 186.106,398.292 184.106,396.792 181.5,396C 176.096,395.228 170.762,395.561 165.5,397C 159.675,399.745 154.008,402.745 148.5,406C 145.882,408.106 143.882,410.606 142.5,413.5C 142.5,414.167 142.167,414.5 141.5,414.5C 140.094,414.973 139.427,415.973 139.5,417.5C 138.206,418.29 137.039,419.29 136,420.5C 135.501,416.514 135.334,412.514 135.5,408.5C 135.36,402.464 135.693,396.464 136.5,390.5C 139.154,384.543 142.821,379.209 147.5,374.5C 162.34,371.249 177.34,370.583 192.5,372.5 Z"/></g>
<g><path style="opacity:0.637" fill="#f4f4f3" d="M 147.5,374.5 C 142.821,379.209 139.154,384.543 136.5,390.5C 136.924,385.808 138.424,381.475 141,377.5C 142.993,376.086 145.16,375.086 147.5,374.5 Z"/></g>
<g><path style="opacity:0.999" fill="#dc5044" d="M 639.5,379.5 C 641.5,379.5 643.5,379.5 645.5,379.5C 647.607,380.468 649.941,380.802 652.5,380.5C 652.502,387.52 652.835,394.52 653.5,401.5C 639.423,399.62 629.256,404.953 623,417.5C 620.828,423.691 619.161,430.024 618,436.5C 617.933,449.674 617.767,462.674 617.5,475.5C 616.121,469.308 614.455,463.308 612.5,457.5C 611.443,450.16 610.277,442.827 609,435.5C 608.225,426.785 608.392,418.119 609.5,409.5C 610.415,398.369 615.415,389.702 624.5,383.5C 626.05,382.559 627.716,381.893 629.5,381.5C 633.04,381.247 636.373,380.581 639.5,379.5 Z"/></g>
<g><path style="opacity:1" fill="#f2a69c" d="M 639.5,379.5 C 636.373,380.581 633.04,381.247 629.5,381.5C 629.918,380.778 630.584,380.278 631.5,380C 634.146,379.503 636.813,379.336 639.5,379.5 Z"/></g>
<g><path style="opacity:0.995" fill="#cc5448" d="M 645.5,379.5 C 658.651,376.665 668.484,380.998 675,392.5C 684.099,407.974 684.599,423.64 676.5,439.5C 675.512,440.795 674.512,442.128 673.5,443.5C 673.492,439.405 673.326,435.072 673,430.5C 670.225,425.544 668.892,420.21 669,414.5C 664.595,409.262 659.429,404.929 653.5,401.5C 652.835,394.52 652.502,387.52 652.5,380.5C 649.941,380.802 647.607,380.468 645.5,379.5 Z"/></g>
<g><path style="opacity:0.933" fill="#fefbfa" d="M 604.5,382.5 C 611.109,383.423 617.776,383.756 624.5,383.5C 615.415,389.702 610.415,398.369 609.5,409.5C 607.958,400.595 606.292,391.595 604.5,382.5 Z"/></g>
<g><path style="opacity:0.333" fill="#cae5ea" d="M 433.5,390.5 C 432.167,390.5 430.833,390.5 429.5,390.5C 429.737,391.791 429.404,392.791 428.5,393.5C 428.5,392.167 428.5,390.833 428.5,389.5C 430.415,389.216 432.081,389.549 433.5,390.5 Z"/></g>
<g><path style="opacity:1" fill="#c5955b" d="M 200.5,382.5 C 201.4,387.332 202.066,392.332 202.5,397.5C 202.665,400.85 202.498,404.183 202,407.5C 200,404.833 198,404.833 196,407.5C 195.501,411.152 195.335,414.818 195.5,418.5C 193.5,418.167 191.5,417.833 189.5,417.5C 188.915,411.822 188.249,406.155 187.5,400.5C 192.092,397.414 196.258,393.747 200,389.5C 200.497,387.19 200.663,384.857 200.5,382.5 Z"/></g>
<g><path style="opacity:1" fill="#bcdae0" d="M 374.5,352.5 C 374.5,354.833 374.5,357.167 374.5,359.5C 374.652,399.835 374.986,440.169 375.5,480.5C 374.293,450.668 373.293,420.668 372.5,390.5C 372.825,377.657 373.492,364.991 374.5,352.5 Z"/></g>
<g><path style="opacity:1" fill="#f5c29d" d="M 187.5,400.5 C 188.249,406.155 188.915,411.822 189.5,417.5C 189.938,425.044 188.605,432.211 185.5,439C 181.248,438.369 177.582,436.369 174.5,433C 172.966,432.077 171.299,431.577 169.5,431.5C 163.801,434.12 157.801,435.62 151.5,436C 150.364,437.145 149.364,438.312 148.5,439.5C 147.808,433.823 146.975,428.156 146,422.5C 145.722,421.584 145.222,420.918 144.5,420.5C 143.935,418.048 143.268,415.715 142.5,413.5C 143.882,410.606 145.882,408.106 148.5,406C 154.008,402.745 159.675,399.745 165.5,397C 170.762,395.561 176.096,395.228 181.5,396C 184.106,396.792 186.106,398.292 187.5,400.5 Z"/></g>
<g><path style="opacity:0.315" fill="#f7f6f6" d="M 136.5,390.5 C 135.693,396.464 135.36,402.464 135.5,408.5C 134.167,413.167 134.167,417.833 135.5,422.5C 135.44,423.043 135.107,423.376 134.5,423.5C 133.335,414.853 133.168,406.186 134,397.5C 134.156,394.809 134.989,392.476 136.5,390.5 Z"/></g>
<g><path style="opacity:1" fill="#ca4a3f" d="M 653.5,401.5 C 647.252,410.316 640.752,418.982 634,427.5C 631.726,431.714 629.726,436.047 628,440.5C 627.245,443.303 627.578,445.97 629,448.5C 633.079,453.068 636.913,457.735 640.5,462.5C 638.714,468.073 636.38,473.406 633.5,478.5C 629.859,481.968 626.026,485.302 622,488.5C 620.393,484.51 618.893,480.51 617.5,476.5C 617.5,476.167 617.5,475.833 617.5,475.5C 617.767,462.674 617.933,449.674 618,436.5C 619.161,430.024 620.828,423.691 623,417.5C 629.256,404.953 639.423,399.62 653.5,401.5 Z"/></g>
<g><path style="opacity:1" fill="#f5bb97" d="M 653.5,401.5 C 659.429,404.929 664.595,409.262 669,414.5C 668.892,420.21 670.225,425.544 673,430.5C 673.326,435.072 673.492,439.405 673.5,443.5C 669.189,450.323 668.356,457.656 671,465.5C 671.66,467.324 672.827,468.657 674.5,469.5C 676.1,470.644 677.767,471.811 679.5,473C 676.999,476.667 673.999,479.834 670.5,482.5C 668.769,481.015 667.769,479.015 667.5,476.5C 667.915,474.052 666.915,472.719 664.5,472.5C 658.538,473.859 652.538,475.026 646.5,476C 644.422,477.27 644.088,478.77 645.5,480.5C 645.785,482.288 645.452,483.955 644.5,485.5C 643.817,485.137 643.15,484.804 642.5,484.5C 639.328,482.748 636.328,480.748 633.5,478.5C 636.38,473.406 638.714,468.073 640.5,462.5C 636.913,457.735 633.079,453.068 629,448.5C 627.578,445.97 627.245,443.303 628,440.5C 629.726,436.047 631.726,431.714 634,427.5C 640.752,418.982 647.252,410.316 653.5,401.5 Z"/></g>
<g><path style="opacity:0.998" fill="#535f7b" d="M 273.5,452.5 C 272.463,453.93 271.796,455.597 271.5,457.5C 269.908,463.943 267.908,470.276 265.5,476.5C 268.495,479.325 271.662,481.992 275,484.5C 275.464,483.906 275.631,483.239 275.5,482.5C 276.651,487.65 276.817,492.984 276,498.5C 269.29,493.302 262.956,487.636 257,481.5C 255.559,478.845 254.726,476.012 254.5,473C 258.853,450.399 263.52,427.899 268.5,405.5C 270.251,421.171 271.917,436.837 273.5,452.5 Z"/></g>
<g><path style="opacity:1" fill="#3792a3" d="M 435.5,394.5 C 442.057,420.474 447.557,446.807 452,473.5C 454.924,519.78 456.424,566.113 456.5,612.5C 453.167,612.5 449.833,612.5 446.5,612.5C 446.682,600.3 446.016,588.3 444.5,576.5C 444.5,575.167 444.5,573.833 444.5,572.5C 444.667,558.829 444.5,545.163 444,531.5C 443.722,530.584 443.222,529.918 442.5,529.5C 442.5,525.5 442.5,521.5 442.5,517.5C 442.667,505.162 442.5,492.829 442,480.5C 441.951,474.57 441.118,468.903 439.5,463.5C 439.5,463.167 439.5,462.833 439.5,462.5C 438.262,439.83 436.928,417.164 435.5,394.5 Z"/></g>
<g><path style="opacity:1" fill="#57627e" d="M 326.5,409.5 C 326.587,416.54 326.087,423.54 325,430.5C 321.275,453.186 317.441,475.852 313.5,498.5C 314.664,507.802 315.497,517.135 316,526.5C 328.633,540.801 341.633,554.801 355,568.5C 355.49,569.793 355.657,571.127 355.5,572.5C 352.707,576.029 349.873,579.696 347,583.5C 346.329,584.252 345.496,584.586 344.5,584.5C 345.014,577.205 343.18,570.538 339,564.5C 331.425,553.588 323.092,543.255 314,533.5C 312.433,545.572 310.433,557.572 308,569.5C 308.199,557.338 308.699,545.171 309.5,533C 309.252,520.772 308.252,508.606 306.5,496.5C 311.752,467.727 313.752,438.727 312.5,409.5C 317.167,409.5 321.833,409.5 326.5,409.5 Z"/></g>
<g><path style="opacity:0.031" fill="#dfdcdb" d="M 141.5,414.5 C 141.573,416.027 140.906,417.027 139.5,417.5C 139.427,415.973 140.094,414.973 141.5,414.5 Z"/></g>
<g><path style="opacity:1" fill="#aea7a5" d="M 135.5,408.5 C 135.334,412.514 135.501,416.514 136,420.5C 137.039,419.29 138.206,418.29 139.5,417.5C 138.92,419.749 137.587,421.415 135.5,422.5C 134.167,417.833 134.167,413.167 135.5,408.5 Z"/></g>
<g><path style="opacity:1" fill="#4f3f3a" d="M 189.5,417.5 C 191.5,417.833 193.5,418.167 195.5,418.5C 196.581,427.465 196.748,436.465 196,445.5C 194.939,448.562 193.106,451.062 190.5,453C 184.675,455.745 179.008,458.745 173.5,462C 170.28,463.352 166.947,464.186 163.5,464.5C 159.169,464.008 155.836,462.008 153.5,458.5C 153.672,457.508 153.338,456.842 152.5,456.5C 150.756,450.935 149.423,445.268 148.5,439.5C 149.364,438.312 150.364,437.145 151.5,436C 157.801,435.62 163.801,434.12 169.5,431.5C 171.299,431.577 172.966,432.077 174.5,433C 177.582,436.369 181.248,438.369 185.5,439C 188.605,432.211 189.938,425.044 189.5,417.5 Z"/></g>
<g><path style="opacity:0.204" fill="#f0ded3" d="M 144.5,420.5 C 145.222,420.918 145.722,421.584 146,422.5C 146.975,428.156 147.808,433.823 148.5,439.5C 149.423,445.268 150.756,450.935 152.5,456.5C 150.153,453.32 148.653,449.653 148,445.5C 146.599,437.191 145.432,428.857 144.5,420.5 Z"/></g>
<g><path style="opacity:0.435" fill="#b1d4db" d="M 433.5,390.5 C 434.167,391.833 434.833,393.167 435.5,394.5C 436.928,417.164 438.262,439.83 439.5,462.5C 437.154,438.677 435.154,414.677 433.5,390.5 Z"/></g>
<g><path style="opacity:0.999" fill="#f4c19d" d="M 202.5,397.5 C 203.163,399.473 203.496,401.639 203.5,404C 203.06,409.838 202.56,415.672 202,421.5C 194.684,433.618 196.184,444.285 206.5,453.5C 206.062,453.435 205.728,453.601 205.5,454C 210.26,456.391 211.426,459.891 209,464.5C 200,474.833 190.333,484.5 180,493.5C 179.536,494.094 179.369,494.761 179.5,495.5C 178.785,491.594 176.618,488.594 173,486.5C 170.152,489.152 166.985,491.152 163.5,492.5C 159.607,495.483 160.273,496.15 165.5,494.5C 166.222,494.082 166.722,493.416 167,492.5C 167.5,494 168,495.5 168.5,497C 168.493,501.017 168.493,505.017 168.5,509C 166.971,511.431 164.971,513.264 162.5,514.5C 152.437,515.232 145.437,520.232 141.5,529.5C 135.424,540.441 127.757,550.274 118.5,559C 115.404,560.872 112.404,562.705 109.5,564.5C 90.0355,568.204 82.8688,560.538 88,541.5C 90.3125,533.043 93.4792,525.043 97.5,517.5C 100.008,513.818 102.008,509.818 103.5,505.5C 105.969,500.255 108.135,494.921 110,489.5C 110.708,488.619 111.542,487.953 112.5,487.5C 110.788,489.896 110.288,492.562 111,495.5C 114.038,503.243 117.872,510.577 122.5,517.5C 125.807,515.36 128.974,513.026 132,510.5C 132.081,506.305 131.581,502.138 130.5,498C 132.06,492.596 133.06,487.096 133.5,481.5C 135.514,481.392 137.18,482.058 138.5,483.5C 139.18,487.119 139.68,490.786 140,494.5C 141.388,495.554 142.888,495.72 144.5,495C 151.015,491.577 157.681,488.41 164.5,485.5C 165.489,481.893 165.823,478.226 165.5,474.5C 166.485,472.602 165.818,471.102 163.5,470C 156.174,469.5 148.841,469.334 141.5,469.5C 148.321,468.671 155.321,468.171 162.5,468C 163.337,466.989 163.67,465.822 163.5,464.5C 166.947,464.186 170.28,463.352 173.5,462C 179.008,458.745 184.675,455.745 190.5,453C 193.106,451.062 194.939,448.562 196,445.5C 196.748,436.465 196.581,427.465 195.5,418.5C 195.335,414.818 195.501,411.152 196,407.5C 198,404.833 200,404.833 202,407.5C 202.498,404.183 202.665,400.85 202.5,397.5 Z"/></g>
<g><path style="opacity:1" fill="#df8b27" d="M 206.5,453.5 C 211.646,454.369 216.646,455.703 221.5,457.5C 229.849,461.18 237.849,465.68 245.5,471C 249.273,474.718 252.44,478.884 255,483.5C 256.829,495.871 255.329,507.871 250.5,519.5C 248.518,519.995 246.518,520.495 244.5,521C 233.167,521.333 221.833,521.667 210.5,522C 208.501,526.645 207.001,531.478 206,536.5C 191.6,526.353 182.767,512.686 179.5,495.5C 179.369,494.761 179.536,494.094 180,493.5C 190.333,484.5 200,474.833 209,464.5C 211.426,459.891 210.26,456.391 205.5,454C 205.728,453.601 206.062,453.435 206.5,453.5 Z"/></g>
<g><path style="opacity:0.027" fill="#e0e2e7" d="M 273.5,452.5 C 273.5,453.833 273.5,455.167 273.5,456.5C 272.833,456.833 272.167,457.167 271.5,457.5C 271.796,455.597 272.463,453.93 273.5,452.5 Z"/></g>
<g><path style="opacity:1" fill="#995939" d="M 610.5,458.5 C 610.336,465.202 610.669,471.869 611.5,478.5C 605.465,481.035 601.298,485.368 599,491.5C 595.993,506.349 594.826,521.349 595.5,536.5C 591.894,528.848 589.394,520.181 588,510.5C 587.667,502.5 587.333,494.5 587,486.5C 585.397,478.217 584.23,469.884 583.5,461.5C 592.481,460.643 601.481,459.643 610.5,458.5 Z"/></g>
<g><path style="opacity:1" fill="#f8f1ef" d="M 612.5,457.5 C 614.455,463.308 616.121,469.308 617.5,475.5C 617.5,475.833 617.5,476.167 617.5,476.5C 615.421,476.971 613.421,477.637 611.5,478.5C 610.669,471.869 610.336,465.202 610.5,458.5C 610.842,457.662 611.508,457.328 612.5,457.5 Z"/></g>
<g><path style="opacity:1" fill="#e08c2a" d="M 153.5,458.5 C 155.836,462.008 159.169,464.008 163.5,464.5C 163.67,465.822 163.337,466.989 162.5,468C 155.321,468.171 148.321,468.671 141.5,469.5C 139.554,470.035 138.554,471.368 138.5,473.5C 138.5,476.833 138.5,480.167 138.5,483.5C 137.18,482.058 135.514,481.392 133.5,481.5C 133.06,487.096 132.06,492.596 130.5,498C 131.581,502.138 132.081,506.305 132,510.5C 128.974,513.026 125.807,515.36 122.5,517.5C 117.872,510.577 114.038,503.243 111,495.5C 110.288,492.562 110.788,489.896 112.5,487.5C 112.738,485.596 113.738,484.262 115.5,483.5C 118.54,480.461 121.206,477.127 123.5,473.5C 125.5,470.833 127.833,468.5 130.5,466.5C 134.395,465.048 138.062,463.381 141.5,461.5C 145.716,461.316 149.716,460.316 153.5,458.5 Z"/></g>
<g><path style="opacity:1" fill="#f1c595" d="M 152.5,456.5 C 153.338,456.842 153.672,457.508 153.5,458.5C 149.716,460.316 145.716,461.316 141.5,461.5C 145.251,460.027 148.917,458.36 152.5,456.5 Z"/></g>
<g><path style="opacity:1" fill="#9a5a3a" d="M 529.5,459.5 C 540.255,460.903 550.921,461.903 561.5,462.5C 559.833,462.5 558.167,462.5 556.5,462.5C 555.347,474.512 554.014,486.512 552.5,498.5C 553.558,508.308 554.225,518.141 554.5,528C 553.246,544.475 552.579,560.975 552.5,577.5C 552.346,590.034 553.013,602.368 554.5,614.5C 554.5,614.833 554.5,615.167 554.5,615.5C 554.5,616.833 553.833,617.5 552.5,617.5C 552.167,617.5 551.833,617.5 551.5,617.5C 547.94,616.136 544.773,614.136 542,611.5C 541.667,603.833 541.333,596.167 541,588.5C 537.892,568.851 534.892,549.185 532,529.5C 531.156,516.605 531.656,503.772 533.5,491C 532.586,480.438 531.253,469.938 529.5,459.5 Z"/></g>
<g><path style="opacity:1" fill="#996449" d="M 583.5,461.5 C 584.23,469.884 585.397,478.217 587,486.5C 587.333,494.5 587.667,502.5 588,510.5C 589.394,520.181 591.894,528.848 595.5,536.5C 596.763,542.659 597.763,548.992 598.5,555.5C 593.889,545.92 590.056,535.92 587,525.5C 585.905,514.184 584.905,502.851 584,491.5C 581.723,482.174 579.556,472.84 577.5,463.5C 578.918,461.692 580.918,461.025 583.5,461.5 Z"/></g>
<g><path style="opacity:1" fill="#996246" d="M 561.5,462.5 C 561.5,463.5 561.5,464.5 561.5,465.5C 560.701,478.057 559.368,490.557 557.5,503C 558.043,510.99 558.376,518.99 558.5,527C 556.149,556.118 554.816,585.285 554.5,614.5C 553.013,602.368 552.346,590.034 552.5,577.5C 552.579,560.975 553.246,544.475 554.5,528C 554.225,518.141 553.558,508.308 552.5,498.5C 554.014,486.512 555.347,474.512 556.5,462.5C 558.167,462.5 559.833,462.5 561.5,462.5 Z"/></g>
<g><path style="opacity:0.212" fill="#f9e1c8" d="M 141.5,461.5 C 138.062,463.381 134.395,465.048 130.5,466.5C 133.481,463.512 137.148,461.846 141.5,461.5 Z"/></g>
<g><path style="opacity:0.016" fill="#dbedf0" d="M 420.5,465.5 C 417.778,491.82 413.778,517.82 408.5,543.5C 412.088,517.312 416.088,491.312 420.5,465.5 Z"/></g>
<g><path style="opacity:1" fill="#c4bfbc" d="M 141.5,469.5 C 148.841,469.334 156.174,469.5 163.5,470C 165.818,471.102 166.485,472.602 165.5,474.5C 165.047,473.542 164.381,472.708 163.5,472C 155.833,471.333 148.167,471.333 140.5,472C 139.956,472.717 139.289,473.217 138.5,473.5C 138.554,471.368 139.554,470.035 141.5,469.5 Z"/></g>
<g><path style="opacity:1" fill="#135777" d="M 674.5,469.5 C 683.602,469.953 692.269,472.12 700.5,476C 705.678,482.197 708.845,489.364 710,497.5C 713.741,516.436 713.241,535.103 708.5,553.5C 701.492,553.334 694.492,553.5 687.5,554C 669.422,561.538 652.089,570.372 635.5,580.5C 632.67,578.965 631.337,579.965 631.5,583.5C 627.878,585.787 624.545,588.453 621.5,591.5C 622.508,588.156 623.508,584.823 624.5,581.5C 626.434,577.892 628.101,574.058 629.5,570C 628.59,567.101 627.59,564.267 626.5,561.5C 636.167,549.663 645.667,537.663 655,525.5C 658.456,522.198 662.289,519.531 666.5,517.5C 669.127,516.908 671.794,516.575 674.5,516.5C 674.5,514.5 674.5,512.5 674.5,510.5C 674.971,508.712 675.304,506.878 675.5,505C 674.035,501.719 673.368,498.219 673.5,494.5C 672.448,494.649 671.448,494.483 670.5,494C 673.362,491.442 673.029,489.609 669.5,488.5C 669.325,486.379 669.659,484.379 670.5,482.5C 673.999,479.834 676.999,476.667 679.5,473C 677.767,471.811 676.1,470.644 674.5,469.5 Z"/></g>
<g><path style="opacity:1" fill="#3b2a1c" d="M 165.5,474.5 C 165.823,478.226 165.489,481.893 164.5,485.5C 157.681,488.41 151.015,491.577 144.5,495C 142.888,495.72 141.388,495.554 140,494.5C 139.68,490.786 139.18,487.119 138.5,483.5C 138.5,480.167 138.5,476.833 138.5,473.5C 139.289,473.217 139.956,472.717 140.5,472C 148.167,471.333 155.833,471.333 163.5,472C 164.381,472.708 165.047,473.542 165.5,474.5 Z"/></g>
<g><path style="opacity:1" fill="#f8f3f0" d="M 667.5,476.5 C 659.873,476.915 652.54,478.248 645.5,480.5C 644.088,478.77 644.422,477.27 646.5,476C 652.538,475.026 658.538,473.859 664.5,472.5C 666.915,472.719 667.915,474.052 667.5,476.5 Z"/></g>
<g><path style="opacity:1" fill="#8b837e" d="M 141.5,474.5 C 142.833,474.5 144.167,474.5 145.5,474.5C 145.5,475.5 145.5,476.5 145.5,477.5C 143.027,477.912 141.694,476.912 141.5,474.5 Z"/></g>
<g><path style="opacity:0.896" fill="#fbfcfc" d="M 676.5,439.5 C 677.212,441.794 676.379,443.794 674,445.5C 673.333,449.5 673.333,453.5 674,457.5C 677.762,461.13 682.262,463.297 687.5,464C 690.409,466.839 693.409,469.506 696.5,472C 701.875,474.438 707.042,477.271 712,480.5C 712.333,488.833 712.667,497.167 713,505.5C 715.882,516.868 718.382,528.368 720.5,540C 716.986,548.549 714.153,557.383 712,566.5C 711.5,574.493 711.334,582.493 711.5,590.5C 706.157,585.156 701.157,579.489 696.5,573.5C 704.512,569.51 708.512,562.844 708.5,553.5C 713.241,535.103 713.741,516.436 710,497.5C 708.845,489.364 705.678,482.197 700.5,476C 692.269,472.12 683.602,469.953 674.5,469.5C 672.827,468.657 671.66,467.324 671,465.5C 668.356,457.656 669.189,450.323 673.5,443.5C 674.512,442.128 675.512,440.795 676.5,439.5 Z"/></g>
<g><path style="opacity:1" fill="#145776" d="M 617.5,476.5 C 618.893,480.51 620.393,484.51 622,488.5C 626.026,485.302 629.859,481.968 633.5,478.5C 636.328,480.748 639.328,482.748 642.5,484.5C 642.5,485.167 642.5,485.833 642.5,486.5C 644.651,496.735 645.484,507.068 645,517.5C 631,529.5 617,541.5 603,553.5C 601.522,556.158 600.355,558.825 599.5,561.5C 598.659,559.621 598.325,557.621 598.5,555.5C 597.763,548.992 596.763,542.659 595.5,536.5C 594.826,521.349 595.993,506.349 599,491.5C 601.298,485.368 605.465,481.035 611.5,478.5C 613.421,477.637 615.421,476.971 617.5,476.5 Z"/></g>
<g><path style="opacity:1" fill="#424545" d="M 667.5,476.5 C 667.769,479.015 668.769,481.015 670.5,482.5C 669.659,484.379 669.325,486.379 669.5,488.5C 664.889,493.145 659.556,496.812 653.5,499.5C 651.971,499.471 650.804,498.804 650,497.5C 648.908,494.956 648.241,492.289 648,489.5C 646.736,487.393 644.903,486.393 642.5,486.5C 642.5,485.833 642.5,485.167 642.5,484.5C 643.15,484.804 643.817,485.137 644.5,485.5C 645.452,483.955 645.785,482.288 645.5,480.5C 652.54,478.248 659.873,476.915 667.5,476.5 Z"/></g>
<g><path style="opacity:0.157" fill="#f8e0c6" d="M 123.5,473.5 C 121.206,477.127 118.54,480.461 115.5,483.5C 117.033,479.296 119.7,475.963 123.5,473.5 Z"/></g>
<g><path style="opacity:1" fill="#abafb1" d="M 648.5,481.5 C 651.861,482.203 652.194,483.537 649.5,485.5C 647.358,484.563 647.024,483.23 648.5,481.5 Z"/></g>
<g><path style="opacity:1" fill="#eebb99" d="M 179.5,495.5 C 182.767,512.686 191.6,526.353 206,536.5C 207.001,531.478 208.501,526.645 210.5,522C 221.833,521.667 233.167,521.333 244.5,521C 246.518,520.495 248.518,519.995 250.5,519.5C 250.5,520.5 250.5,521.5 250.5,522.5C 249.5,525.167 248.5,527.833 247.5,530.5C 247.657,529.127 247.49,527.793 247,526.5C 240.345,545.481 232.345,563.814 223,581.5C 218.309,583.729 213.475,584.063 208.5,582.5C 201.922,578.758 196.422,573.758 192,567.5C 184.956,551.744 177.623,536.077 170,520.5C 167.894,517.882 165.394,515.882 162.5,514.5C 164.971,513.264 166.971,511.431 168.5,509C 168.493,505.017 168.493,501.017 168.5,497C 168,495.5 167.5,494 167,492.5C 166.722,493.416 166.222,494.082 165.5,494.5C 165.5,493.167 164.833,492.5 163.5,492.5C 166.985,491.152 170.152,489.152 173,486.5C 176.618,488.594 178.785,491.594 179.5,495.5 Z"/></g>
<g><path style="opacity:0.999" fill="#f3bb97" d="M 642.5,486.5 C 644.903,486.393 646.736,487.393 648,489.5C 648.241,492.289 648.908,494.956 650,497.5C 650.804,498.804 651.971,499.471 653.5,499.5C 659.556,496.812 664.889,493.145 669.5,488.5C 673.029,489.609 673.362,491.442 670.5,494C 671.448,494.483 672.448,494.649 673.5,494.5C 673.368,498.219 674.035,501.719 675.5,505C 675.304,506.878 674.971,508.712 674.5,510.5C 671.793,512.843 669.126,515.177 666.5,517.5C 662.289,519.531 658.456,522.198 655,525.5C 645.667,537.663 636.167,549.663 626.5,561.5C 623.956,562.708 622.622,564.708 622.5,567.5C 621.883,567.389 621.383,567.056 621,566.5C 616.831,570.156 612.331,573.156 607.5,575.5C 602.255,572.347 599.588,567.681 599.5,561.5C 600.355,558.825 601.522,556.158 603,553.5C 617,541.5 631,529.5 645,517.5C 645.484,507.068 644.651,496.735 642.5,486.5 Z"/></g>
<g><path style="opacity:1" fill="#8bbec8" d="M 439.5,463.5 C 441.118,468.903 441.951,474.57 442,480.5C 442.5,492.829 442.667,505.162 442.5,517.5C 441.503,499.655 440.503,481.655 439.5,463.5 Z"/></g>
<g><path style="opacity:1" fill="#4e3a29" d="M 163.5,492.5 C 164.833,492.5 165.5,493.167 165.5,494.5C 160.273,496.15 159.607,495.483 163.5,492.5 Z"/></g>
<g><path style="opacity:1" fill="#434748" d="M 674.5,510.5 C 674.5,512.5 674.5,514.5 674.5,516.5C 671.794,516.575 669.127,516.908 666.5,517.5C 669.126,515.177 671.793,512.843 674.5,510.5 Z"/></g>
<g><path style="opacity:0.055" fill="#fcf3ed" d="M 103.5,505.5 C 102.008,509.818 100.008,513.818 97.5,517.5C 98.4598,512.914 100.46,508.914 103.5,505.5 Z"/></g>
<g><path style="opacity:1" fill="#df8a27" d="M 162.5,514.5 C 165.394,515.882 167.894,517.882 170,520.5C 177.623,536.077 184.956,551.744 192,567.5C 196.422,573.758 201.922,578.758 208.5,582.5C 208.586,583.496 208.252,584.329 207.5,585C 197.779,590.527 187.779,595.527 177.5,600C 179.058,600.21 180.391,600.71 181.5,601.5C 180.041,601.433 178.708,601.766 177.5,602.5C 170.511,602.924 165.678,599.924 163,593.5C 159.628,576.014 156.128,558.68 152.5,541.5C 150.902,535.57 147.235,531.57 141.5,529.5C 145.437,520.232 152.437,515.232 162.5,514.5 Z"/></g>
<g><path style="opacity:1" fill="#244281" d="M 141.5,529.5 C 147.235,531.57 150.902,535.57 152.5,541.5C 152.666,548.175 152.5,554.842 152,561.5C 146.456,584.057 141.622,606.724 137.5,629.5C 136.85,631.435 136.517,633.435 136.5,635.5C 136.675,637.621 136.341,639.621 135.5,641.5C 133.735,644.123 133.068,647.123 133.5,650.5C 133.784,652.415 133.451,654.081 132.5,655.5C 131.5,656.833 130.5,658.167 129.5,659.5C 127.463,658.154 125.463,656.82 123.5,655.5C 114.499,650.824 108.999,653.491 107,663.5C 106.536,662.906 106.369,662.239 106.5,661.5C 107.096,629.152 108.096,596.819 109.5,564.5C 112.404,562.705 115.404,560.872 118.5,559C 127.757,550.274 135.424,540.441 141.5,529.5 Z"/></g>
<g><path style="opacity:1" fill="#8ec0c9" d="M 442.5,529.5 C 443.222,529.918 443.722,530.584 444,531.5C 444.5,545.163 444.667,558.829 444.5,572.5C 443.443,558.341 442.777,544.008 442.5,529.5 Z"/></g>
<g><path style="opacity:1" fill="#d68627" d="M 247.5,530.5 C 245.275,537.889 243.775,545.556 243,553.5C 240.989,571.46 239.489,589.46 238.5,607.5C 239.172,610.908 238.172,613.575 235.5,615.5C 234.817,615.137 234.15,614.804 233.5,614.5C 218.875,599.517 201.542,595.184 181.5,601.5C 180.391,600.71 179.058,600.21 177.5,600C 187.779,595.527 197.779,590.527 207.5,585C 208.252,584.329 208.586,583.496 208.5,582.5C 213.475,584.063 218.309,583.729 223,581.5C 232.345,563.814 240.345,545.481 247,526.5C 247.49,527.793 247.657,529.127 247.5,530.5 Z"/></g>
<g><path style="opacity:1" fill="#1c3467" d="M 152.5,541.5 C 156.128,558.68 159.628,576.014 163,593.5C 165.678,599.924 170.511,602.924 177.5,602.5C 172.478,612.545 167.478,622.545 162.5,632.5C 160.012,630.612 157.012,629.945 153.5,630.5C 151.167,630.5 148.833,630.5 146.5,630.5C 143.713,629.523 140.713,629.19 137.5,629.5C 141.622,606.724 146.456,584.057 152,561.5C 152.5,554.842 152.666,548.175 152.5,541.5 Z"/></g>
<g><path style="opacity:1" fill="#f4bb97" d="M 708.5,553.5 C 708.512,562.844 704.512,569.51 696.5,573.5C 690.275,571.013 683.942,570.846 677.5,573C 663.584,577.126 650.251,582.626 637.5,589.5C 636.422,586.598 635.756,583.598 635.5,580.5C 652.089,570.372 669.422,561.538 687.5,554C 694.492,553.5 701.492,553.334 708.5,553.5 Z"/></g>
<g><path style="opacity:1" fill="#f6f6f6" d="M 626.5,561.5 C 627.59,564.267 628.59,567.101 629.5,570C 628.101,574.058 626.434,577.892 624.5,581.5C 623.926,576.817 623.26,572.15 622.5,567.5C 622.622,564.708 623.956,562.708 626.5,561.5 Z"/></g>
<g><path style="opacity:1" fill="#9e5f40" d="M 622.5,567.5 C 623.26,572.15 623.926,576.817 624.5,581.5C 623.508,584.823 622.508,588.156 621.5,591.5C 619.342,593.993 616.676,595.66 613.5,596.5C 613.5,594.833 613.5,593.167 613.5,591.5C 612.062,585.957 610.062,580.624 607.5,575.5C 612.331,573.156 616.831,570.156 621,566.5C 621.383,567.056 621.883,567.389 622.5,567.5 Z"/></g>
<g><path style="opacity:0.58" fill="#b6dae1" d="M 408.5,544.5 C 406.911,556.698 404.911,568.698 402.5,580.5C 403.672,569.135 405.172,557.801 407,546.5C 407.278,545.584 407.778,544.918 408.5,544.5 Z"/></g>
<g><path style="opacity:0.997" fill="#445197" d="M 696.5,573.5 C 701.157,579.489 706.157,585.156 711.5,590.5C 711.709,591.922 712.209,593.255 713,594.5C 722.879,604.589 731.046,615.922 737.5,628.5C 737.427,630.027 738.094,631.027 739.5,631.5C 740.89,632.899 741.89,634.566 742.5,636.5C 742.427,638.027 743.094,639.027 744.5,639.5C 747,642.494 749,645.827 750.5,649.5C 750.427,651.027 751.094,652.027 752.5,652.5C 753.338,652.842 753.672,653.508 753.5,654.5C 753.427,656.027 754.094,657.027 755.5,657.5C 756.338,657.842 756.672,658.508 756.5,659.5C 756.427,661.027 757.094,662.027 758.5,662.5C 760.83,666.492 763.163,670.492 765.5,674.5C 765.67,675.822 765.337,676.989 764.5,678C 760.615,680.725 756.615,683.225 752.5,685.5C 736.932,672.436 722.099,658.436 708,643.5C 704.326,639.462 701.159,635.129 698.5,630.5C 698.167,629.5 697.5,628.833 696.5,628.5C 695.501,620.796 693.001,613.463 689,606.5C 682.781,601.002 676.781,601.335 671,607.5C 664.595,616.119 662.095,625.786 663.5,636.5C 645.374,645.277 630.04,641.944 617.5,626.5C 615.992,624.819 614.992,622.819 614.5,620.5C 613.69,614.792 615.19,609.792 619,605.5C 623.765,600.228 628.931,595.561 634.5,591.5C 636.027,591.573 637.027,590.906 637.5,589.5C 650.251,582.626 663.584,577.126 677.5,573C 683.942,570.846 690.275,571.013 696.5,573.5 Z"/></g>
<g><path style="opacity:0.096" fill="#faead9" d="M 247.5,530.5 C 244.409,553.58 242.075,576.747 240.5,600C 240.475,602.929 239.809,605.429 238.5,607.5C 239.489,589.46 240.989,571.46 243,553.5C 243.775,545.556 245.275,537.889 247.5,530.5 Z"/></g>
<g><path style="opacity:1" fill="#e08f32" d="M 355.5,572.5 C 357.754,573.124 359.421,574.457 360.5,576.5C 347.114,594.064 333.114,611.231 318.5,628C 316.726,628.97 314.893,629.804 313,630.5C 311.97,630.164 311.47,629.497 311.5,628.5C 316.503,616.496 321.503,604.496 326.5,592.5C 333.695,592.331 339.695,589.665 344.5,584.5C 345.496,584.586 346.329,584.252 347,583.5C 349.873,579.696 352.707,576.029 355.5,572.5 Z"/></g>
<g><path style="opacity:1" fill="#d95448" d="M 635.5,580.5 C 635.756,583.598 636.422,586.598 637.5,589.5C 637.027,590.906 636.027,591.573 634.5,591.5C 633.108,588.993 632.108,586.327 631.5,583.5C 631.337,579.965 632.67,578.965 635.5,580.5 Z"/></g>
<g><path style="opacity:0.995" fill="#f1ba99" d="M 631.5,583.5 C 632.108,586.327 633.108,588.993 634.5,591.5C 628.931,595.561 623.765,600.228 619,605.5C 615.19,609.792 613.69,614.792 614.5,620.5C 612.415,616.732 610.749,612.732 609.5,608.5C 610.5,608.5 611.5,608.5 612.5,608.5C 612.572,605.807 612.905,603.14 613.5,600.5C 613.36,598.97 612.693,597.97 611.5,597.5C 612.048,595.374 612.715,593.374 613.5,591.5C 613.5,593.167 613.5,594.833 613.5,596.5C 616.676,595.66 619.342,593.993 621.5,591.5C 624.545,588.453 627.878,585.787 631.5,583.5 Z"/></g>
<g><path style="opacity:1" fill="#ad7458" d="M 611.5,597.5 C 612.693,597.97 613.36,598.97 613.5,600.5C 612.905,603.14 612.572,605.807 612.5,608.5C 611.5,608.5 610.5,608.5 609.5,608.5C 608.111,604.445 608.778,600.779 611.5,597.5 Z"/></g>
<g><path style="opacity:1" fill="#21407e" d="M 233.5,614.5 C 233.904,619.783 233.238,624.783 231.5,629.5C 229.441,632.611 227.608,635.944 226,639.5C 221.263,643.087 216.43,646.42 211.5,649.5C 208.784,649.678 206.117,650.178 203.5,651C 200,653.833 196.5,656.667 193,659.5C 185.647,670.884 177.814,681.884 169.5,692.5C 162.509,699.791 155.509,707.125 148.5,714.5C 147.251,711.913 146.251,709.246 145.5,706.5C 145.326,704.139 144.993,701.806 144.5,699.5C 143.987,695.447 143.154,691.447 142,687.5C 141.617,686.944 141.117,686.611 140.5,686.5C 140.167,684.5 139.833,682.5 139.5,680.5C 139.833,679.167 140.167,677.833 140.5,676.5C 143.165,674.165 144.498,671.165 144.5,667.5C 144.5,667.167 144.5,666.833 144.5,666.5C 146.922,662.924 148.589,658.924 149.5,654.5C 150.931,653.22 151.598,651.553 151.5,649.5C 153.065,647.491 154.065,645.157 154.5,642.5C 156.925,639.411 158.925,636.078 160.5,632.5C 160.833,632.5 161.167,632.5 161.5,632.5C 161.833,632.5 162.167,632.5 162.5,632.5C 167.478,622.545 172.478,612.545 177.5,602.5C 178.708,601.766 180.041,601.433 181.5,601.5C 201.542,595.184 218.875,599.517 233.5,614.5 Z"/></g>
<g><path style="opacity:0.998" fill="#5158a4" d="M 696.5,628.5 C 696.263,629.791 696.596,630.791 697.5,631.5C 700.643,648.991 699.81,666.324 695,683.5C 691.604,697.661 687.771,711.661 683.5,725.5C 677.925,726.452 672.259,726.786 666.5,726.5C 665.474,706.376 664.474,685.876 663.5,665C 664.056,664.617 664.389,664.117 664.5,663.5C 664.804,654.416 664.471,645.416 663.5,636.5C 662.095,625.786 664.595,616.119 671,607.5C 676.781,601.335 682.781,601.002 689,606.5C 693.001,613.463 695.501,620.796 696.5,628.5 Z"/></g>
<g><path style="opacity:1" fill="#e7ecef" d="M 373.5,606.5 C 373.5,608.833 373.5,611.167 373.5,613.5C 381.586,613.801 389.586,613.467 397.5,612.5C 400.433,614.645 403.433,616.812 406.5,619C 409.037,620.838 411.871,621.671 415,621.5C 424.395,620.277 433.728,620.277 443,621.5C 443.941,618.846 444.774,616.179 445.5,613.5C 453.5,613.5 461.5,613.5 469.5,613.5C 469.216,611.585 469.549,609.919 470.5,608.5C 470.261,610.467 470.594,612.301 471.5,614C 486.126,620.099 501.126,624.766 516.5,628C 514.937,629.736 513.27,631.236 511.5,632.5C 501.167,632.5 490.833,632.5 480.5,632.5C 470.604,626.701 459.937,623.201 448.5,622C 455.508,624.499 461.841,627.999 467.5,632.5C 459.167,632.5 450.833,632.5 442.5,632.5C 442.5,634.167 442.5,635.833 442.5,637.5C 441.183,633.345 441.183,628.512 442.5,623C 432.167,622.333 421.833,622.333 411.5,623C 417.754,623.771 422.088,626.938 424.5,632.5C 418.5,632.5 412.5,632.5 406.5,632.5C 396.218,624.682 384.551,620.515 371.5,620C 376.465,622.326 381.465,624.659 386.5,627C 389.266,628.371 391.599,630.204 393.5,632.5C 385.5,632.5 377.5,632.5 369.5,632.5C 369.762,629.252 369.762,626.252 369.5,623.5C 371.555,617.896 372.888,612.23 373.5,606.5 Z"/></g>
<g><path style="opacity:1" fill="#a4684a" d="M 551.5,618.5 C 551.833,618.5 552.167,618.5 552.5,618.5C 552.5,618.833 552.5,619.167 552.5,619.5C 552.167,619.5 551.833,619.5 551.5,619.5C 547.824,620.754 544.324,622.421 541,624.5C 541.077,620.868 541.41,617.201 542,613.5C 544.552,616.359 547.719,618.026 551.5,618.5 Z"/></g>
<g><path style="opacity:1" fill="#e08d2c" d="M 300.5,614.5 C 300.5,616.833 300.5,619.167 300.5,621.5C 300.489,623.017 299.823,624.184 298.5,625C 293.167,628.333 287.833,631.667 282.5,635C 270.837,642.171 258.504,644.337 245.5,641.5C 249.679,637.588 254.012,633.921 258.5,630.5C 263.07,626.386 267.403,622.053 271.5,617.5C 272.15,617.196 272.817,616.863 273.5,616.5C 278.647,618.499 283.981,618.999 289.5,618C 293.689,618.064 297.356,616.898 300.5,614.5 Z"/></g>
<g><path style="opacity:0.38" fill="#e8d9d1" d="M 554.5,615.5 C 555.404,616.209 555.737,617.209 555.5,618.5C 554.5,618.5 553.5,618.5 552.5,618.5C 552.5,618.167 552.5,617.833 552.5,617.5C 553.833,617.5 554.5,616.833 554.5,615.5 Z"/></g>
<g><path style="opacity:1" fill="#a5694c" d="M 552.5,619.5 C 553.5,619.5 554.5,619.5 555.5,619.5C 555.5,620.833 555.5,622.167 555.5,623.5C 555.66,625.199 555.494,626.866 555,628.5C 549.754,625.602 544.754,625.936 540,629.5C 539.493,628.004 539.993,626.837 541.5,626C 545.259,624.121 548.925,622.287 552.5,620.5C 552.5,620.167 552.5,619.833 552.5,619.5 Z"/></g>
<g><path style="opacity:1" fill="#f07754" d="M 406.5,632.5 C 402.167,632.5 397.833,632.5 393.5,632.5C 391.599,630.204 389.266,628.371 386.5,627C 381.465,624.659 376.465,622.326 371.5,620C 384.551,620.515 396.218,624.682 406.5,632.5 Z"/></g>
<g><path style="opacity:0.98" fill="#e6e5e5" d="M 360.5,576.5 C 363.221,577.696 364.387,579.696 364,582.5C 351.646,596.687 339.479,611.02 327.5,625.5C 325.507,627.499 323.173,628.999 320.5,630C 328.514,630.609 336.514,630.942 344.5,631C 343.075,629.286 343.408,627.953 345.5,627C 353.467,625.505 361.467,624.339 369.5,623.5C 369.762,626.252 369.762,629.252 369.5,632.5C 369.5,632.833 369.5,633.167 369.5,633.5C 362.883,632.411 356.217,632.244 349.5,633C 359.578,637.855 370.244,640.855 381.5,642C 387.755,643.127 393.755,642.46 399.5,640C 408.827,639.5 418.161,639.334 427.5,639.5C 427.737,638.209 427.404,637.209 426.5,636.5C 426.737,635.209 426.404,634.209 425.5,633.5C 425.5,632.833 425.167,632.5 424.5,632.5C 422.088,626.938 417.754,623.771 411.5,623C 421.833,622.333 432.167,622.333 442.5,623C 441.183,628.512 441.183,633.345 442.5,637.5C 442.833,637.5 443.167,637.5 443.5,637.5C 459.658,638.496 475.991,638.83 492.5,638.5C 482.761,640.804 472.761,642.304 462.5,643C 440.01,644.704 417.51,644.871 395,643.5C 389.769,643.235 384.936,644.235 380.5,646.5C 334.579,644.643 288.912,646.977 243.5,653.5C 233.085,650.209 222.419,648.876 211.5,649.5C 216.43,646.42 221.263,643.087 226,639.5C 227.608,635.944 229.441,632.611 231.5,629.5C 240.318,630.493 249.318,630.827 258.5,630.5C 254.012,633.921 249.679,637.588 245.5,641.5C 258.504,644.337 270.837,642.171 282.5,635C 287.833,631.667 293.167,628.333 298.5,625C 299.823,624.184 300.489,623.017 300.5,621.5C 301.534,624.128 301.201,626.795 299.5,629.5C 303.779,630.984 307.779,630.65 311.5,628.5C 311.47,629.497 311.97,630.164 313,630.5C 314.893,629.804 316.726,628.97 318.5,628C 333.114,611.231 347.114,594.064 360.5,576.5 Z"/></g>
<g><path style="opacity:1" fill="#f17754" d="M 480.5,632.5 C 476.167,632.5 471.833,632.5 467.5,632.5C 461.841,627.999 455.508,624.499 448.5,622C 459.937,623.201 470.604,626.701 480.5,632.5 Z"/></g>
<g><path style="opacity:0.98" fill="#e5e5e6" d="M 617.5,626.5 C 630.04,641.944 645.374,645.277 663.5,636.5C 664.471,645.416 664.804,654.416 664.5,663.5C 663.515,659.366 663.182,655.032 663.5,650.5C 632.087,654.571 600.754,654.404 569.5,650C 560.506,649.5 551.506,649.334 542.5,649.5C 538.031,647.709 533.364,646.209 528.5,645C 527.421,644.044 526.255,643.211 525,642.5C 524.333,641.5 524.333,640.5 525,639.5C 528.411,636.48 532.411,634.813 537,634.5C 538.169,635.009 539.002,635.842 539.5,637C 545.167,637.667 550.833,637.667 556.5,637C 557.069,634.568 558.069,632.401 559.5,630.5C 578.114,628.792 596.781,628.125 615.5,628.5C 615.343,629.873 615.51,631.207 616,632.5C 616.505,630.482 617.005,628.482 617.5,626.5 Z"/></g>
<g><path style="opacity:0.567" fill="#d2d4e7" d="M 696.5,628.5 C 697.5,628.833 698.167,629.5 698.5,630.5C 697.833,630.5 697.5,630.833 697.5,631.5C 696.596,630.791 696.263,629.791 696.5,628.5 Z"/></g>
<g><path style="opacity:0.965" fill="#8492af" d="M 137.5,629.5 C 140.713,629.19 143.713,629.523 146.5,630.5C 143.833,630.5 141.167,630.5 138.5,630.5C 138.598,632.553 137.931,634.22 136.5,635.5C 136.517,633.435 136.85,631.435 137.5,629.5 Z"/></g>
<g><path style="opacity:1" fill="#9c6246" d="M 545.5,627.5 C 551.582,626.928 554.916,629.595 555.5,635.5C 550.5,635.5 545.5,635.5 540.5,635.5C 540.179,631.506 541.845,628.839 545.5,627.5 Z"/></g>
<g><path style="opacity:0.322" fill="#d2d8e4" d="M 153.5,630.5 C 157.012,629.945 160.012,630.612 162.5,632.5C 162.167,632.5 161.833,632.5 161.5,632.5C 161.167,631.167 160.833,631.167 160.5,632.5C 158.048,631.935 155.715,631.268 153.5,630.5 Z"/></g>
<g><path style="opacity:0.243" fill="#bfc3dc" d="M 737.5,628.5 C 738.906,628.973 739.573,629.973 739.5,631.5C 738.094,631.027 737.427,630.027 737.5,628.5 Z"/></g>
<g><path style="opacity:1" fill="#788085" d="M 467.5,632.5 C 471.833,632.5 476.167,632.5 480.5,632.5C 490.833,632.5 501.167,632.5 511.5,632.5C 511.5,632.833 511.5,633.167 511.5,633.5C 488.833,633.5 466.167,633.5 443.5,633.5C 443.5,634.833 443.5,636.167 443.5,637.5C 443.167,637.5 442.833,637.5 442.5,637.5C 442.5,635.833 442.5,634.167 442.5,632.5C 450.833,632.5 459.167,632.5 467.5,632.5 Z"/></g>
<g><path style="opacity:1" fill="#29414e" d="M 369.5,632.5 C 377.5,632.5 385.5,632.5 393.5,632.5C 397.833,632.5 402.167,632.5 406.5,632.5C 412.5,632.5 418.5,632.5 424.5,632.5C 425.167,632.5 425.5,632.833 425.5,633.5C 425.5,634.833 425.5,636.167 425.5,637.5C 406.833,637.5 388.167,637.5 369.5,637.5C 369.5,636.167 369.5,634.833 369.5,633.5C 369.5,633.167 369.5,632.833 369.5,632.5 Z"/></g>
<g><path style="opacity:1" fill="#1a3746" d="M 511.5,633.5 C 511.5,633.833 511.5,634.167 511.5,634.5C 511.5,635.5 511.5,636.5 511.5,637.5C 488.833,637.5 466.167,637.5 443.5,637.5C 443.5,636.167 443.5,634.833 443.5,633.5C 466.167,633.5 488.833,633.5 511.5,633.5 Z"/></g>
<g><path style="opacity:1" fill="#405561" d="M 425.5,633.5 C 426.404,634.209 426.737,635.209 426.5,636.5C 417.358,637.832 407.858,638.498 398,638.5C 388.327,638.5 378.827,638.166 369.5,637.5C 388.167,637.5 406.833,637.5 425.5,637.5C 425.5,636.167 425.5,634.833 425.5,633.5 Z"/></g>
<g><path style="opacity:1" fill="#445965" d="M 511.5,634.5 C 512.434,635.568 512.768,636.901 512.5,638.5C 505.833,638.5 499.167,638.5 492.5,638.5C 475.991,638.83 459.658,638.496 443.5,637.5C 466.167,637.5 488.833,637.5 511.5,637.5C 511.5,636.5 511.5,635.5 511.5,634.5 Z"/></g>
<g><path style="opacity:1" fill="#c6c6c7" d="M 369.5,633.5 C 369.5,634.833 369.5,636.167 369.5,637.5C 378.827,638.166 388.327,638.5 398,638.5C 407.858,638.498 417.358,637.832 426.5,636.5C 427.404,637.209 427.737,638.209 427.5,639.5C 418.161,639.334 408.827,639.5 399.5,640C 393.755,642.46 387.755,643.127 381.5,642C 370.244,640.855 359.578,637.855 349.5,633C 356.217,632.244 362.883,632.411 369.5,633.5 Z"/></g>
<g><path style="opacity:0.267" fill="#babed9" d="M 742.5,636.5 C 743.906,636.973 744.573,637.973 744.5,639.5C 743.094,639.027 742.427,638.027 742.5,636.5 Z"/></g>
<g><path style="opacity:1" fill="#8e9bbd" d="M 135.5,641.5 C 135.142,644.689 134.475,647.689 133.5,650.5C 133.068,647.123 133.735,644.123 135.5,641.5 Z"/></g>
<g><path style="opacity:0.114" fill="#e0e4ec" d="M 154.5,642.5 C 154.065,645.157 153.065,647.491 151.5,649.5C 151.552,646.654 152.552,644.32 154.5,642.5 Z"/></g>
<g><path style="opacity:0.243" fill="#bdc0da" d="M 750.5,649.5 C 751.906,649.973 752.573,650.973 752.5,652.5C 751.094,652.027 750.427,651.027 750.5,649.5 Z"/></g>
<g><path style="opacity:0.161" fill="#d9dee9" d="M 151.5,649.5 C 151.598,651.553 150.931,653.22 149.5,654.5C 149.402,652.447 150.069,650.78 151.5,649.5 Z"/></g>
<g><path style="opacity:0.991" fill="#e1e3e1" d="M 123.5,655.5 C 122.624,655.369 121.957,655.702 121.5,656.5C 123.817,659.317 126.317,661.984 129,664.5C 133.348,683.735 137.514,703.068 141.5,722.5C 139.35,724.76 137.183,727.093 135,729.5C 130.426,728.028 126.259,726.028 122.5,723.5C 120.857,719.7 120.19,715.7 120.5,711.5C 113.645,711.062 106.978,709.729 100.5,707.5C 93.2812,704.249 91.7812,699.249 96,692.5C 96.9487,690.907 98.1154,689.574 99.5,688.5C 98.4123,691.429 97.079,694.263 95.5,697C 95.7591,698.261 96.4258,699.261 97.5,700C 104.89,704.53 112.89,706.363 121.5,705.5C 118.025,695.208 113.025,685.874 106.5,677.5C 106.312,671.943 106.312,666.61 106.5,661.5C 106.369,662.239 106.536,662.906 107,663.5C 108.999,653.491 114.499,650.824 123.5,655.5 Z"/></g>
<g><path style="opacity:0.243" fill="#bcc0da" d="M 753.5,654.5 C 754.906,654.973 755.573,655.973 755.5,657.5C 754.094,657.027 753.427,656.027 753.5,654.5 Z"/></g>
<g><path style="opacity:0.243" fill="#c3cbdc" d="M 149.5,654.5 C 148.589,658.924 146.922,662.924 144.5,666.5C 145.406,662.099 147.072,658.099 149.5,654.5 Z"/></g>
<g><path style="opacity:0.898" fill="#8292b6" d="M 132.5,655.5 C 132.483,657.565 132.15,659.565 131.5,661.5C 130.167,661.5 129.5,660.833 129.5,659.5C 130.5,658.167 131.5,656.833 132.5,655.5 Z"/></g>
<g><path style="opacity:0.212" fill="#c1c4dd" d="M 756.5,659.5 C 757.906,659.973 758.573,660.973 758.5,662.5C 757.094,662.027 756.427,661.027 756.5,659.5 Z"/></g>
<g><path style="opacity:1" fill="#7687b0" d="M 144.5,667.5 C 144.498,671.165 143.165,674.165 140.5,676.5C 141.075,673.088 142.408,670.088 144.5,667.5 Z"/></g>
<g><path style="opacity:0.345" fill="#f7f1e7" d="M 136.5,672.5 C 137.833,673.833 139.167,675.167 140.5,676.5C 140.167,677.833 139.833,679.167 139.5,680.5C 138.129,678.064 137.129,675.397 136.5,672.5 Z"/></g>
<g><path style="opacity:0.97" fill="#f7be9c" d="M 765.5,674.5 C 770.804,681.989 775.97,689.656 781,697.5C 788.5,705 796,712.5 803.5,720C 805.382,720.198 807.048,720.698 808.5,721.5C 806.801,721.34 805.134,721.506 803.5,722C 801.545,725.791 798.545,728.291 794.5,729.5C 785.1,724.38 776.267,718.38 768,711.5C 767.505,713.473 767.338,715.473 767.5,717.5C 766.179,713.767 766.179,709.934 767.5,706C 766.809,704.933 766.309,703.766 766,702.5C 761.667,696.67 757.167,691.004 752.5,685.5C 756.615,683.225 760.615,680.725 764.5,678C 765.337,676.989 765.67,675.822 765.5,674.5 Z"/></g>
<g><path style="opacity:0.102" fill="#fcf0db" d="M 106.5,677.5 C 106.573,679.027 105.906,680.027 104.5,680.5C 104.427,678.973 105.094,677.973 106.5,677.5 Z"/></g>
<g><path style="opacity:1" fill="#e8a42b" d="M 106.5,677.5 C 113.025,685.874 118.025,695.208 121.5,705.5C 112.89,706.363 104.89,704.53 97.5,700C 96.4258,699.261 95.7591,698.261 95.5,697C 97.079,694.263 98.4123,691.429 99.5,688.5C 101.25,687.341 102.25,685.674 102.5,683.5C 102.782,682.222 103.449,681.222 104.5,680.5C 105.906,680.027 106.573,679.027 106.5,677.5 Z"/></g>
<g><path style="opacity:0.055" fill="#fcf3e3" d="M 102.5,683.5 C 102.25,685.674 101.25,687.341 99.5,688.5C 99.7497,686.326 100.75,684.659 102.5,683.5 Z"/></g>
<g><path style="opacity:0.988" fill="#f2f2f1" d="M 123.5,655.5 C 125.463,656.82 127.463,658.154 129.5,659.5C 129.5,660.833 130.167,661.5 131.5,661.5C 133.011,664.005 134.345,666.672 135.5,669.5C 134.876,669.917 134.543,670.584 134.5,671.5C 138.169,687.516 141.836,703.516 145.5,719.5C 146.386,718.675 146.719,717.675 146.5,716.5C 147.5,716.167 148.167,715.5 148.5,714.5C 155.509,707.125 162.509,699.791 169.5,692.5C 166.431,698.427 164.431,704.76 163.5,711.5C 156.486,715.674 149.152,719.34 141.5,722.5C 137.514,703.068 133.348,683.735 129,664.5C 126.317,661.984 123.817,659.317 121.5,656.5C 121.957,655.702 122.624,655.369 123.5,655.5 Z"/></g>
<g><path style="opacity:1" fill="#615d63" d="M 140.5,686.5 C 141.117,686.611 141.617,686.944 142,687.5C 143.154,691.447 143.987,695.447 144.5,699.5C 142.721,695.406 141.388,691.073 140.5,686.5 Z"/></g>
<g><path style="opacity:1" fill="#e6a534" d="M 135.5,669.5 C 136.11,670.391 136.443,671.391 136.5,672.5C 137.129,675.397 138.129,678.064 139.5,680.5C 139.833,682.5 140.167,684.5 140.5,686.5C 141.388,691.073 142.721,695.406 144.5,699.5C 144.993,701.806 145.326,704.139 145.5,706.5C 145.342,709.902 145.676,713.236 146.5,716.5C 146.719,717.675 146.386,718.675 145.5,719.5C 141.836,703.516 138.169,687.516 134.5,671.5C 134.543,670.584 134.876,669.917 135.5,669.5 Z"/></g>
<g><path style="opacity:0.889" fill="#fefefe" d="M 100.5,707.5 C 106.978,709.729 113.645,711.062 120.5,711.5C 120.19,715.7 120.857,719.7 122.5,723.5C 116.392,720.564 110.392,717.397 104.5,714C 102.915,711.931 101.581,709.764 100.5,707.5 Z"/></g>
<g><path style="opacity:0.984" fill="#e05d4f" d="M 808.5,721.5 C 812.081,721.138 815.081,722.138 817.5,724.5C 814.455,727.547 811.122,730.213 807.5,732.5C 803.353,733.325 799.019,733.825 794.5,734C 793.956,734.717 793.289,735.217 792.5,735.5C 789.501,731.668 786.001,728.335 782,725.5C 783.51,728.841 785.343,732.174 787.5,735.5C 786.127,735.657 784.793,735.49 783.5,735C 779.622,729.455 774.789,724.955 769,721.5C 768.209,720.255 767.709,718.922 767.5,717.5C 767.338,715.473 767.505,713.473 768,711.5C 776.267,718.38 785.1,724.38 794.5,729.5C 798.545,728.291 801.545,725.791 803.5,722C 805.134,721.506 806.801,721.34 808.5,721.5 Z"/></g>
<g><path style="opacity:1" fill="#987a50" d="M 145.5,706.5 C 146.251,709.246 147.251,711.913 148.5,714.5C 148.167,715.5 147.5,716.167 146.5,716.5C 145.676,713.236 145.342,709.902 145.5,706.5 Z"/></g>
<g><path style="opacity:0.743" fill="#fef9f9" d="M 817.5,724.5 C 820.892,725.738 821.225,727.571 818.5,730C 814.986,731.562 811.319,732.395 807.5,732.5C 811.122,730.213 814.455,727.547 817.5,724.5 Z"/></g>
<g><path style="opacity:0.991" fill="#f7bf9d" d="M 683.5,725.5 C 681.29,738.427 679.623,751.427 678.5,764.5C 678.731,771.218 679.398,777.885 680.5,784.5C 679.566,785.568 679.232,786.901 679.5,788.5C 673.464,788.64 667.464,788.307 661.5,787.5C 662.78,777.765 664.447,768.098 666.5,758.5C 666.376,757.893 666.043,757.56 665.5,757.5C 665.267,747.135 665.6,736.802 666.5,726.5C 672.259,726.786 677.925,726.452 683.5,725.5 Z"/></g>
<g><path style="opacity:0.949" fill="#fcefee" d="M 792.5,735.5 C 790.833,735.5 789.167,735.5 787.5,735.5C 785.343,732.174 783.51,728.841 782,725.5C 786.001,728.335 789.501,731.668 792.5,735.5 Z"/></g>
<g><path style="opacity:0.982" fill="#e46c5d" d="M 665.5,757.5 C 666.043,757.56 666.376,757.893 666.5,758.5C 664.447,768.098 662.78,777.765 661.5,787.5C 667.464,788.307 673.464,788.64 679.5,788.5C 679.232,786.901 679.566,785.568 680.5,784.5C 681.569,787.408 681.736,790.408 681,793.5C 677.399,798.042 672.899,800.542 667.5,801C 665,798.5 662.5,796 660,793.5C 658.496,789.961 658.163,786.295 659,782.5C 660.731,773.902 662.898,765.569 665.5,757.5 Z"/></g>
</svg>
