<?xml version="1.0" encoding="UTF-8" ?>
<!DOCTYPE svg PUBLIC "-//W3C//DTD SVG 1.1//EN" "http://www.w3.org/Graphics/SVG/1.1/DTD/svg11.dtd">
<svg xmlns="http://www.w3.org/2000/svg" version="1.1" width="400px" height="467px" style="shape-rendering:geometricPrecision; text-rendering:geometricPrecision; image-rendering:optimizeQuality; fill-rule:evenodd; clip-rule:evenodd" xmlns:xlink="http://www.w3.org/1999/xlink">
    <g><path style="opacity:0.884" fill="#fefffe" d="M 365.5,-0.5 C 366.167,-0.5 366.833,-0.5 367.5,-0.5C 363.906,20.1502 354.906,37.9835 340.5,53C 330.693,62.4786 320.026,70.8119 308.5,78C 292.682,85.3838 276.349,91.3838 259.5,96C 256.794,101.247 253.96,106.414 251,111.5C 248.603,114.4 245.77,116.733 242.5,118.5C 242.167,117.833 241.833,117.167 241.5,116.5C 242.248,110.53 242.748,104.53 243,98.5C 243.049,93.9676 243.882,89.6343 245.5,85.5C 283.914,78.3824 316.414,60.7157 343,32.5C 351.503,22.1673 359.003,11.1673 365.5,-0.5 Z" /></g>
    <g><path style="opacity:0.912" fill="#fefffe" d="M 33.5,7.5 C 38.8151,7.93021 43.8151,9.43021 48.5,12C 60.4346,19.2674 69.6013,29.1008 76,41.5C 80.2193,51.6062 85.2193,61.2729 91,70.5C 94.1667,75 98,78.8333 102.5,82C 109.587,84.312 115.92,82.9787 121.5,78C 114.178,79.394 107.178,78.394 100.5,75C 99.5,74 98.5,73 97.5,72C 98.8333,71.6667 100.167,71.3333 101.5,71C 92.6839,65.411 88.0172,57.5777 87.5,47.5C 88.4776,47.9767 89.3109,48.6433 90,49.5C 85.3269,41.1854 80.3269,32.852 75,24.5C 73.3333,22.8333 71.6667,21.1667 70,19.5C 69.3123,18.6683 69.479,18.0016 70.5,17.5C 74.811,20.6434 78.9776,23.9767 83,27.5C 92.4953,40.4878 101.495,53.8212 110,67.5C 114.448,70.4283 119.281,71.9283 124.5,72C 123.282,70.5618 122.615,68.8951 122.5,67C 123.2,63.7329 124.2,60.5663 125.5,57.5C 120.655,44.8354 124.988,40.0021 138.5,43C 145.426,46.55 152.592,49.3833 160,51.5C 161.371,48.3396 162.371,45.0063 163,41.5C 167.958,39.2607 172.791,39.7607 177.5,43C 184.74,44.0718 191.74,43.2385 198.5,40.5C 202.939,33.2909 209.273,29.1242 217.5,28C 215.3,30.2336 213.467,32.7336 212,35.5C 211.999,38.6968 212.499,41.8635 213.5,45C 213.561,47.2605 212.894,49.2605 211.5,51C 213.884,53.3792 215.384,56.2125 216,59.5C 224.924,62.6779 229.424,69.0112 229.5,78.5C 226.233,76.7026 222.9,75.2026 219.5,74C 220.329,75.8161 221.163,77.6494 222,79.5C 231.139,84.1344 236.639,91.4677 238.5,101.5C 237.998,102.521 237.332,102.688 236.5,102C 234.268,99.2651 231.601,97.0984 228.5,95.5C 225.97,103.923 223.137,112.256 220,120.5C 213.272,130.233 206.938,140.233 201,150.5C 192.049,178.678 197.049,204.012 216,226.5C 216.49,227.793 216.657,229.127 216.5,230.5C 214.217,230.392 212.217,229.559 210.5,228C 195.666,216.164 184.166,201.664 176,184.5C 174.04,174.949 170.707,165.949 166,157.5C 166.99,171.485 170.657,184.818 177,197.5C 179.015,201.5 178.849,205.334 176.5,209C 174.5,209.667 172.5,209.667 170.5,209C 165.981,205.571 161.648,201.904 157.5,198C 155.975,196.991 154.308,196.491 152.5,196.5C 153.167,200.833 153.833,205.167 154.5,209.5C 146.395,209.183 138.562,207.516 131,204.5C 128.759,204.68 128.259,205.513 129.5,207C 133.167,208.667 136.833,210.333 140.5,212C 162.009,214.671 180.175,223.837 195,239.5C 203.69,251.858 208.024,265.524 208,280.5C 207.17,290.87 202.004,297.87 192.5,301.5C 191.833,301.167 191.167,300.833 190.5,300.5C 200.091,291.628 201.924,281.294 196,269.5C 190.167,259.667 182.333,251.833 172.5,246C 152.594,238.41 135.761,226.577 122,210.5C 118.333,201.5 114.667,192.5 111,183.5C 107.833,179 104,175.167 99.5,172C 96.9009,171.231 94.4009,171.398 92,172.5C 91.3333,174.167 91.3333,175.833 92,177.5C 99.4212,193.093 94.5878,198.926 77.5,195C 76.6433,194.311 75.9767,193.478 75.5,192.5C 88.9007,191.427 90.234,186.26 79.5,177C 76.073,175.204 72.9063,173.037 70,170.5C 68.2722,167.241 68.1056,163.908 69.5,160.5C 63.429,159.482 57.429,158.149 51.5,156.5C 50.5,156.833 49.5,157.167 48.5,157.5C 50.2766,159.893 52.6099,161.56 55.5,162.5C 55.2907,163.086 54.9574,163.586 54.5,164C 49.3105,164.985 44.3105,164.485 39.5,162.5C 38.3861,163.723 38.2195,165.056 39,166.5C 40.1461,168.644 41.6461,170.477 43.5,172C 43.1667,172.5 42.8333,173 42.5,173.5C 32.1746,169.359 28.8413,162.193 32.5,152C 34.4595,151.069 36.4595,150.236 38.5,149.5C 39.1751,141.995 43.1751,139.161 50.5,141C 52.519,141.45 54.3523,142.283 56,143.5C 57.5197,139.981 60.1864,137.981 64,137.5C 67.2001,138.207 70.3668,139.04 73.5,140C 81.4575,144.895 89.6241,149.395 98,153.5C 98.9356,151.292 100.602,149.958 103,149.5C 102.8,145.706 101.8,142.039 100,138.5C 97.146,136.402 94.4794,134.069 92,131.5C 91.0561,128.653 91.5561,126.153 93.5,124C 87.5151,122.003 81.8484,119.503 76.5,116.5C 76.3505,117.552 76.5172,118.552 77,119.5C 78.6851,121.017 80.1851,122.684 81.5,124.5C 76.4264,125.036 71.7597,123.703 67.5,120.5C 65.385,126.725 63.2183,126.392 61,119.5C 59.9217,112.598 62.755,109.264 69.5,109.5C 69.4175,105.082 71.5842,102.749 76,102.5C 79.5538,102.961 82.7204,104.294 85.5,106.5C 88.8635,103.473 92.5301,102.973 96.5,105C 99.672,106.752 102.672,108.752 105.5,111C 113.584,121.539 123.917,128.872 136.5,133C 138.5,133.667 140.5,133.667 142.5,133C 151.321,123.511 161.321,115.511 172.5,109C 178.41,104.438 182.743,98.7713 185.5,92C 185.153,88.986 183.486,87.3193 180.5,87C 171.576,85.839 162.909,86.839 154.5,90C 148.682,92.4098 143.015,95.0765 137.5,98C 132.177,98.3789 128.677,95.8789 127,90.5C 126.133,86.0442 126.466,81.7109 128,77.5C 128.333,77.1667 128.667,76.8333 129,76.5C 131,79.8333 133.667,82.5 137,84.5C 137.941,82.9386 139.108,81.6053 140.5,80.5C 141.086,80.7093 141.586,81.0426 142,81.5C 143.612,78.763 145.778,77.9297 148.5,79C 149.743,77.8455 150.743,76.5122 151.5,75C 153.811,75.1554 156.144,75.1554 158.5,75C 160.663,72.5573 160.83,70.0573 159,67.5C 156.167,66.1304 153.5,66.4637 151,68.5C 149.928,71.2179 148.762,73.8845 147.5,76.5C 146.719,75.2634 145.719,74.2634 144.5,73.5C 143.167,74.5 141.833,75.5 140.5,76.5C 139.281,75.7366 138.281,74.7366 137.5,73.5C 136.988,75.8507 135.988,77.8507 134.5,79.5C 132.349,77.2277 130.849,74.561 130,71.5C 128.615,72.5505 127.615,73.8839 127,75.5C 125.703,74.2164 124.536,74.3831 123.5,76C 124.308,76.3076 124.975,76.8076 125.5,77.5C 121.125,92.3529 111.459,97.8529 96.5,94C 90.1244,91.2698 84.6244,87.4365 80,82.5C 79.3333,81.5 79.3333,80.5 80,79.5C 83.4763,82.3236 87.3096,84.157 91.5,85C 86.5653,80.0675 82.3986,74.5675 79,68.5C 74.6965,58.6168 70.6965,48.6168 67,38.5C 61.7134,29.5464 54.7134,22.213 46,16.5C 45.6924,17.3081 45.1924,17.9747 44.5,18.5C 33.2367,12.4524 21.9033,12.1191 10.5,17.5C 10.4521,14.7081 11.7854,12.8747 14.5,12C 21.0113,9.4822 27.678,8.81553 34.5,10C 33.7476,9.32924 33.4142,8.4959 33.5,7.5 Z M 136.5,49.5 C 134.571,49.7692 132.905,49.2692 131.5,48C 133.391,47.7973 135.057,48.2973 136.5,49.5 Z M 168.5,52.5 C 168.5,51.1667 168.5,49.8333 168.5,48.5C 172.059,48.4081 175.392,49.2415 178.5,51C 176.448,54.8986 174.114,55.2319 171.5,52C 172.609,50.187 171.942,49.3537 169.5,49.5C 169.737,50.791 169.404,51.791 168.5,52.5 Z M 206.5,56.5 C 211.148,63.8993 209.481,69.566 201.5,73.5C 205.957,68.749 207.624,63.0824 206.5,56.5 Z M 137.5,63.5 C 134.5,63.5 131.5,63.5 128.5,63.5C 131.678,61.5672 134.678,61.5672 137.5,63.5 Z M 112.5,137.5 C 114.583,138.029 116.417,139.029 118,140.5C 121.551,146.495 123.884,152.829 125,159.5C 116.434,158.154 107.934,156.32 99.5,154C 107.765,154.013 111.265,149.846 110,141.5C 110.48,139.867 111.313,138.534 112.5,137.5 Z M 168.5,145.5 C 169.649,145.791 170.316,146.624 170.5,148C 170.333,148.833 170.167,149.667 170,150.5C 168.991,148.975 168.491,147.308 168.5,145.5 Z M 146.5,187.5 C 149.119,188.403 149.786,190.069 148.5,192.5C 147.05,191.15 146.383,189.484 146.5,187.5 Z" /></g>
    <g><path style="opacity:0.881" fill="#fefffe" d="M 368.5,58.5 C 369.239,58.369 369.906,58.5357 370.5,59C 360.43,81.7303 344.764,99.3969 323.5,112C 299.703,124.821 274.369,132.821 247.5,136C 243.223,141.372 239.057,146.872 235,152.5C 232.691,153.975 230.524,155.642 228.5,157.5C 227.817,148.351 228.984,139.351 232,130.5C 233.211,127.241 235.044,124.408 237.5,122C 290.419,119.442 334.086,98.2754 368.5,58.5 Z" /></g>
    <g><path style="opacity:0.911" fill="#fefffe" d="M 376.5,110.5 C 378.225,110.843 378.725,111.843 378,113.5C 362.537,136.653 342.037,153.819 316.5,165C 298.52,172.161 279.854,176.494 260.5,178C 250.923,178.18 241.423,178.68 232,179.5C 230.445,184.382 230.112,189.382 231,194.5C 233.279,210.616 237.279,226.282 243,241.5C 249.038,254.41 255.205,267.243 261.5,280C 260.5,280.667 259.5,280.667 258.5,280C 227.384,248.996 211.217,211.496 210,167.5C 212.066,162.374 215.9,159.541 221.5,159C 260.376,159.132 298.042,152.465 334.5,139C 350.362,131.925 364.362,122.425 376.5,110.5 Z" /></g>
    <g><path style="opacity:0.901" fill="#fefffe" d="M 288.5,182.5 C 289.675,182.281 290.675,182.614 291.5,183.5C 285.094,193.511 282.094,204.511 282.5,216.5C 281,214.167 279.5,211.833 278,209.5C 276.543,213.741 276.209,218.074 277,222.5C 285,237.167 293,251.833 301,266.5C 304.204,277.196 304.204,287.863 301,298.5C 286.463,312.67 270.63,314.17 253.5,303C 249.117,299.697 246.117,295.531 244.5,290.5C 245.552,290.351 246.552,290.517 247.5,291C 252.832,296.333 259.165,299.499 266.5,300.5C 277.373,301.249 283.039,296.249 283.5,285.5C 283.324,282.118 282.824,278.785 282,275.5C 275.604,258.378 268.938,241.378 262,224.5C 261.194,218.916 261.361,213.416 262.5,208C 259.82,207.665 257.487,208.499 255.5,210.5C 255.167,210.167 254.833,209.833 254.5,209.5C 256.358,207.476 258.025,205.309 259.5,203C 269.233,196.145 278.9,189.311 288.5,182.5 Z" /></g>
    <g><path style="opacity:0.683" fill="#fefffe" d="M 191.5,217.5 C 198.306,218.612 200.639,222.446 198.5,229C 196.299,229.825 194.466,229.325 193,227.5C 191.957,224.243 191.457,220.91 191.5,217.5 Z" /></g>
    <g><path style="opacity:0.681" fill="#fefffe" d="M 129.5,237.5 C 136.106,238.681 138.773,242.681 137.5,249.5C 135.533,249.739 133.699,249.406 132,248.5C 130.096,245.077 129.263,241.41 129.5,237.5 Z" /></g>
    <g><path style="opacity:0.738" fill="#fefffe" d="M 210.5,237.5 C 215.224,241.72 219.891,246.22 224.5,251C 236.67,255.478 236.337,258.145 223.5,259C 222.5,260.667 221.5,262.333 220.5,264C 219.207,264.49 217.873,264.657 216.5,264.5C 216.83,255.474 214.497,247.14 209.5,239.5C 209.863,238.817 210.196,238.15 210.5,237.5 Z" /></g>
    <g><path style="opacity:0.893" fill="#fefffe" d="M 134.5,261.5 C 135.552,261.351 136.552,261.517 137.5,262C 140.99,264.911 144.656,267.578 148.5,270C 153.833,276 159.167,282 164.5,288C 171.878,294.155 179.045,293.989 186,287.5C 186.52,289.289 186.187,290.956 185,292.5C 180.118,299.464 173.452,302.13 165,300.5C 155.791,299.959 146.625,298.959 137.5,297.5C 129.899,299.13 122.565,301.63 115.5,305C 108.833,307 102.167,307 95.5,305C 90.0332,302.4 84.3665,300.4 78.5,299C 72.5734,298.121 66.9067,298.955 61.5,301.5C 60.7769,299.836 61.1103,298.169 62.5,296.5C 64.3586,294.808 66.3586,293.308 68.5,292C 80.1698,290.924 91.8365,289.591 103.5,288C 105.878,287.489 108.212,286.822 110.5,286C 111.429,283.609 112.929,281.775 115,280.5C 116.717,282.767 118.55,284.934 120.5,287C 131.639,285.861 137.139,279.694 137,268.5C 136.153,266.146 135.32,263.812 134.5,261.5 Z" /></g>
    <g><path style="opacity:0.753" fill="#fefffe" d="M 249.5,278.5 C 255.296,281.105 260.462,284.772 265,289.5C 268.231,295.779 266.398,298.613 259.5,298C 254.992,292.151 251.658,285.651 249.5,278.5 Z" /></g>
    <g><path style="opacity:0.732" fill="#fefffe" d="M 230.5,285.5 C 235.35,285.519 237.683,288.019 237.5,293C 237.36,297.711 235.526,298.545 232,295.5C 230.684,292.312 230.184,288.978 230.5,285.5 Z" /></g>
    <g><path style="opacity:0.764" fill="#fefffe" d="M 68.5,321.5 C 76.5705,321.137 84.5705,321.637 92.5,323C 94.1826,326.549 95.1826,330.383 95.5,334.5C 94.1667,335.833 92.8333,335.833 91.5,334.5C 89.2124,327.658 84.3791,324.324 77,324.5C 62.9349,325.731 56.1016,333.398 56.5,347.5C 57.2416,364.874 66.2416,372.374 83.5,370C 87.6116,368.39 90.6116,365.556 92.5,361.5C 93.6888,360.571 95.0222,360.238 96.5,360.5C 96.6325,367.789 93.2992,372.289 86.5,374C 72.8591,377.117 61.3591,373.617 52,363.5C 42.775,343.627 48.275,329.627 68.5,321.5 Z" /></g>
    <g><path style="opacity:0.765" fill="#fefffe" d="M 121.5,321.5 C 122.5,321.5 123.5,321.5 124.5,321.5C 128.987,337.963 134.654,353.963 141.5,369.5C 143.071,370.309 144.738,370.643 146.5,370.5C 146.5,371.5 146.5,372.5 146.5,373.5C 139.833,373.5 133.167,373.5 126.5,373.5C 126.5,372.5 126.5,371.5 126.5,370.5C 128.167,370.5 129.833,370.5 131.5,370.5C 130.581,365.406 129.247,360.406 127.5,355.5C 122.208,354.505 116.875,354.172 111.5,354.5C 109.558,359.663 108.225,364.997 107.5,370.5C 109.167,370.5 110.833,370.5 112.5,370.5C 112.5,371.5 112.5,372.5 112.5,373.5C 106.824,373.666 101.157,373.499 95.5,373C 95.0426,372.586 94.7093,372.086 94.5,371.5C 97.5223,371.072 100.022,369.739 102,367.5C 107.618,353.266 112.951,338.933 118,324.5C 119.145,323.364 120.312,322.364 121.5,321.5 Z M 119.5,332.5 C 121.486,337.73 123.486,343.063 125.5,348.5C 121.541,349.66 117.541,349.827 113.5,349C 115.994,343.684 117.994,338.184 119.5,332.5 Z" /></g>
    <g><path style="opacity:0.777" fill="#fefffe" d="M 158.5,321.5 C 166.906,320.76 174.739,322.426 182,326.5C 187.753,336.244 185.587,343.744 175.5,349C 179.863,356.719 185.196,363.719 191.5,370C 193.025,371.009 194.692,371.509 196.5,371.5C 196.5,372.5 196.5,373.5 196.5,374.5C 191.053,375.174 186.053,374.008 181.5,371C 176.447,364.948 171.781,358.615 167.5,352C 165.527,351.505 163.527,351.338 161.5,351.5C 161.334,357.176 161.501,362.843 162,368.5C 163.444,370.155 165.278,370.822 167.5,370.5C 167.5,371.5 167.5,372.5 167.5,373.5C 160.833,373.5 154.167,373.5 147.5,373.5C 147.5,372.5 147.5,371.5 147.5,370.5C 149.722,370.822 151.556,370.155 153,368.5C 153.667,354.833 153.667,341.167 153,327.5C 151.601,326.773 150.101,326.273 148.5,326C 147.663,324.989 147.33,323.822 147.5,322.5C 151.371,322.815 155.038,322.482 158.5,321.5 Z M 161.5,325.5 C 172.843,325.008 177.677,330.341 176,341.5C 172.634,346.686 167.801,348.686 161.5,347.5C 161.5,340.167 161.5,332.833 161.5,325.5 Z" /></g>
    <g><path style="opacity:0.81" fill="#fefffe" d="M 210.5,321.5 C 220.998,320.893 230.998,322.726 240.5,327C 251.595,337.346 253.428,349.18 246,362.5C 239.062,370.932 230.062,374.932 219,374.5C 211.853,373.73 204.686,373.397 197.5,373.5C 197.5,372.5 197.5,371.5 197.5,370.5C 199.993,370.671 201.826,369.671 203,367.5C 203.667,354.5 203.667,341.5 203,328.5C 201.663,326.996 199.996,325.996 198,325.5C 197.517,324.552 197.351,323.552 197.5,322.5C 202.032,322.818 206.366,322.485 210.5,321.5 Z M 214.5,325.5 C 237.906,326.281 246.073,337.948 239,360.5C 232.658,369.549 224.158,372.382 213.5,369C 212.874,368.25 212.374,367.416 212,366.5C 210.188,353.191 210.021,339.857 211.5,326.5C 212.791,326.737 213.791,326.404 214.5,325.5 Z" /></g>
    <g><path style="opacity:0.777" fill="#fefffe" d="M 253.5,321.5 C 260.167,322.833 266.833,322.833 273.5,321.5C 273.5,322.833 273.5,324.167 273.5,325.5C 271.533,325.261 269.699,325.594 268,326.5C 267.167,340.845 267.334,355.178 268.5,369.5C 270.071,370.309 271.738,370.643 273.5,370.5C 273.5,371.5 273.5,372.5 273.5,373.5C 266.5,373.5 259.5,373.5 252.5,373.5C 252.5,372.5 252.5,371.5 252.5,370.5C 255.368,370.915 257.535,369.915 259,367.5C 259.667,354.167 259.667,340.833 259,327.5C 257.211,325.771 255.044,325.104 252.5,325.5C 252.433,324.041 252.766,322.708 253.5,321.5 Z" /></g>
    <g><path style="opacity:0.783" fill="#fefffe" d="M 276.5,321.5 C 287.513,322.788 298.513,322.788 309.5,321.5C 311.003,325.355 311.67,329.355 311.5,333.5C 310.167,333.5 308.833,333.5 307.5,333.5C 307.919,330.675 306.919,328.509 304.5,327C 299.511,326.501 294.511,326.334 289.5,326.5C 289.5,332.833 289.5,339.167 289.5,345.5C 294.214,345.827 298.88,345.493 303.5,344.5C 304.309,342.929 304.643,341.262 304.5,339.5C 305.833,339.5 307.167,339.5 308.5,339.5C 308.5,344.833 308.5,350.167 308.5,355.5C 307.167,355.5 305.833,355.5 304.5,355.5C 305.035,352.762 304.035,350.928 301.5,350C 297.514,349.501 293.514,349.334 289.5,349.5C 289.334,355.176 289.501,360.843 290,366.5C 290.249,367.624 290.749,368.624 291.5,369.5C 293.535,370.041 295.535,370.708 297.5,371.5C 297.333,371.833 297.167,372.167 297,372.5C 289.921,373.48 282.755,373.813 275.5,373.5C 275.5,372.5 275.5,371.5 275.5,370.5C 278.895,371.056 281.062,369.723 282,366.5C 282.667,354.167 282.667,341.833 282,329.5C 281.693,326.124 279.86,324.79 276.5,325.5C 276.5,324.167 276.5,322.833 276.5,321.5 Z" /></g>
    <g><path style="opacity:0.748" fill="#fefffe" d="M 314.5,321.5 C 325.513,322.788 336.513,322.788 347.5,321.5C 348.491,325.445 348.824,329.445 348.5,333.5C 347.5,333.5 346.5,333.5 345.5,333.5C 345.451,330.901 344.451,328.734 342.5,327C 337.511,326.501 332.511,326.334 327.5,326.5C 327.5,332.833 327.5,339.167 327.5,345.5C 331.846,345.666 336.179,345.499 340.5,345C 342.155,343.556 342.822,341.722 342.5,339.5C 343.833,339.5 345.167,339.5 346.5,339.5C 345.636,344.933 345.636,350.266 346.5,355.5C 345.167,355.5 343.833,355.5 342.5,355.5C 342.671,353.007 341.671,351.174 339.5,350C 335.514,349.501 331.514,349.334 327.5,349.5C 327.334,355.509 327.501,361.509 328,367.5C 329.287,370.145 331.453,371.145 334.5,370.5C 334.5,371.5 334.5,372.5 334.5,373.5C 327.5,373.5 320.5,373.5 313.5,373.5C 313.5,372.5 313.5,371.5 313.5,370.5C 315.262,370.643 316.929,370.309 318.5,369.5C 319.666,355.178 319.833,340.845 319,326.5C 317.644,325.62 316.144,325.286 314.5,325.5C 314.5,324.167 314.5,322.833 314.5,321.5 Z" /></g>
    <g><path style="opacity:0.725" fill="#fefffe" d="M 17.5,384.5 C 139.167,384.5 260.833,384.5 382.5,384.5C 382.5,385.833 382.5,387.167 382.5,388.5C 260.833,388.5 139.167,388.5 17.5,388.5C 17.5,387.167 17.5,385.833 17.5,384.5 Z" /></g>
    <g><path style="opacity:0.761" fill="#fefffe" d="M 22.5,400.5 C 30.9453,400.098 39.2786,400.765 47.5,402.5C 47.2408,406.24 47.5741,409.906 48.5,413.5C 47.8333,413.833 47.1667,414.167 46.5,414.5C 44.1614,412.353 42.1614,409.853 40.5,407C 17.5453,400.758 7.37861,409.592 10,433.5C 14.4148,446.797 23.5815,451.964 37.5,449C 41.3642,447.302 44.0309,444.469 45.5,440.5C 46.6888,439.571 48.0222,439.238 49.5,439.5C 49.1065,443.406 47.9398,447.072 46,450.5C 44.0551,451.863 41.8884,452.697 39.5,453C 26.7714,455.859 15.6048,453.025 6,444.5C -4.9534,423.517 0.546599,408.85 22.5,400.5 Z" /></g>
    <g><path style="opacity:0.773" fill="#fefffe" d="M 73.5,400.5 C 74.5,400.5 75.5,400.5 76.5,400.5C 81.2227,415.168 86.056,429.835 91,444.5C 92.0804,448.291 94.5804,449.957 98.5,449.5C 98.6567,450.873 98.49,452.207 98,453.5C 91.555,452.851 85.055,452.184 78.5,451.5C 79.6685,449.783 81.3352,449.116 83.5,449.5C 82.9861,444.29 81.6528,439.29 79.5,434.5C 74.2805,433.196 69.1139,433.196 64,434.5C 61.7868,439.304 60.2868,444.304 59.5,449.5C 61.1667,449.5 62.8333,449.5 64.5,449.5C 64.5,450.5 64.5,451.5 64.5,452.5C 58.9066,452.193 53.4066,452.527 48,453.5C 47.51,452.207 47.3433,450.873 47.5,449.5C 49.8273,449.753 51.8273,449.086 53.5,447.5C 59.6957,433.078 65.1957,418.411 70,403.5C 71.5185,402.837 72.6851,401.837 73.5,400.5 Z M 71.5,411.5 C 73.6676,416.657 75.6676,421.99 77.5,427.5C 73.8927,428.489 70.226,428.823 66.5,428.5C 68.3651,422.903 70.0318,417.237 71.5,411.5 Z" /></g>
    <g><path style="opacity:0.748" fill="#fefffe" d="M 101.5,401.5 C 113.167,401.5 124.833,401.5 136.5,401.5C 137.244,405.119 137.577,408.785 137.5,412.5C 136.448,412.649 135.448,412.483 134.5,412C 133.896,409.532 132.562,407.532 130.5,406C 125.511,405.501 120.511,405.334 115.5,405.5C 115.334,411.842 115.5,418.175 116,424.5C 120.066,423.536 124.233,423.203 128.5,423.5C 127.887,420.031 129.221,418.031 132.5,417.5C 132.5,423.167 132.5,428.833 132.5,434.5C 131.325,434.719 130.325,434.386 129.5,433.5C 128.926,431.941 128.26,430.441 127.5,429C 123.514,428.501 119.514,428.334 115.5,428.5C 114.899,435.289 115.566,441.789 117.5,448C 122.833,448.667 128.167,448.667 133.5,448C 135.953,446.12 137.953,443.787 139.5,441C 140.448,440.517 141.448,440.351 142.5,440.5C 142.117,444.319 141.117,447.986 139.5,451.5C 126.604,452.175 113.771,452.842 101,453.5C 100.51,452.207 100.343,450.873 100.5,449.5C 103.044,449.896 105.211,449.229 107,447.5C 107.667,433.833 107.667,420.167 107,406.5C 105.556,404.845 103.722,404.178 101.5,404.5C 101.5,403.5 101.5,402.5 101.5,401.5 Z" /></g>
    <g><path style="opacity:0.787" fill="#fefffe" d="M 142.5,401.5 C 151.506,401.334 160.506,401.5 169.5,402C 179.557,405.838 182.39,412.671 178,422.5C 176.062,425.106 173.562,426.939 170.5,428C 174.683,435.853 180.016,442.853 186.5,449C 188.025,450.009 189.692,450.509 191.5,450.5C 191.5,451.5 191.5,452.5 191.5,453.5C 183.978,454.606 177.811,452.272 173,446.5C 169.871,441.074 166.371,435.907 162.5,431C 160.527,430.505 158.527,430.338 156.5,430.5C 156.334,436.176 156.501,441.843 157,447.5C 158.444,449.155 160.278,449.822 162.5,449.5C 162.5,450.5 162.5,451.5 162.5,452.5C 155.833,452.5 149.167,452.5 142.5,452.5C 142.5,451.5 142.5,450.5 142.5,449.5C 144.722,449.822 146.556,449.155 148,447.5C 148.667,433.833 148.667,420.167 148,406.5C 146.601,405.773 145.101,405.273 143.5,405C 142.663,403.989 142.33,402.822 142.5,401.5 Z M 157.5,404.5 C 171.118,405.738 174.785,412.405 168.5,424.5C 164.712,426.256 160.712,426.922 156.5,426.5C 156.203,419.08 156.536,411.746 157.5,404.5 Z" /></g>
    <g><path style="opacity:0.786" fill="#fefffe" d="M 192.5,401.5 C 203.172,401.333 213.839,401.5 224.5,402C 237.812,404.808 244.812,412.975 245.5,426.5C 245.563,437.216 240.896,445.049 231.5,450C 225.936,452.446 220.103,453.613 214,453.5C 206.846,452.858 199.679,452.525 192.5,452.5C 192.5,451.5 192.5,450.5 192.5,449.5C 194.722,449.822 196.556,449.155 198,447.5C 198.667,434.167 198.667,420.833 198,407.5C 196.663,405.996 194.996,404.996 193,404.5C 192.517,403.552 192.351,402.552 192.5,401.5 Z M 210.5,404.5 C 232.968,405.289 240.801,416.955 234,439.5C 230.149,446.572 224.149,449.905 216,449.5C 212.559,449.687 209.559,448.687 207,446.5C 206.5,432.837 206.333,419.171 206.5,405.5C 208.099,405.768 209.432,405.434 210.5,404.5 Z" /></g>
    <g><path style="opacity:0.788" fill="#fefffe" d="M 243.5,401.5 C 249.833,401.5 256.167,401.5 262.5,401.5C 262.5,402.5 262.5,403.5 262.5,404.5C 261.167,404.5 259.833,404.5 258.5,404.5C 261.014,411.862 264.347,418.862 268.5,425.5C 272.674,419.154 276.341,412.488 279.5,405.5C 277.49,404.935 275.824,403.935 274.5,402.5C 280.128,401.505 285.794,401.171 291.5,401.5C 291.5,402.5 291.5,403.5 291.5,404.5C 287.853,404.622 285.019,406.288 283,409.5C 278.967,416.853 274.967,424.187 271,431.5C 270.333,436.5 270.333,441.5 271,446.5C 271.374,447.416 271.874,448.25 272.5,449C 274.473,449.495 276.473,449.662 278.5,449.5C 278.657,450.873 278.49,452.207 278,453.5C 270.921,452.52 263.755,452.187 256.5,452.5C 256.5,451.5 256.5,450.5 256.5,449.5C 260.162,450.363 262.328,449.03 263,445.5C 263.772,440.096 263.439,434.762 262,429.5C 257.745,421.991 253.745,414.324 250,406.5C 248.103,404.984 245.936,404.317 243.5,404.5C 243.5,403.5 243.5,402.5 243.5,401.5 Z" /></g>
    <g><path style="opacity:0.791" fill="#fefffe" d="M 293.5,401.5 C 305.553,401.109 317.553,401.609 329.5,403C 339.921,407.273 345.588,415.106 346.5,426.5C 343.754,445.069 332.921,454.069 314,453.5C 306.846,452.858 299.679,452.525 292.5,452.5C 292.5,451.5 292.5,450.5 292.5,449.5C 294.262,449.643 295.929,449.309 297.5,448.5C 298.666,434.512 298.833,420.512 298,406.5C 296.644,405.62 295.144,405.286 293.5,405.5C 293.5,404.167 293.5,402.833 293.5,401.5 Z M 311.5,404.5 C 333.119,405.989 340.953,417.323 335,438.5C 329.888,447.756 322.055,451.256 311.5,449C 309.777,448.477 308.444,447.477 307.5,446C 306.527,432.537 306.193,419.037 306.5,405.5C 308.415,405.784 310.081,405.451 311.5,404.5 Z" /></g>
    <g><path style="opacity:0.787" fill="#fefffe" d="M 399.5,419.5 C 399.5,424.167 399.5,428.833 399.5,433.5C 393.922,447.527 383.422,454.193 368,453.5C 360.846,452.858 353.679,452.525 346.5,452.5C 346.5,451.5 346.5,450.5 346.5,449.5C 348.722,449.822 350.556,449.155 352,447.5C 352.667,433.833 352.667,420.167 352,406.5C 350.601,405.773 349.101,405.273 347.5,405C 346.167,404 346.167,403 347.5,402C 359.549,401.109 371.549,401.443 383.5,403C 391.107,406.438 396.44,411.938 399.5,419.5 Z M 364.5,404.5 C 385.917,405.132 394.084,416.132 389,437.5C 384.385,447.557 376.552,451.39 365.5,449C 363.152,448.89 361.652,447.723 361,445.5C 360.5,432.171 360.333,418.837 360.5,405.5C 362.099,405.768 363.432,405.434 364.5,404.5 Z" /></g>
    <g><path style="opacity:0.877" fill="#fefffe" d="M -0.5,463.5 C 132.833,463.5 266.167,463.5 399.5,463.5C 399.5,464.5 399.5,465.5 399.5,466.5C 266.167,466.5 132.833,466.5 -0.5,466.5C -0.5,465.5 -0.5,464.5 -0.5,463.5 Z" /></g>
</svg>